Inter-UI-ThinItalic.ufo
<glyph name="exclam" format="2">
  <advance width="736.0"/>
  <unicode hex="0021"/>
  <outline>
    <contour>
      <point x="612.0" y="2048.0" type="line"/>
      <point x="548.0" y="2048.0" type="line"/>
      <point x="288.0" y="480.0" type="line"/>
      <point x="352.0" y="480.0" type="line"/>
    </contour>
    <component base="period" xOffset="12.0"/>
  </outline>
</glyph>
<glyph name="numbersign" format="2">
  <advance width="1719.0"/>
  <unicode hex="0023"/>
  <outline>
    <contour>
      <point x="212.0" y="0.0" type="line"/>
      <point x="360.0" y="0.0" type="line"/>
      <point x="920.0" y="2084.0" type="line"/>
      <point x="772.0" y="2084.0" type="line"/>
    </contour>
    <contour>
      <point x="916.0" y="0.0" type="line"/>
      <point x="1056.0" y="0.0" type="line"/>
      <point x="1624.0" y="2084.0" type="line"/>
      <point x="1476.0" y="2084.0" type="line"/>
    </contour>
    <contour>
      <point x="1668.0" y="1364.0" type="line"/>
      <point x="1752.0" y="1536.0" type="line"/>
      <point x="368.0" y="1536.0" type="line"/>
      <point x="288.0" y="1364.0" type="line"/>
    </contour>
    <contour>
      <point x="1460.0" y="572.0" type="line"/>
      <point x="1532.0" y="728.0" type="line"/>
      <point x="152.0" y="728.0" type="line"/>
      <point x="76.0" y="572.0" type="line"/>
    </contour>
  </outline>
</glyph>
<glyph name="dollar" format="2">
  <advance width="1724.0"/>
  <unicode hex="0024"/>
  <outline>
    <contour>
      <point x="664.0" y="-256.0" type="line"/>
      <point x="728.0" y="-256.0" type="line"/>
      <point x="1152.0" y="2304.0" type="line"/>
      <point x="1088.0" y="2304.0" type="line"/>
    </contour>
    <component base="S"/>
  </outline>
</glyph>
<glyph name="percent" format="2">
  <advance width="2176.0"/>
  <unicode hex="0025"/>
  <outline>
    <contour>
      <point x="1216.0" y="372.0" type="line" smooth="yes"/>
      <point x="1176.0" y="132.0"/>
      <point x="1296.0" y="-28.0"/>
      <point x="1484.0" y="-28.0" type="curve" smooth="yes"/>
      <point x="1676.0" y="-28.0"/>
      <point x="1848.0" y="132.0"/>
      <point x="1888.0" y="372.0" type="curve" smooth="yes"/>
      <point x="1896.0" y="436.0" type="line" smooth="yes"/>
      <point x="1936.0" y="676.0"/>
      <point x="1816.0" y="836.0"/>
      <point x="1628.0" y="836.0" type="curve" smooth="yes"/>
      <point x="1436.0" y="836.0"/>
      <point x="1264.0" y="676.0"/>
      <point x="1224.0" y="436.0" type="curve" smooth="yes"/>
    </contour>
    <contour>
      <point x="1288.0" y="436.0" type="line" smooth="yes"/>
      <point x="1324.0" y="640.0"/>
      <point x="1464.0" y="772.0"/>
      <point x="1616.0" y="772.0" type="curve" smooth="yes"/>
      <point x="1768.0" y="772.0"/>
      <point x="1868.0" y="640.0"/>
      <point x="1832.0" y="436.0" type="curve" smooth="yes"/>
      <point x="1824.0" y="372.0" type="line" smooth="yes"/>
      <point x="1788.0" y="168.0"/>
      <point x="1648.0" y="36.0"/>
      <point x="1496.0" y="36.0" type="curve" smooth="yes"/>
      <point x="1340.0" y="36.0"/>
      <point x="1244.0" y="168.0"/>
      <point x="1280.0" y="372.0" type="curve" smooth="yes"/>
    </contour>
    <contour>
      <point x="364.0" y="1612.0" type="line" smooth="yes"/>
      <point x="324.0" y="1372.0"/>
      <point x="444.0" y="1212.0"/>
      <point x="632.0" y="1212.0" type="curve" smooth="yes"/>
      <point x="824.0" y="1212.0"/>
      <point x="996.0" y="1372.0"/>
      <point x="1036.0" y="1612.0" type="curve" smooth="yes"/>
      <point x="1048.0" y="1676.0" type="line" smooth="yes"/>
      <point x="1084.0" y="1916.0"/>
      <point x="968.0" y="2076.0"/>
      <point x="776.0" y="2076.0" type="curve" smooth="yes"/>
      <point x="588.0" y="2076.0"/>
      <point x="412.0" y="1916.0"/>
      <point x="376.0" y="1676.0" type="curve" smooth="yes"/>
    </contour>
    <contour>
      <point x="440.0" y="1676.0" type="line" smooth="yes"/>
      <point x="472.0" y="1880.0"/>
      <point x="612.0" y="2012.0"/>
      <point x="764.0" y="2012.0" type="curve" smooth="yes"/>
      <point x="920.0" y="2012.0"/>
      <point x="1016.0" y="1880.0"/>
      <point x="984.0" y="1676.0" type="curve" smooth="yes"/>
      <point x="972.0" y="1612.0" type="line" smooth="yes"/>
      <point x="936.0" y="1408.0"/>
      <point x="796.0" y="1276.0"/>
      <point x="644.0" y="1276.0" type="curve" smooth="yes"/>
      <point x="492.0" y="1276.0"/>
      <point x="392.0" y="1408.0"/>
      <point x="428.0" y="1612.0" type="curve" smooth="yes"/>
    </contour>
    <component base="fraction" xOffset="704.0"/>
  </outline>
</glyph>
<glyph name="ampersand" format="2">
  <advance width="1702.0"/>
  <unicode hex="0026"/>
  <outline>
    <contour>
      <point x="716.0" y="1172.0" type="line"/>
      <point x="410.0" y="982.0"/>
      <point x="182.0" y="814.0"/>
      <point x="140.0" y="544.0" type="curve"/>
      <point x="81.0" y="202.0"/>
      <point x="279.0" y="-26.0"/>
      <point x="664.0" y="-28.0" type="curve"/>
      <point x="872.0" y="-26.0"/>
      <point x="1128.0" y="66.0"/>
      <point x="1272.0" y="240.0" type="curve"/>
      <point x="1268.0" y="288.0" type="line"/>
      <point x="1221.0" y="303.0"/>
      <point x="1432.0" y="354.0"/>
      <point x="1508.0" y="792.0" type="curve"/>
      <point x="1404.0" y="792.0" type="line"/>
      <point x="1327.0" y="322.0"/>
      <point x="969.0" y="48.0"/>
      <point x="640.0" y="48.0" type="curve" smooth="yes"/>
      <point x="331.0" y="48.0"/>
      <point x="163.0" y="282.0"/>
      <point x="204.0" y="520.0" type="curve"/>
      <point x="207.0" y="554.0"/>
      <point x="291.0" y="751.0"/>
      <point x="580.0" y="944.0" type="curve" smooth="yes"/>
      <point x="1024.0" y="1248.0" type="line" smooth="yes"/>
      <point x="1207.0" y="1373.0"/>
      <point x="1338.0" y="1490.0"/>
      <point x="1372.0" y="1688.0" type="curve"/>
      <point x="1405.0" y="1882.0"/>
      <point x="1261.0" y="2061.0"/>
      <point x="976.0" y="2060.0" type="curve" smooth="yes"/>
      <point x="711.0" y="2061.0"/>
      <point x="514.0" y="1914.0"/>
      <point x="476.0" y="1660.0" type="curve" smooth="yes"/>
      <point x="439.0" y="1443.0"/>
      <point x="575.0" y="1307.0"/>
      <point x="792.0" y="972.0" type="curve" smooth="yes"/>
      <point x="1372.0" y="0.0" type="line"/>
      <point x="1496.0" y="0.0" type="line"/>
      <point x="784.0" y="1184.0" type="line"/>
      <point x="681.0" y="1332.0"/>
      <point x="557.0" y="1499.0"/>
      <point x="588.0" y="1660.0" type="curve" smooth="yes"/>
      <point x="615.0" y="1810.0"/>
      <point x="779.0" y="1996.0"/>
      <point x="976.0" y="1996.0" type="curve" smooth="yes"/>
      <point x="1147.0" y="1996.0"/>
      <point x="1254.0" y="1840.0"/>
      <point x="1236.0" y="1712.0" type="curve" smooth="yes"/>
      <point x="1202.0" y="1517.0"/>
      <point x="1085.0" y="1436.0"/>
      <point x="940.0" y="1352.0" type="curve" smooth="yes"/>
    </contour>
  </outline>
</glyph>
<glyph name="parenleft" format="2">
  <advance width="888.0"/>
  <unicode hex="0028"/>
  <outline>
    <contour>
      <point x="344.0" y="864.0" type="curve" smooth="yes"/>
      <point x="272.0" y="436.0"/>
      <point x="304.0" y="-4.0"/>
      <point x="428.0" y="-416.0" type="curve"/>
      <point x="496.0" y="-416.0" type="line"/>
      <point x="368.0" y="-4.0"/>
      <point x="336.0" y="432.0"/>
      <point x="408.0" y="864.0" type="curve" smooth="yes"/>
      <point x="480.0" y="1292.0"/>
      <point x="652.0" y="1732.0"/>
      <point x="920.0" y="2144.0" type="curve"/>
      <point x="852.0" y="2144.0" type="line"/>
      <point x="592.0" y="1736.0"/>
      <point x="416.0" y="1296.0"/>
    </contour>
  </outline>
</glyph>
<glyph name="asterisk" format="2">
  <advance width="1408.0"/>
  <unicode hex="002A"/>
  <note>
hexagonal angle: 30 deg
</note>
  <outline>
    <contour>
      <point x="692.0" y="896.0" type="line"/>
      <point x="756.0" y="896.0" type="line"/>
      <point x="844.0" y="1420.0" type="line"/>
      <point x="1256.0" y="1156.0" type="line"/>
      <point x="1288.0" y="1212.0" type="line"/>
      <point x="884.0" y="1468.0" type="line"/>
      <point x="1384.0" y="1732.0" type="line"/>
      <point x="1352.0" y="1788.0" type="line"/>
      <point x="860.0" y="1528.0" type="line"/>
      <point x="948.0" y="2048.0" type="line"/>
      <point x="884.0" y="2048.0" type="line"/>
      <point x="796.0" y="1524.0" type="line"/>
      <point x="384.0" y="1788.0" type="line"/>
      <point x="352.0" y="1732.0" type="line"/>
      <point x="756.0" y="1476.0" type="line"/>
      <point x="256.0" y="1212.0" type="line"/>
      <point x="288.0" y="1156.0" type="line"/>
      <point x="780.0" y="1416.0" type="line"/>
    </contour>
  </outline>
</glyph>
<glyph name="plus" format="2">
  <advance width="1792.0"/>
  <unicode hex="002B"/>
  <outline>
    <contour>
      <point x="772.0" y="220.0" type="line"/>
      <point x="836.0" y="220.0" type="line"/>
      <point x="1028.0" y="1380.0" type="line"/>
      <point x="964.0" y="1380.0" type="line"/>
    </contour>
    <contour>
      <point x="316.0" y="768.0" type="line"/>
      <point x="1476.0" y="768.0" type="line"/>
      <point x="1488.0" y="832.0" type="line"/>
      <point x="328.0" y="832.0" type="line"/>
    </contour>
  </outline>
</glyph>
<glyph name="comma" format="2">
  <advance width="724.0"/>
  <unicode hex="002C"/>
  <outline>
    <contour>
      <point x="364.0" y="280.0" type="line"/>
      <point x="296.0" y="280.0" type="line"/>
      <point x="256.0" y="168.0" type="line" smooth="yes"/>
      <point x="160.0" y="-102.0"/>
      <point x="76.0" y="-348.0"/>
      <point x="24.0" y="-500.0" type="curve"/>
      <point x="76.0" y="-500.0" type="line"/>
      <point x="148.0" y="-348.0"/>
      <point x="249.0" y="-18.0"/>
      <point x="324.0" y="176.0" type="curve" smooth="yes"/>
    </contour>
  </outline>
</glyph>
<glyph name="hyphen" format="2">
  <advance width="1236.0"/>
  <unicode hex="002D"/>
  <outline>
    <contour>
      <point x="1028.0" y="916.0" type="line"/>
      <point x="264.0" y="916.0" type="line"/>
      <point x="252.0" y="852.0" type="line"/>
      <point x="1016.0" y="852.0" type="line"/>
    </contour>
  </outline>
</glyph>
<glyph name="period" format="2">
  <advance width="712.0"/>
  <unicode hex="002E"/>
  <outline>
    <contour>
      <point x="232.0" y="-12.0" type="curve" smooth="yes"/>
      <point x="272.0" y="-12.0"/>
      <point x="308.0" y="20.0"/>
      <point x="312.0" y="60.0" type="curve" smooth="yes"/>
      <point x="316.0" y="100.0"/>
      <point x="288.0" y="132.0"/>
      <point x="248.0" y="132.0" type="curve" smooth="yes"/>
      <point x="208.0" y="132.0"/>
      <point x="172.0" y="100.0"/>
      <point x="168.0" y="60.0" type="curve" smooth="yes"/>
      <point x="164.0" y="20.0"/>
      <point x="192.0" y="-12.0"/>
    </contour>
  </outline>
</glyph>
<glyph name="slash" format="2">
  <advance width="910.0"/>
  <unicode hex="002F"/>
  <outline>
    <contour>
      <point x="1048.0" y="2144.0" type="line"/>
      <point x="980.0" y="2144.0" type="line"/>
      <point x="-84.0" y="-308.0" type="line"/>
      <point x="-20.0" y="-308.0" type="line"/>
    </contour>
  </outline>
</glyph>
<glyph name="zero" format="2">
  <advance width="1664.0"/>
  <unicode hex="0030"/>
  <outline>
    <contour>
      <point x="696.0" y="-28.0" type="curve" smooth="yes"/>
      <point x="1086.0" y="-28.0"/>
      <point x="1392.0" y="372.0"/>
      <point x="1500.0" y="1024.0" type="curve" smooth="yes"/>
      <point x="1608.0" y="1676.0"/>
      <point x="1434.0" y="2076.0"/>
      <point x="1044.0" y="2076.0" type="curve" smooth="yes"/>
      <point x="654.0" y="2076.0"/>
      <point x="352.0" y="1674.0"/>
      <point x="244.0" y="1024.0" type="curve" smooth="yes"/>
      <point x="136.0" y="370.0"/>
      <point x="306.0" y="-28.0"/>
    </contour>
    <contour>
      <point x="700.0" y="36.0" type="curve" smooth="yes"/>
      <point x="342.0" y="36.0"/>
      <point x="208.0" y="423.0"/>
      <point x="308.0" y="1024.0" type="curve" smooth="yes"/>
      <point x="412.0" y="1655.0"/>
      <point x="698.0" y="2012.0"/>
      <point x="1044.0" y="2012.0" type="curve" smooth="yes"/>
      <point x="1398.0" y="2012.0"/>
      <point x="1535.0" y="1623.0"/>
      <point x="1436.0" y="1024.0" type="curve" smooth="yes"/>
      <point x="1331.0" y="391.0"/>
      <point x="1042.0" y="36.0"/>
    </contour>
  </outline>
</glyph>
<glyph name="one" format="2">
  <advance width="1136.0"/>
  <unicode hex="0031"/>
  <outline>
    <contour>
      <point x="916.0" y="2048.0" type="line"/>
      <point x="860.0" y="2048.0" type="line"/>
      <point x="844.0" y="2028.0"/>
      <point x="632.0" y="1740.0"/>
      <point x="360.0" y="1728.0" type="curve"/>
      <point x="348.0" y="1664.0" type="line"/>
      <point x="584.0" y="1672.0"/>
      <point x="772.0" y="1860.0"/>
      <point x="812.0" y="1904.0" type="curve"/>
      <point x="828.0" y="1904.0" type="line"/>
      <point x="512.0" y="0.0" type="line"/>
      <point x="576.0" y="0.0" type="line"/>
    </contour>
  </outline>
</glyph>
<glyph name="two" format="2">
  <advance width="1748.0"/>
  <unicode hex="0032"/>
  <outline>
    <contour>
      <point x="132.0" y="0.0" type="line"/>
      <point x="1368.0" y="0.0" type="line"/>
      <point x="1380.0" y="64.0" type="line"/>
      <point x="244.0" y="64.0" type="line"/>
      <point x="244.0" y="72.0" type="line"/>
      <point x="968.0" y="788.0" type="line" smooth="yes"/>
      <point x="1344.0" y="1160.0"/>
      <point x="1468.0" y="1320.0"/>
      <point x="1504.0" y="1548.0" type="curve" smooth="yes"/>
      <point x="1556.0" y="1852.0"/>
      <point x="1364.0" y="2076.0"/>
      <point x="1056.0" y="2076.0" type="curve" smooth="yes"/>
      <point x="736.0" y="2076.0"/>
      <point x="472.0" y="1832.0"/>
      <point x="424.0" y="1536.0" type="curve"/>
      <point x="488.0" y="1536.0" type="line"/>
      <point x="532.0" y="1796.0"/>
      <point x="772.0" y="2012.0"/>
      <point x="1056.0" y="2012.0" type="curve" smooth="yes"/>
      <point x="1328.0" y="2012.0"/>
      <point x="1484.0" y="1816.0"/>
      <point x="1440.0" y="1548.0" type="curve" smooth="yes"/>
      <point x="1408.0" y="1344.0"/>
      <point x="1296.0" y="1192.0"/>
      <point x="924.0" y="828.0" type="curve" smooth="yes"/>
      <point x="140.0" y="52.0" type="line"/>
    </contour>
  </outline>
</glyph>
<glyph name="three" format="2">
  <advance width="1728.0"/>
  <unicode hex="0033"/>
  <outline>
    <contour>
      <point x="740.0" y="-28.0" type="curve" smooth="yes"/>
      <point x="1100.0" y="-28.0"/>
      <point x="1388.0" y="216.0"/>
      <point x="1440.0" y="532.0" type="curve" smooth="yes"/>
      <point x="1484.0" y="792.0"/>
      <point x="1344.0" y="988.0"/>
      <point x="1088.0" y="1056.0" type="curve"/>
      <point x="1088.0" y="1064.0" type="line"/>
      <point x="1332.0" y="1132.0"/>
      <point x="1512.0" y="1312.0"/>
      <point x="1548.0" y="1552.0" type="curve" smooth="yes"/>
      <point x="1600.0" y="1852.0"/>
      <point x="1408.0" y="2076.0"/>
      <point x="1084.0" y="2076.0" type="curve" smooth="yes"/>
      <point x="764.0" y="2076.0"/>
      <point x="492.0" y="1852.0"/>
      <point x="440.0" y="1536.0" type="curve"/>
      <point x="504.0" y="1536.0" type="line"/>
      <point x="548.0" y="1816.0"/>
      <point x="804.0" y="2012.0"/>
      <point x="1088.0" y="2012.0" type="curve" smooth="yes"/>
      <point x="1380.0" y="2012.0"/>
      <point x="1528.0" y="1816.0"/>
      <point x="1484.0" y="1552.0" type="curve" smooth="yes"/>
      <point x="1440.0" y="1268.0"/>
      <point x="1172.0" y="1088.0"/>
      <point x="864.0" y="1088.0" type="curve" smooth="yes"/>
      <point x="832.0" y="1088.0" type="line"/>
      <point x="824.0" y="1024.0" type="line"/>
      <point x="856.0" y="1024.0" type="line" smooth="yes"/>
      <point x="1204.0" y="1024.0"/>
      <point x="1424.0" y="828.0"/>
      <point x="1376.0" y="532.0" type="curve" smooth="yes"/>
      <point x="1332.0" y="260.0"/>
      <point x="1064.0" y="36.0"/>
      <point x="740.0" y="36.0" type="curve" smooth="yes"/>
      <point x="432.0" y="36.0"/>
      <point x="240.0" y="236.0"/>
      <point x="284.0" y="512.0" type="curve"/>
      <point x="220.0" y="512.0" type="line"/>
      <point x="168.0" y="200.0"/>
      <point x="396.0" y="-28.0"/>
    </contour>
  </outline>
</glyph>
<glyph name="four" format="2">
  <advance width="1676.0"/>
  <unicode hex="0034"/>
  <outline>
    <contour>
      <point x="160.0" y="480.0" type="line"/>
      <point x="1420.0" y="480.0" type="line"/>
      <point x="1432.0" y="544.0" type="line"/>
      <point x="264.0" y="544.0" type="line"/>
      <point x="264.0" y="552.0" type="line"/>
      <point x="1332.0" y="1916.0" type="line"/>
      <point x="1380.0" y="1916.0" type="line"/>
      <point x="1400.0" y="2048.0" type="line"/>
      <point x="1360.0" y="2048.0" type="line"/>
      <point x="168.0" y="528.0" type="line"/>
    </contour>
    <contour>
      <point x="1020.0" y="0.0" type="line"/>
      <point x="1084.0" y="0.0" type="line"/>
      <point x="1424.0" y="2048.0" type="line"/>
      <point x="1360.0" y="2048.0" type="line"/>
      <point x="1108.0" y="520.0" type="line"/>
      <point x="1104.0" y="500.0" type="line"/>
    </contour>
  </outline>
</glyph>
<glyph name="five" format="2">
  <advance width="1609.0"/>
  <unicode hex="0035"/>
  <outline>
    <contour>
      <point x="684.0" y="-28.0" type="curve" smooth="yes"/>
      <point x="1000.0" y="-28.0"/>
      <point x="1290.0" y="238.0"/>
      <point x="1352.0" y="596.0" type="curve" smooth="yes"/>
      <point x="1415.0" y="1009.0"/>
      <point x="1135.0" y="1323.0"/>
      <point x="784.0" y="1324.0" type="curve" smooth="yes"/>
      <point x="687.0" y="1323.0"/>
      <point x="583.0" y="1308.0"/>
      <point x="488.0" y="1276.0" type="curve"/>
      <point x="480.0" y="1268.0" type="line"/>
      <point x="680.0" y="1936.0" type="line"/>
      <point x="1500.0" y="1936.0" type="line"/>
      <point x="1520.0" y="2048.0" type="line"/>
      <point x="616.0" y="2048.0" type="line"/>
      <point x="316.0" y="1112.0" type="line"/>
      <point x="424.0" y="1120.0" type="line"/>
      <point x="538.0" y="1154.0"/>
      <point x="718.0" y="1195.0"/>
      <point x="860.0" y="1196.0" type="curve" smooth="yes"/>
      <point x="1169.0" y="1195.0"/>
      <point x="1343.0" y="958.0"/>
      <point x="1296.0" y="652.0" type="curve" smooth="yes"/>
      <point x="1247.0" y="321.0"/>
      <point x="961.0" y="72.0"/>
      <point x="656.0" y="72.0" type="curve" smooth="yes"/>
      <point x="403.0" y="72.0"/>
      <point x="255.0" y="234.0"/>
      <point x="264.0" y="444.0" type="curve"/>
      <point x="212.0" y="444.0" type="line"/>
      <point x="187.0" y="178.0"/>
      <point x="399.0" y="-28.0"/>
    </contour>
  </outline>
</glyph>
<glyph name="six" format="2">
  <advance width="1653.0"/>
  <unicode hex="0036"/>
  <outline>
    <contour>
      <point x="712.0" y="-28.0" type="curve" smooth="yes"/>
      <point x="1080.0" y="-34.0"/>
      <point x="1352.0" y="286.0"/>
      <point x="1412.0" y="624.0" type="curve" smooth="yes"/>
      <point x="1481.0" y="1038.0"/>
      <point x="1205.0" y="1333.0"/>
      <point x="860.0" y="1332.0" type="curve" smooth="yes"/>
      <point x="663.0" y="1333.0"/>
      <point x="492.0" y="1239.0"/>
      <point x="336.0" y="1084.0" type="curve"/>
      <point x="320.0" y="1076.0" type="line"/>
      <point x="422.0" y="1709.0"/>
      <point x="736.0" y="2009.0"/>
      <point x="1100.0" y="2008.0" type="curve" smooth="yes"/>
      <point x="1382.0" y="2009.0"/>
      <point x="1492.0" y="1823.0"/>
      <point x="1504.0" y="1596.0" type="curve"/>
      <point x="1556.0" y="1596.0" type="line"/>
      <point x="1550.0" y="1896.0"/>
      <point x="1358.0" y="2078.0"/>
      <point x="1092.0" y="2080.0" type="curve" smooth="yes"/>
      <point x="676.0" y="2078.0"/>
      <point x="376.0" y="1675.0"/>
      <point x="252.0" y="920.0" type="curve" smooth="yes"/>
      <point x="121.0" y="150.0"/>
      <point x="455.0" y="-23.0"/>
    </contour>
    <contour>
      <point x="712.0" y="72.0" type="curve" smooth="yes"/>
      <point x="401.0" y="72.0"/>
      <point x="224.0" y="350.0"/>
      <point x="276.0" y="632.0" type="curve" smooth="yes"/>
      <point x="321.0" y="923.0"/>
      <point x="617.0" y="1206.0"/>
      <point x="928.0" y="1208.0" type="curve" smooth="yes"/>
      <point x="1225.0" y="1206.0"/>
      <point x="1403.0" y="952.0"/>
      <point x="1356.0" y="656.0" type="curve" smooth="yes"/>
      <point x="1298.0" y="336.0"/>
      <point x="1015.0" y="72.0"/>
    </contour>
  </outline>
</glyph>
<glyph name="seven" format="2">
  <advance width="1540.0"/>
  <unicode hex="0037"/>
  <outline>
    <contour>
      <point x="180.0" y="0.0" type="line"/>
      <point x="252.0" y="0.0" type="line"/>
      <point x="1552.0" y="1984.0" type="line"/>
      <point x="1564.0" y="2048.0" type="line"/>
      <point x="376.0" y="2048.0" type="line"/>
      <point x="364.0" y="1984.0" type="line"/>
      <point x="1476.0" y="1984.0" type="line"/>
      <point x="1476.0" y="1976.0" type="line"/>
    </contour>
  </outline>
</glyph>
<glyph name="eight" format="2">
  <advance width="1696.0"/>
  <unicode hex="0038"/>
  <note>
essentially two conjoined "three" glyphs
</note>
  <outline>
    <contour>
      <point x="716.0" y="-28.0" type="curve" smooth="yes"/>
      <point x="1068.0" y="-28.0"/>
      <point x="1392.0" y="220.0"/>
      <point x="1444.0" y="528.0" type="curve" smooth="yes"/>
      <point x="1484.0" y="772.0"/>
      <point x="1344.0" y="1000.0"/>
      <point x="1100.0" y="1056.0" type="curve"/>
      <point x="1100.0" y="1064.0" type="line"/>
      <point x="1328.0" y="1136.0"/>
      <point x="1508.0" y="1332.0"/>
      <point x="1548.0" y="1556.0" type="curve" smooth="yes"/>
      <point x="1596.0" y="1848.0"/>
      <point x="1376.0" y="2076.0"/>
      <point x="1064.0" y="2076.0" type="curve" smooth="yes"/>
      <point x="752.0" y="2076.0"/>
      <point x="460.0" y="1848.0"/>
      <point x="412.0" y="1556.0" type="curve" smooth="yes"/>
      <point x="372.0" y="1332.0"/>
      <point x="492.0" y="1136.0"/>
      <point x="692.0" y="1064.0" type="curve"/>
      <point x="692.0" y="1056.0" type="line"/>
      <point x="432.0" y="1000.0"/>
      <point x="212.0" y="772.0"/>
      <point x="172.0" y="528.0" type="curve" smooth="yes"/>
      <point x="120.0" y="220.0"/>
      <point x="364.0" y="-28.0"/>
    </contour>
    <contour>
      <point x="712.0" y="36.0" type="curve" smooth="yes"/>
      <point x="392.0" y="36.0"/>
      <point x="192.0" y="260.0"/>
      <point x="236.0" y="532.0" type="curve" smooth="yes"/>
      <point x="280.0" y="804.0"/>
      <point x="592.0" y="1028.0"/>
      <point x="912.0" y="1028.0" type="curve" smooth="yes"/>
      <point x="1232.0" y="1028.0"/>
      <point x="1424.0" y="804.0"/>
      <point x="1380.0" y="532.0" type="curve" smooth="yes"/>
      <point x="1336.0" y="260.0"/>
      <point x="1032.0" y="36.0"/>
    </contour>
    <contour>
      <point x="884.0" y="1084.0" type="curve" smooth="yes"/>
      <point x="608.0" y="1084.0"/>
      <point x="432.0" y="1300.0"/>
      <point x="476.0" y="1556.0" type="curve" smooth="yes"/>
      <point x="516.0" y="1812.0"/>
      <point x="792.0" y="2012.0"/>
      <point x="1068.0" y="2012.0" type="curve" smooth="yes"/>
      <point x="1348.0" y="2012.0"/>
      <point x="1524.0" y="1812.0"/>
      <point x="1484.0" y="1556.0" type="curve" smooth="yes"/>
      <point x="1440.0" y="1300.0"/>
      <point x="1160.0" y="1084.0"/>
    </contour>
  </outline>
</glyph>
<glyph name="nine" format="2">
  <advance width="1653.0"/>
  <unicode hex="0039"/>
  <outline>
    <contour>
      <point x="1032.0" y="2080.0" type="curve" smooth="yes"/>
      <point x="658.0" y="2084.0"/>
      <point x="389.0" y="1763.0"/>
      <point x="328.0" y="1424.0" type="curve" smooth="yes"/>
      <point x="259.0" y="1011.0"/>
      <point x="535.0" y="717.0"/>
      <point x="884.0" y="716.0" type="curve" smooth="yes"/>
      <point x="1079.0" y="717.0"/>
      <point x="1248.0" y="810.0"/>
      <point x="1408.0" y="968.0" type="curve"/>
      <point x="1424.0" y="976.0" type="line"/>
      <point x="1318.0" y="341.0"/>
      <point x="1002.0" y="41.0"/>
      <point x="644.0" y="40.0" type="curve" smooth="yes"/>
      <point x="356.0" y="41.0"/>
      <point x="251.0" y="226.0"/>
      <point x="240.0" y="456.0" type="curve"/>
      <point x="184.0" y="456.0" type="line"/>
      <point x="190.0" y="154.0"/>
      <point x="381.0" y="-28.0"/>
      <point x="652.0" y="-28.0" type="curve" smooth="yes"/>
      <point x="1065.0" y="-28.0"/>
      <point x="1364.0" y="374.0"/>
      <point x="1492.0" y="1132.0" type="curve" smooth="yes"/>
      <point x="1619.0" y="1899.0"/>
      <point x="1285.0" y="2071.0"/>
    </contour>
    <contour>
      <point x="1028.0" y="1980.0" type="curve" smooth="yes"/>
      <point x="1339.0" y="1978.0"/>
      <point x="1517.0" y="1701.0"/>
      <point x="1468.0" y="1420.0" type="curve" smooth="yes"/>
      <point x="1420.0" y="1126.0"/>
      <point x="1123.0" y="843.0"/>
      <point x="812.0" y="844.0" type="curve" smooth="yes"/>
      <point x="516.0" y="843.0"/>
      <point x="338.0" y="1098.0"/>
      <point x="388.0" y="1396.0" type="curve" smooth="yes"/>
      <point x="444.0" y="1714.0"/>
      <point x="725.0" y="1978.0"/>
    </contour>
  </outline>
</glyph>
<glyph name="equal" format="2">
  <advance width="1792.0"/>
  <unicode hex="003D"/>
  <outline>
    <contour>
      <point x="464.0" y="1036.0" type="line"/>
      <point x="1416.0" y="1036.0" type="line"/>
      <point x="1428.0" y="1100.0" type="line"/>
      <point x="476.0" y="1100.0" type="line"/>
    </contour>
    <contour>
      <point x="376.0" y="500.0" type="line"/>
      <point x="1328.0" y="500.0" type="line"/>
      <point x="1340.0" y="564.0" type="line"/>
      <point x="388.0" y="564.0" type="line"/>
    </contour>
  </outline>
</glyph>
<glyph name="greater" format="2">
  <advance width="1722.0"/>
  <unicode hex="003E"/>
  <outline>
    <contour>
      <point x="1456.0" y="848.0" type="line"/>
      <point x="1452.0" y="816.0" type="line"/>
      <point x="400.0" y="1508.0" type="line"/>
      <point x="388.0" y="1400.0" type="line"/>
      <point x="1300.0" y="836.0" type="line"/>
      <point x="1296.0" y="848.0" type="line"/>
      <point x="1296.0" y="816.0" type="line"/>
      <point x="1296.0" y="828.0" type="line"/>
      <point x="196.0" y="264.0" type="line"/>
      <point x="176.0" y="156.0" type="line"/>
    </contour>
  </outline>
</glyph>
<glyph name="question" format="2">
  <advance width="1348.0"/>
  <unicode hex="003F"/>
  <guideline x="576.0" y="512.0" angle="260.6"/>
  <outline>
    <contour>
      <point x="560.0" y="608.0" type="line"/>
      <point x="624.0" y="608.0" type="line"/>
      <point x="648.0" y="748.0" type="line" smooth="yes"/>
      <point x="675.0" y="914.0"/>
      <point x="742.0" y="998.0"/>
      <point x="952.0" y="1132.0" type="curve" smooth="yes"/>
      <point x="1196.0" y="1289.0"/>
      <point x="1293.0" y="1364.0"/>
      <point x="1324.0" y="1576.0" type="curve" smooth="yes"/>
      <point x="1364.0" y="1852.0"/>
      <point x="1186.0" y="2076.0"/>
      <point x="888.0" y="2076.0" type="curve" smooth="yes"/>
      <point x="580.0" y="2076.0"/>
      <point x="311.0" y="1845.0"/>
      <point x="260.0" y="1536.0" type="curve"/>
      <point x="324.0" y="1536.0" type="line"/>
      <point x="368.0" y="1792.0"/>
      <point x="607.0" y="2012.0"/>
      <point x="888.0" y="2012.0" type="curve" smooth="yes"/>
      <point x="1142.0" y="2012.0"/>
      <point x="1296.0" y="1834.0"/>
      <point x="1260.0" y="1576.0" type="curve" smooth="yes"/>
      <point x="1235.0" y="1397.0"/>
      <point x="1138.0" y="1327.0"/>
      <point x="920.0" y="1188.0" type="curve" smooth="yes"/>
      <point x="699.0" y="1048.0"/>
      <point x="615.0" y="938.0"/>
      <point x="584.0" y="748.0" type="curve" smooth="yes"/>
    </contour>
    <component base="period" xOffset="264.0"/>
  </outline>
</glyph>
<glyph name="at" format="2">
  <advance width="2636.0"/>
  <unicode hex="0040"/>
  <outline>
    <contour>
      <point x="1392.0" y="1312.0" type="curve" smooth="yes"/>
      <point x="1668.0" y="1312.0"/>
      <point x="1836.0" y="1044.0"/>
      <point x="1784.0" y="712.0" type="curve" smooth="yes"/>
      <point x="1728.0" y="380.0"/>
      <point x="1448.0" y="112.0"/>
      <point x="1172.0" y="112.0" type="curve" smooth="yes"/>
      <point x="896.0" y="112.0"/>
      <point x="724.0" y="380.0"/>
      <point x="780.0" y="712.0" type="curve" smooth="yes"/>
      <point x="832.0" y="1044.0"/>
      <point x="1116.0" y="1312.0"/>
    </contour>
    <contour>
      <point x="1520.0" y="1968.0" type="curve" smooth="yes"/>
      <point x="868.0" y="1968.0"/>
      <point x="244.0" y="1408.0"/>
      <point x="132.0" y="712.0" type="curve" smooth="yes"/>
      <point x="16.0" y="20.0"/>
      <point x="452.0" y="-544.0"/>
      <point x="1104.0" y="-544.0" type="curve" smooth="yes"/>
      <point x="1336.0" y="-544.0"/>
      <point x="1572.0" y="-472.0"/>
      <point x="1784.0" y="-336.0" type="curve"/>
      <point x="1752.0" y="-284.0" type="line"/>
      <point x="1552.0" y="-412.0"/>
      <point x="1324.0" y="-480.0"/>
      <point x="1104.0" y="-480.0" type="curve" smooth="yes"/>
      <point x="488.0" y="-480.0"/>
      <point x="84.0" y="52.0"/>
      <point x="196.0" y="712.0" type="curve" smooth="yes"/>
      <point x="304.0" y="1372.0"/>
      <point x="904.0" y="1904.0"/>
      <point x="1520.0" y="1904.0" type="curve" smooth="yes"/>
      <point x="2132.0" y="1904.0"/>
      <point x="2532.0" y="1372.0"/>
      <point x="2424.0" y="712.0" type="curve" smooth="yes"/>
      <point x="2368.0" y="384.0"/>
      <point x="2144.0" y="140.0"/>
      <point x="1900.0" y="140.0" type="curve" smooth="yes"/>
      <point x="1780.0" y="140.0"/>
      <point x="1760.0" y="188.0"/>
      <point x="1792.0" y="384.0" type="curve" smooth="yes"/>
      <point x="1956.0" y="1364.0" type="line"/>
      <point x="1892.0" y="1364.0" type="line"/>
      <point x="1836.0" y="1036.0" type="line"/>
      <point x="1828.0" y="1036.0" type="line"/>
      <point x="1768.0" y="1240.0"/>
      <point x="1604.0" y="1376.0"/>
      <point x="1392.0" y="1376.0" type="curve" smooth="yes"/>
      <point x="1076.0" y="1376.0"/>
      <point x="776.0" y="1080.0"/>
      <point x="716.0" y="712.0" type="curve" smooth="yes"/>
      <point x="652.0" y="344.0"/>
      <point x="856.0" y="48.0"/>
      <point x="1172.0" y="48.0" type="curve" smooth="yes"/>
      <point x="1384.0" y="48.0"/>
      <point x="1592.0" y="184.0"/>
      <point x="1720.0" y="384.0" type="curve"/>
      <point x="1728.0" y="384.0" type="line"/>
      <point x="1692.0" y="156.0"/>
      <point x="1732.0" y="76.0"/>
      <point x="1892.0" y="76.0" type="curve" smooth="yes"/>
      <point x="2176.0" y="76.0"/>
      <point x="2428.0" y="348.0"/>
      <point x="2488.0" y="712.0" type="curve" smooth="yes"/>
      <point x="2600.0" y="1408.0"/>
      <point x="2168.0" y="1968.0"/>
    </contour>
  </outline>
</glyph>
<glyph name="A" format="2">
  <advance width="1736.0"/>
  <unicode hex="0041"/>
  <outline>
    <contour>
      <point x="32.0" y="0.0" type="line"/>
      <point x="1064.0" y="1968.0" type="line"/>
      <point x="1072.0" y="1968.0" type="line"/>
      <point x="1448.0" y="0.0" type="line"/>
      <point x="1516.0" y="0.0" type="line"/>
      <point x="1124.0" y="2048.0" type="line"/>
      <point x="1036.0" y="2048.0" type="line"/>
      <point x="-36.0" y="0.0" type="line"/>
    </contour>
    <contour>
      <point x="392.0" y="756.0" type="line"/>
      <point x="380.0" y="692.0" type="line"/>
      <point x="1332.0" y="692.0" type="line"/>
      <point x="1344.0" y="756.0" type="line"/>
    </contour>
  </outline>
</glyph>
<glyph name="B" format="2">
  <advance width="1804.0"/>
  <unicode hex="0042"/>
  <outline>
    <contour>
      <point x="192.0" y="0.0" type="line"/>
      <point x="900.0" y="0.0" type="line" smooth="yes"/>
      <point x="1252.0" y="0.0"/>
      <point x="1496.0" y="208.0"/>
      <point x="1548.0" y="524.0" type="curve" smooth="yes"/>
      <point x="1596.0" y="808.0"/>
      <point x="1460.0" y="1016.0"/>
      <point x="1240.0" y="1036.0" type="curve"/>
      <point x="1240.0" y="1044.0" type="line"/>
      <point x="1448.0" y="1096.0"/>
      <point x="1592.0" y="1288.0"/>
      <point x="1632.0" y="1528.0" type="curve" smooth="yes"/>
      <point x="1688.0" y="1852.0"/>
      <point x="1516.0" y="2048.0"/>
      <point x="1172.0" y="2048.0" type="curve" smooth="yes"/>
      <point x="532.0" y="2048.0" type="line"/>
    </contour>
    <contour>
      <point x="268.0" y="64.0" type="line"/>
      <point x="424.0" y="1008.0" type="line"/>
      <point x="1068.0" y="1008.0" type="line" smooth="yes"/>
      <point x="1356.0" y="1008.0"/>
      <point x="1532.0" y="808.0"/>
      <point x="1484.0" y="524.0" type="curve" smooth="yes"/>
      <point x="1436.0" y="248.0"/>
      <point x="1212.0" y="64.0"/>
      <point x="912.0" y="64.0" type="curve" smooth="yes"/>
    </contour>
    <contour>
      <point x="436.0" y="1072.0" type="line"/>
      <point x="584.0" y="1984.0" type="line"/>
      <point x="1160.0" y="1984.0" type="line" smooth="yes"/>
      <point x="1460.0" y="1984.0"/>
      <point x="1616.0" y="1820.0"/>
      <point x="1568.0" y="1528.0" type="curve" smooth="yes"/>
      <point x="1528.0" y="1284.0"/>
      <point x="1356.0" y="1072.0"/>
      <point x="1080.0" y="1072.0" type="curve" smooth="yes"/>
    </contour>
  </outline>
</glyph>
<glyph name="C" format="2">
  <advance width="2036.0"/>
  <unicode hex="0043"/>
  <outline>
    <contour>
      <point x="1936.0" y="1408.0" type="line"/>
      <point x="1936.0" y="1700.0"/>
      <point x="1747.0" y="2076.0"/>
      <point x="1264.0" y="2076.0" type="curve" smooth="yes"/>
      <point x="761.0" y="2076.0"/>
      <point x="346.0" y="1652.0"/>
      <point x="244.0" y="1024.0" type="curve" smooth="yes"/>
      <point x="138.0" y="396.0"/>
      <point x="412.0" y="-28.0"/>
      <point x="916.0" y="-28.0" type="curve" smooth="yes"/>
      <point x="1398.0" y="-28.0"/>
      <point x="1713.0" y="352.0"/>
      <point x="1812.0" y="640.0" type="curve"/>
      <point x="1744.0" y="640.0" type="line"/>
      <point x="1647.0" y="364.0"/>
      <point x="1345.0" y="36.0"/>
      <point x="928.0" y="36.0" type="curve" smooth="yes"/>
      <point x="507.0" y="36.0"/>
      <point x="200.0" y="380.0"/>
      <point x="308.0" y="1024.0" type="curve" smooth="yes"/>
      <point x="412.0" y="1660.0"/>
      <point x="834.0" y="2012.0"/>
      <point x="1252.0" y="2012.0" type="curve" smooth="yes"/>
      <point x="1672.0" y="2012.0"/>
      <point x="1865.0" y="1680.0"/>
      <point x="1868.0" y="1408.0" type="curve"/>
    </contour>
  </outline>
</glyph>
<glyph name="D" format="2">
  <advance width="2012.0"/>
  <unicode hex="0044"/>
  <note>
!post:RemoveOverlap
</note>
  <outline>
    <contour>
      <point x="728.0" y="0.0" type="line" smooth="yes"/>
      <point x="1328.0" y="0.0"/>
      <point x="1740.0" y="380.0"/>
      <point x="1852.0" y="1032.0" type="curve" smooth="yes"/>
      <point x="1960.0" y="1668.0"/>
      <point x="1684.0" y="2048.0"/>
      <point x="1120.0" y="2048.0" type="curve" smooth="yes"/>
      <point x="564.0" y="2048.0" type="line"/>
      <point x="552.0" y="1984.0" type="line"/>
      <point x="1108.0" y="1984.0" type="line" smooth="yes"/>
      <point x="1651.0" y="1984.0"/>
      <point x="1886.0" y="1640.0"/>
      <point x="1788.0" y="1032.0" type="curve" smooth="yes"/>
      <point x="1692.0" y="436.0"/>
      <point x="1297.0" y="64.0"/>
      <point x="740.0" y="64.0" type="curve" smooth="yes"/>
      <point x="236.0" y="64.0" type="line"/>
      <point x="224.0" y="0.0" type="line"/>
    </contour>
    <contour>
      <point x="596.0" y="2048.0" type="line"/>
      <point x="532.0" y="2048.0" type="line"/>
      <point x="192.0" y="0.0" type="line"/>
      <point x="256.0" y="0.0" type="line"/>
    </contour>
  </outline>
</glyph>
<glyph name="E" format="2">
  <advance width="1644.0"/>
  <unicode hex="0045"/>
  <outline>
    <contour>
      <point x="192.0" y="0.0" type="line"/>
      <point x="1312.0" y="0.0" type="line"/>
      <point x="1324.0" y="64.0" type="line"/>
      <point x="268.0" y="64.0" type="line"/>
      <point x="420.0" y="992.0" type="line"/>
      <point x="1388.0" y="992.0" type="line"/>
      <point x="1400.0" y="1056.0" type="line"/>
      <point x="432.0" y="1056.0" type="line"/>
      <point x="584.0" y="1984.0" type="line"/>
      <point x="1612.0" y="1984.0" type="line"/>
      <point x="1624.0" y="2048.0" type="line"/>
      <point x="532.0" y="2048.0" type="line"/>
    </contour>
  </outline>
</glyph>
<glyph name="F" format="2">
  <advance width="1648.0"/>
  <unicode hex="0046"/>
  <outline>
    <contour>
      <point x="192.0" y="0.0" type="line"/>
      <point x="256.0" y="0.0" type="line"/>
      <point x="420.0" y="992.0" type="line"/>
      <point x="1360.0" y="992.0" type="line"/>
      <point x="1372.0" y="1056.0" type="line"/>
      <point x="432.0" y="1056.0" type="line"/>
      <point x="584.0" y="1984.0" type="line"/>
      <point x="1620.0" y="1984.0" type="line"/>
      <point x="1632.0" y="2048.0" type="line"/>
      <point x="532.0" y="2048.0" type="line"/>
    </contour>
  </outline>
</glyph>
<glyph name="G" format="2">
  <advance width="2080.0"/>
  <unicode hex="0047"/>
  <outline>
    <contour>
      <point x="1872.0" y="1408.0" type="curve"/>
      <point x="1936.0" y="1408.0" type="line"/>
      <point x="1938.0" y="1700.0"/>
      <point x="1749.0" y="2076.0"/>
      <point x="1264.0" y="2076.0" type="curve" smooth="yes"/>
      <point x="761.0" y="2076.0"/>
      <point x="346.0" y="1652.0"/>
      <point x="244.0" y="1024.0" type="curve" smooth="yes"/>
      <point x="138.0" y="396.0"/>
      <point x="404.0" y="-28.0"/>
      <point x="924.0" y="-28.0" type="curve" smooth="yes"/>
      <point x="1384.0" y="-28.0"/>
      <point x="1771.0" y="304.0"/>
      <point x="1864.0" y="864.0" type="curve" smooth="yes"/>
      <point x="1876.0" y="928.0" type="line"/>
      <point x="1104.0" y="928.0" type="line"/>
      <point x="1092.0" y="864.0" type="line"/>
      <point x="1828.0" y="864.0" type="line"/>
      <point x="1804.0" y="888.0" type="line"/>
      <point x="1724.0" y="359.0"/>
      <point x="1357.0" y="36.0"/>
      <point x="936.0" y="36.0" type="curve" smooth="yes"/>
      <point x="441.0" y="36.0"/>
      <point x="208.0" y="428.0"/>
      <point x="308.0" y="1024.0" type="curve" smooth="yes"/>
      <point x="415.0" y="1657.0"/>
      <point x="836.0" y="2012.0"/>
      <point x="1252.0" y="2012.0" type="curve" smooth="yes"/>
      <point x="1690.0" y="2012.0"/>
      <point x="1871.0" y="1696.0"/>
    </contour>
  </outline>
</glyph>
<glyph name="H" format="2">
  <advance width="2068.0"/>
  <unicode hex="0048"/>
  <outline>
    <contour>
      <point x="192.0" y="0.0" type="line"/>
      <point x="256.0" y="0.0" type="line"/>
      <point x="420.0" y="992.0" type="line"/>
      <point x="1724.0" y="992.0" type="line"/>
      <point x="1560.0" y="0.0" type="line"/>
      <point x="1624.0" y="0.0" type="line"/>
      <point x="1964.0" y="2048.0" type="line"/>
      <point x="1900.0" y="2048.0" type="line"/>
      <point x="1736.0" y="1056.0" type="line"/>
      <point x="432.0" y="1056.0" type="line"/>
      <point x="596.0" y="2048.0" type="line"/>
      <point x="532.0" y="2048.0" type="line"/>
    </contour>
  </outline>
</glyph>
<glyph name="I" format="2">
  <advance width="700.0"/>
  <unicode hex="0049"/>
  <outline>
    <contour>
      <point x="596.0" y="2048.0" type="line"/>
      <point x="532.0" y="2048.0" type="line"/>
      <point x="192.0" y="0.0" type="line"/>
      <point x="256.0" y="0.0" type="line"/>
    </contour>
  </outline>
</glyph>
<glyph name="J" format="2">
  <advance width="1464.0"/>
  <unicode hex="004A"/>
  <outline>
    <contour>
      <point x="1292.0" y="2048.0" type="line"/>
      <point x="1044.0" y="544.0" type="line" smooth="yes"/>
      <point x="980.0" y="164.0"/>
      <point x="753.0" y="36.0"/>
      <point x="528.0" y="36.0" type="curve" smooth="yes"/>
      <point x="285.0" y="36.0"/>
      <point x="119.0" y="184.0"/>
      <point x="152.0" y="384.0" type="curve"/>
      <point x="88.0" y="384.0" type="line"/>
      <point x="49.0" y="148.0"/>
      <point x="236.0" y="-28.0"/>
      <point x="516.0" y="-28.0" type="curve" smooth="yes"/>
      <point x="780.0" y="-28.0"/>
      <point x="1038.0" y="128.0"/>
      <point x="1108.0" y="544.0" type="curve" smooth="yes"/>
      <point x="1356.0" y="2048.0" type="line"/>
    </contour>
  </outline>
</glyph>
<glyph name="K" format="2">
  <advance width="1732.0"/>
  <unicode hex="004B"/>
  <outline>
    <contour>
      <point x="192.0" y="0.0" type="line"/>
      <point x="256.0" y="0.0" type="line"/>
      <point x="368.0" y="668.0" type="line"/>
      <point x="732.0" y="1008.0" type="line"/>
      <point x="1416.0" y="0.0" type="line"/>
      <point x="1500.0" y="0.0" type="line"/>
      <point x="784.0" y="1056.0" type="line"/>
      <point x="1852.0" y="2048.0" type="line"/>
      <point x="1764.0" y="2048.0" type="line"/>
      <point x="392.0" y="772.0" type="line"/>
      <point x="384.0" y="772.0" type="line"/>
      <point x="596.0" y="2048.0" type="line"/>
      <point x="532.0" y="2048.0" type="line"/>
    </contour>
  </outline>
</glyph>
<glyph name="L" format="2">
  <advance width="1584.0"/>
  <unicode hex="004C"/>
  <outline>
    <contour>
      <point x="192.0" y="0.0" type="line"/>
      <point x="1280.0" y="0.0" type="line"/>
      <point x="1292.0" y="64.0" type="line"/>
      <point x="268.0" y="64.0" type="line"/>
      <point x="596.0" y="2048.0" type="line"/>
      <point x="532.0" y="2048.0" type="line"/>
    </contour>
  </outline>
</glyph>
<glyph name="M" format="2">
  <advance width="2432.0"/>
  <unicode hex="004D"/>
  <outline>
    <contour>
      <point x="532.0" y="2048.0" type="line"/>
      <point x="192.0" y="0.0" type="line"/>
      <point x="256.0" y="0.0" type="line"/>
      <point x="564.0" y="1848.0" type="line"/>
      <point x="572.0" y="1848.0" type="line"/>
      <point x="1056.0" y="0.0" type="line"/>
      <point x="1120.0" y="0.0" type="line"/>
      <point x="2220.0" y="1848.0" type="line"/>
      <point x="2228.0" y="1848.0" type="line"/>
      <point x="1920.0" y="0.0" type="line"/>
      <point x="1984.0" y="0.0" type="line"/>
      <point x="2324.0" y="2048.0" type="line"/>
      <point x="2268.0" y="2048.0" type="line"/>
      <point x="1108.0" y="96.0" type="line"/>
      <point x="1100.0" y="96.0" type="line"/>
      <point x="588.0" y="2048.0" type="line"/>
    </contour>
  </outline>
</glyph>
<glyph name="N" format="2">
  <advance width="2176.0"/>
  <unicode hex="004E"/>
  <outline>
    <contour>
      <point x="2068.0" y="2048.0" type="line"/>
      <point x="2004.0" y="2048.0" type="line"/>
      <point x="1684.0" y="120.0" type="line"/>
      <point x="1676.0" y="120.0" type="line"/>
      <point x="596.0" y="2048.0" type="line"/>
      <point x="532.0" y="2048.0" type="line"/>
      <point x="192.0" y="0.0" type="line"/>
      <point x="256.0" y="0.0" type="line"/>
      <point x="576.0" y="1928.0" type="line"/>
      <point x="584.0" y="1928.0" type="line"/>
      <point x="1664.0" y="0.0" type="line"/>
      <point x="1728.0" y="0.0" type="line"/>
    </contour>
  </outline>
</glyph>
<glyph name="O" format="2">
  <advance width="2104.0"/>
  <unicode hex="004F"/>
  <outline>
    <contour>
      <point x="1940.0" y="1024.0" type="curve" smooth="yes"/>
      <point x="2047.0" y="1653.0"/>
      <point x="1770.0" y="2076.0"/>
      <point x="1268.0" y="2076.0" type="curve" smooth="yes"/>
      <point x="764.0" y="2076.0"/>
      <point x="350.0" y="1650.0"/>
      <point x="244.0" y="1024.0" type="curve" smooth="yes"/>
      <point x="143.0" y="400.0"/>
      <point x="406.0" y="-28.0"/>
      <point x="920.0" y="-28.0" type="curve" smooth="yes"/>
      <point x="1423.0" y="-28.0"/>
      <point x="1838.0" y="397.0"/>
    </contour>
    <contour>
      <point x="1876.0" y="1024.0" type="curve" smooth="yes"/>
      <point x="1783.0" y="438.0"/>
      <point x="1391.0" y="36.0"/>
      <point x="916.0" y="36.0" type="curve" smooth="yes"/>
      <point x="447.0" y="36.0"/>
      <point x="209.0" y="430.0"/>
      <point x="308.0" y="1024.0" type="curve" smooth="yes"/>
      <point x="411.0" y="1614.0"/>
      <point x="801.0" y="2012.0"/>
      <point x="1272.0" y="2012.0" type="curve" smooth="yes"/>
      <point x="1734.0" y="2012.0"/>
      <point x="1975.0" y="1620.0"/>
    </contour>
  </outline>
</glyph>
<glyph name="P" format="2">
  <advance width="1708.0"/>
  <unicode hex="0050"/>
  <outline>
    <contour>
      <point x="192.0" y="0.0" type="line"/>
      <point x="256.0" y="0.0" type="line"/>
      <point x="584.0" y="1984.0" type="line"/>
      <point x="1120.0" y="1984.0" type="line" smooth="yes"/>
      <point x="1428.0" y="1984.0"/>
      <point x="1608.0" y="1764.0"/>
      <point x="1556.0" y="1448.0" type="curve" smooth="yes"/>
      <point x="1504.0" y="1136.0"/>
      <point x="1252.0" y="916.0"/>
      <point x="944.0" y="916.0" type="curve" smooth="yes"/>
      <point x="376.0" y="916.0" type="line"/>
      <point x="364.0" y="852.0" type="line"/>
      <point x="932.0" y="852.0" type="line" smooth="yes"/>
      <point x="1276.0" y="852.0"/>
      <point x="1564.0" y="1100.0"/>
      <point x="1620.0" y="1448.0" type="curve" smooth="yes"/>
      <point x="1680.0" y="1800.0"/>
      <point x="1476.0" y="2048.0"/>
      <point x="1132.0" y="2048.0" type="curve" smooth="yes"/>
      <point x="532.0" y="2048.0" type="line"/>
    </contour>
  </outline>
</glyph>
<glyph name="Q" format="2">
  <advance width="2104.0"/>
  <unicode hex="0051"/>
  <outline>
    <contour>
      <point x="1044.0" y="640.0" type="line"/>
      <point x="1400.0" y="168.0" type="line"/>
      <point x="1412.0" y="152.0" type="line"/>
      <point x="1672.0" y="-192.0" type="line"/>
      <point x="1752.0" y="-192.0" type="line"/>
      <point x="1468.0" y="184.0" type="line"/>
      <point x="1456.0" y="200.0" type="line"/>
      <point x="1124.0" y="640.0" type="line"/>
    </contour>
    <component base="O"/>
  </outline>
</glyph>
<glyph name="R" format="2">
  <advance width="1732.0"/>
  <unicode hex="0052"/>
  <outline>
    <contour>
      <point x="192.0" y="0.0" type="line"/>
      <point x="256.0" y="0.0" type="line"/>
      <point x="584.0" y="1984.0" type="line"/>
      <point x="1120.0" y="1984.0" type="line" smooth="yes"/>
      <point x="1428.0" y="1984.0"/>
      <point x="1612.0" y="1780.0"/>
      <point x="1560.0" y="1464.0" type="curve" smooth="yes"/>
      <point x="1508.0" y="1152.0"/>
      <point x="1256.0" y="948.0"/>
      <point x="948.0" y="948.0" type="curve" smooth="yes"/>
      <point x="380.0" y="948.0" type="line"/>
      <point x="372.0" y="884.0" type="line"/>
      <point x="940.0" y="884.0" type="line" smooth="yes"/>
      <point x="1284.0" y="884.0"/>
      <point x="1564.0" y="1116.0"/>
      <point x="1624.0" y="1464.0" type="curve" smooth="yes"/>
      <point x="1680.0" y="1816.0"/>
      <point x="1476.0" y="2048.0"/>
      <point x="1132.0" y="2048.0" type="curve" smooth="yes"/>
      <point x="532.0" y="2048.0" type="line"/>
    </contour>
    <contour>
      <point x="1128.0" y="932.0" type="line"/>
      <point x="1064.0" y="932.0" type="line"/>
      <point x="1412.0" y="0.0" type="line"/>
      <point x="1476.0" y="0.0" type="line"/>
    </contour>
  </outline>
</glyph>
<glyph name="S" format="2">
  <advance width="1724.0"/>
  <unicode hex="0053"/>
  <note>
recipe: use stroke + offset curve filter with 32, no autostroke
</note>
  <outline>
    <contour>
      <point x="1544.0" y="1536.0" type="curve"/>
      <point x="1608.0" y="1536.0" type="line"/>
      <point x="1639.0" y="1852.0"/>
      <point x="1440.0" y="2080.0"/>
      <point x="1088.0" y="2080.0" type="curve" smooth="yes"/>
      <point x="733.0" y="2080.0"/>
      <point x="443.0" y="1862.0"/>
      <point x="392.0" y="1552.0" type="curve" smooth="yes"/>
      <point x="353.0" y="1316.0"/>
      <point x="483.0" y="1150.0"/>
      <point x="788.0" y="1052.0" type="curve" smooth="yes"/>
      <point x="1012.0" y="980.0" type="line" smooth="yes"/>
      <point x="1325.0" y="879.0"/>
      <point x="1440.0" y="740.0"/>
      <point x="1404.0" y="520.0" type="curve" smooth="yes"/>
      <point x="1356.0" y="232.0"/>
      <point x="1089.0" y="32.0"/>
      <point x="736.0" y="32.0" type="curve" smooth="yes"/>
      <point x="397.0" y="32.0"/>
      <point x="208.0" y="215.0"/>
      <point x="232.0" y="480.0" type="curve"/>
      <point x="168.0" y="480.0" type="line"/>
      <point x="138.0" y="179.0"/>
      <point x="351.0" y="-32.0"/>
      <point x="724.0" y="-32.0" type="curve" smooth="yes"/>
      <point x="1128.0" y="-32.0"/>
      <point x="1413.0" y="189.0"/>
      <point x="1468.0" y="520.0" type="curve" smooth="yes"/>
      <point x="1510.0" y="773.0"/>
      <point x="1373.0" y="931.0"/>
      <point x="1036.0" y="1040.0" type="curve" smooth="yes"/>
      <point x="816.0" y="1112.0" type="line" smooth="yes"/>
      <point x="538.0" y="1202.0"/>
      <point x="421.0" y="1345.0"/>
      <point x="456.0" y="1552.0" type="curve" smooth="yes"/>
      <point x="501.0" y="1819.0"/>
      <point x="768.0" y="2016.0"/>
      <point x="1080.0" y="2016.0" type="curve" smooth="yes"/>
      <point x="1398.0" y="2016.0"/>
      <point x="1569.0" y="1816.0"/>
    </contour>
  </outline>
</glyph>
<glyph name="T" format="2">
  <advance width="1728.0"/>
  <unicode hex="0054"/>
  <outline>
    <contour>
      <point x="372.0" y="1984.0" type="line"/>
      <point x="1032.0" y="1984.0" type="line"/>
      <point x="704.0" y="0.0" type="line"/>
      <point x="768.0" y="0.0" type="line"/>
      <point x="1096.0" y="1984.0" type="line"/>
      <point x="1756.0" y="1984.0" type="line"/>
      <point x="1768.0" y="2048.0" type="line"/>
      <point x="384.0" y="2048.0" type="line"/>
    </contour>
  </outline>
</glyph>
<glyph name="U" format="2">
  <advance width="2112.0"/>
  <unicode hex="0055"/>
  <outline>
    <contour>
      <point x="1940.0" y="2048.0" type="line"/>
      <point x="1716.0" y="692.0" type="line" smooth="yes"/>
      <point x="1653.0" y="313.0"/>
      <point x="1310.0" y="32.0"/>
      <point x="924.0" y="32.0" type="curve" smooth="yes"/>
      <point x="538.0" y="32.0"/>
      <point x="309.0" y="313.0"/>
      <point x="372.0" y="692.0" type="curve" smooth="yes"/>
      <point x="596.0" y="2048.0" type="line"/>
      <point x="532.0" y="2048.0" type="line"/>
      <point x="308.0" y="692.0" type="line" smooth="yes"/>
      <point x="240.0" y="278.0"/>
      <point x="507.0" y="-32.0"/>
      <point x="924.0" y="-32.0" type="curve" smooth="yes"/>
      <point x="1347.0" y="-32.0"/>
      <point x="1711.0" y="277.0"/>
      <point x="1780.0" y="692.0" type="curve" smooth="yes"/>
      <point x="2004.0" y="2048.0" type="line"/>
    </contour>
  </outline>
</glyph>
<glyph name="V" format="2">
  <advance width="1736.0"/>
  <unicode hex="0056"/>
  <outline>
    <contour>
      <point x="372.0" y="2048.0" type="line"/>
      <point x="304.0" y="2048.0" type="line"/>
      <point x="696.0" y="0.0" type="line"/>
      <point x="784.0" y="0.0" type="line"/>
      <point x="1856.0" y="2048.0" type="line"/>
      <point x="1788.0" y="2048.0" type="line"/>
      <point x="756.0" y="80.0" type="line"/>
      <point x="748.0" y="80.0" type="line"/>
    </contour>
  </outline>
</glyph>
<glyph name="W" format="2">
  <advance width="2512.0"/>
  <unicode hex="0057"/>
  <outline>
    <contour>
      <point x="516.0" y="0.0" type="line"/>
      <point x="604.0" y="0.0" type="line"/>
      <point x="1448.0" y="1948.0" type="line"/>
      <point x="1456.0" y="1948.0" type="line"/>
      <point x="1652.0" y="0.0" type="line"/>
      <point x="1744.0" y="0.0" type="line"/>
      <point x="2648.0" y="2048.0" type="line"/>
      <point x="2576.0" y="2048.0" type="line"/>
      <point x="1716.0" y="100.0" type="line"/>
      <point x="1708.0" y="100.0" type="line"/>
      <point x="1512.0" y="2048.0" type="line"/>
      <point x="1424.0" y="2048.0" type="line"/>
      <point x="576.0" y="100.0" type="line"/>
      <point x="568.0" y="100.0" type="line"/>
      <point x="360.0" y="2048.0" type="line"/>
      <point x="292.0" y="2048.0" type="line"/>
    </contour>
  </outline>
</glyph>
<glyph name="X" format="2">
  <advance width="1648.0"/>
  <unicode hex="0058"/>
  <note>
recipe: offset curve 32, no auto
</note>
  <outline>
    <contour>
      <point x="384.0" y="2048.0" type="line"/>
      <point x="308.0" y="2048.0" type="line"/>
      <point x="828.0" y="1024.0" type="line"/>
      <point x="-32.0" y="0.0" type="line"/>
      <point x="56.0" y="0.0" type="line"/>
      <point x="860.0" y="964.0" type="line"/>
      <point x="868.0" y="964.0" type="line"/>
      <point x="1352.0" y="0.0" type="line"/>
      <point x="1424.0" y="0.0" type="line"/>
      <point x="908.0" y="1024.0" type="line"/>
      <point x="1764.0" y="2048.0" type="line"/>
      <point x="1680.0" y="2048.0" type="line"/>
      <point x="876.0" y="1084.0" type="line"/>
      <point x="868.0" y="1084.0" type="line"/>
    </contour>
  </outline>
</glyph>
<glyph name="Y" format="2">
  <advance width="1728.0"/>
  <unicode hex="0059"/>
  <outline>
    <contour>
      <point x="308.0" y="2048.0" type="line"/>
      <point x="864.0" y="972.0" type="line"/>
      <point x="704.0" y="0.0" type="line"/>
      <point x="768.0" y="0.0" type="line"/>
      <point x="928.0" y="972.0" type="line"/>
      <point x="1844.0" y="2048.0" type="line"/>
      <point x="1760.0" y="2048.0" type="line"/>
      <point x="908.0" y="1044.0" type="line"/>
      <point x="896.0" y="1044.0" type="line"/>
      <point x="380.0" y="2048.0" type="line"/>
    </contour>
  </outline>
</glyph>
<glyph name="Z" format="2">
  <advance width="1704.0"/>
  <unicode hex="005A"/>
  <outline>
    <contour>
      <point x="84.0" y="0.0" type="line"/>
      <point x="1372.0" y="0.0" type="line"/>
      <point x="1384.0" y="64.0" type="line"/>
      <point x="176.0" y="64.0" type="line"/>
      <point x="1696.0" y="1984.0" type="line"/>
      <point x="1704.0" y="2048.0" type="line"/>
      <point x="432.0" y="2048.0" type="line"/>
      <point x="424.0" y="1984.0" type="line"/>
      <point x="1612.0" y="1984.0" type="line"/>
      <point x="96.0" y="64.0" type="line"/>
    </contour>
  </outline>
</glyph>
<glyph name="bracketleft" format="2">
  <advance width="888.0"/>
  <unicode hex="005B"/>
  <outline>
    <contour>
      <point x="156.0" y="-416.0" type="line"/>
      <point x="508.0" y="-416.0" type="line"/>
      <point x="520.0" y="-352.0" type="line"/>
      <point x="232.0" y="-352.0" type="line"/>
      <point x="632.0" y="2080.0" type="line"/>
      <point x="920.0" y="2080.0" type="line"/>
      <point x="932.0" y="2144.0" type="line"/>
      <point x="580.0" y="2144.0" type="line"/>
    </contour>
  </outline>
</glyph>
<glyph name="backslash" format="2">
  <advance width="818.0"/>
  <unicode hex="005C"/>
  <outline>
    <contour>
      <point x="156.0" y="2048.0" type="line"/>
      <point x="624.0" y="-308.0" type="line"/>
      <point x="716.0" y="-308.0" type="line"/>
      <point x="248.0" y="2048.0" type="line"/>
    </contour>
  </outline>
</glyph>
<glyph name="asciicircum" format="2">
  <advance width="1128.0"/>
  <unicode hex="005E"/>
  <outline>
    <contour>
      <point x="744.0" y="1944.0" type="line"/>
      <point x="736.0" y="1880.0" type="line"/>
      <point x="776.0" y="1880.0" type="line"/>
      <point x="784.0" y="1944.0" type="line"/>
    </contour>
    <contour>
      <point x="188.0" y="1120.0" type="line"/>
      <point x="260.0" y="1120.0" type="line"/>
      <point x="776.0" y="1920.0" type="line"/>
      <point x="744.0" y="1920.0" type="line"/>
      <point x="980.0" y="1120.0" type="line"/>
      <point x="1052.0" y="1120.0" type="line"/>
      <point x="788.0" y="1984.0" type="line"/>
      <point x="740.0" y="1984.0" type="line"/>
    </contour>
  </outline>
</glyph>
<glyph name="underscore" format="2">
  <advance width="1202.0"/>
  <unicode hex="005F"/>
  <outline>
    <contour>
      <point x="1080.0" y="0.0" type="line"/>
      <point x="-136.0" y="0.0" type="line"/>
      <point x="-156.0" y="-116.0" type="line"/>
      <point x="1064.0" y="-116.0" type="line"/>
    </contour>
  </outline>
</glyph>
<glyph name="grave" format="2">
  <advance width="1400.0"/>
  <unicode hex="0060"/>
  <outline>
    <contour>
      <point x="1040.0" y="1760.0" type="line"/>
      <point x="832.0" y="2192.0" type="line"/>
      <point x="756.0" y="2192.0" type="line"/>
      <point x="980.0" y="1760.0" type="line"/>
    </contour>
  </outline>
</glyph>
<glyph name="a" format="2">
  <advance width="1524.0"/>
  <unicode hex="0061"/>
  <outline>
    <contour>
      <point x="524.0" y="-32.0" type="curve" smooth="yes"/>
      <point x="756.0" y="-32.0"/>
      <point x="968.0" y="104.0"/>
      <point x="1096.0" y="312.0" type="curve"/>
      <point x="1104.0" y="312.0" type="line"/>
      <point x="1052.0" y="0.0" type="line"/>
      <point x="1116.0" y="0.0" type="line"/>
      <point x="1300.0" y="1104.0" type="line" smooth="yes"/>
      <point x="1344.0" y="1364.0"/>
      <point x="1188.0" y="1560.0"/>
      <point x="876.0" y="1560.0" type="curve" smooth="yes"/>
      <point x="636.0" y="1560.0"/>
      <point x="416.0" y="1440.0"/>
      <point x="312.0" y="1248.0" type="curve"/>
      <point x="368.0" y="1224.0" type="line"/>
      <point x="460.0" y="1392.0"/>
      <point x="660.0" y="1496.0"/>
      <point x="876.0" y="1496.0" type="curve" smooth="yes"/>
      <point x="1140.0" y="1496.0"/>
      <point x="1276.0" y="1340.0"/>
      <point x="1236.0" y="1104.0" type="curve" smooth="yes"/>
      <point x="1220.0" y="1012.0" type="line" smooth="yes"/>
      <point x="1200.0" y="892.0"/>
      <point x="996.0" y="868.0"/>
      <point x="780.0" y="844.0" type="curve" smooth="yes"/>
      <point x="300.0" y="788.0"/>
      <point x="164.0" y="624.0"/>
      <point x="128.0" y="416.0" type="curve" smooth="yes"/>
      <point x="84.0" y="128.0"/>
      <point x="272.0" y="-32.0"/>
    </contour>
    <contour>
      <point x="524.0" y="32.0" type="curve" smooth="yes"/>
      <point x="296.0" y="32.0"/>
      <point x="156.0" y="184.0"/>
      <point x="192.0" y="416.0" type="curve" smooth="yes"/>
      <point x="228.0" y="612.0"/>
      <point x="376.0" y="736.0"/>
      <point x="796.0" y="784.0" type="curve" smooth="yes"/>
      <point x="972.0" y="804.0"/>
      <point x="1116.0" y="832.0"/>
      <point x="1200.0" y="888.0" type="curve"/>
      <point x="1160.0" y="656.0" type="line" smooth="yes"/>
      <point x="1100.0" y="284.0"/>
      <point x="816.0" y="32.0"/>
    </contour>
  </outline>
</glyph>
<glyph name="b" format="2">
  <advance width="1684.0"/>
  <unicode hex="0062"/>
  <note>
top anchor should match top anchor of i
</note>
  <outline>
    <contour>
      <point x="192.0" y="0.0" type="line"/>
      <point x="256.0" y="0.0" type="line"/>
      <point x="320.0" y="384.0" type="line"/>
      <point x="328.0" y="384.0" type="line"/>
      <point x="368.0" y="128.0"/>
      <point x="532.0" y="-32.0"/>
      <point x="780.0" y="-32.0" type="curve" smooth="yes"/>
      <point x="1144.0" y="-32.0"/>
      <point x="1428.0" y="312.0"/>
      <point x="1504.0" y="764.0" type="curve" smooth="yes"/>
      <point x="1580.0" y="1216.0"/>
      <point x="1404.0" y="1560.0"/>
      <point x="1044.0" y="1560.0" type="curve" smooth="yes"/>
      <point x="800.0" y="1560.0"/>
      <point x="576.0" y="1400.0"/>
      <point x="456.0" y="1144.0" type="curve"/>
      <point x="448.0" y="1144.0" type="line"/>
      <point x="596.0" y="2048.0" type="line"/>
      <point x="532.0" y="2048.0" type="line"/>
    </contour>
    <contour>
      <point x="384.0" y="764.0" type="curve" smooth="yes"/>
      <point x="452.0" y="1180.0"/>
      <point x="716.0" y="1496.0"/>
      <point x="1040.0" y="1496.0" type="curve" smooth="yes"/>
      <point x="1364.0" y="1496.0"/>
      <point x="1508.0" y="1180.0"/>
      <point x="1440.0" y="764.0" type="curve" smooth="yes"/>
      <point x="1372.0" y="348.0"/>
      <point x="1104.0" y="32.0"/>
      <point x="780.0" y="32.0" type="curve" smooth="yes"/>
      <point x="452.0" y="32.0"/>
      <point x="316.0" y="348.0"/>
    </contour>
  </outline>
</glyph>
<glyph name="c" format="2">
  <advance width="1556.0"/>
  <unicode hex="0063"/>
  <outline>
    <contour>
      <point x="692.0" y="-32.0" type="curve" smooth="yes"/>
      <point x="971.0" y="-32.0"/>
      <point x="1230.0" y="154.0"/>
      <point x="1324.0" y="448.0" type="curve"/>
      <point x="1256.0" y="448.0" type="line"/>
      <point x="1177.0" y="199.0"/>
      <point x="941.0" y="32.0"/>
      <point x="692.0" y="32.0" type="curve" smooth="yes"/>
      <point x="349.0" y="32.0"/>
      <point x="176.0" y="355.0"/>
      <point x="244.0" y="764.0" type="curve" smooth="yes"/>
      <point x="314.0" y="1185.0"/>
      <point x="617.0" y="1496.0"/>
      <point x="956.0" y="1496.0" type="curve" smooth="yes"/>
      <point x="1197.0" y="1496.0"/>
      <point x="1356.0" y="1338.0"/>
      <point x="1356.0" y="1088.0" type="curve"/>
      <point x="1424.0" y="1088.0" type="line"/>
      <point x="1424.0" y="1368.0"/>
      <point x="1235.0" y="1560.0"/>
      <point x="956.0" y="1560.0" type="curve" smooth="yes"/>
      <point x="583.0" y="1560.0"/>
      <point x="254.0" y="1217.0"/>
      <point x="180.0" y="764.0" type="curve" smooth="yes"/>
      <point x="106.0" y="313.0"/>
      <point x="313.0" y="-32.0"/>
    </contour>
  </outline>
</glyph>
<glyph name="e" format="2">
  <advance width="1624.0"/>
  <unicode hex="0065"/>
  <outline>
    <contour>
      <point x="716.0" y="-32.0" type="curve" smooth="yes"/>
      <point x="1016.0" y="-32.0"/>
      <point x="1212.0" y="156.0"/>
      <point x="1296.0" y="272.0" type="curve"/>
      <point x="1252.0" y="308.0" type="line"/>
      <point x="1180.0" y="216.0"/>
      <point x="1000.0" y="32.0"/>
      <point x="720.0" y="32.0" type="curve" smooth="yes"/>
      <point x="332.0" y="32.0"/>
      <point x="176.0" y="372.0"/>
      <point x="244.0" y="776.0" type="curve"/>
      <point x="248.0" y="780.0" type="line"/>
      <point x="324.0" y="1188.0"/>
      <point x="632.0" y="1496.0"/>
      <point x="948.0" y="1496.0" type="curve" smooth="yes"/>
      <point x="1260.0" y="1496.0"/>
      <point x="1452.0" y="1200.0"/>
      <point x="1392.0" y="832.0" type="curve"/>
      <point x="224.0" y="832.0" type="line"/>
      <point x="212.0" y="768.0" type="line"/>
      <point x="1444.0" y="768.0" type="line"/>
      <point x="1456.0" y="832.0" type="line" smooth="yes"/>
      <point x="1520.0" y="1228.0"/>
      <point x="1304.0" y="1560.0"/>
      <point x="948.0" y="1560.0" type="curve" smooth="yes"/>
      <point x="584.0" y="1560.0"/>
      <point x="256.0" y="1216.0"/>
      <point x="180.0" y="764.0" type="curve" smooth="yes"/>
      <point x="104.0" y="312.0"/>
      <point x="312.0" y="-32.0"/>
    </contour>
  </outline>
</glyph>
<glyph name="f" format="2">
  <advance width="932.0"/>
  <unicode hex="0066"/>
  <outline>
    <contour>
      <point x="928.0" y="1536.0" type="line"/>
      <point x="320.0" y="1536.0" type="line"/>
      <point x="308.0" y="1472.0" type="line"/>
      <point x="916.0" y="1472.0" type="line"/>
    </contour>
    <component base="_part.f_base"/>
  </outline>
</glyph>
<glyph name="g" format="2">
  <advance width="1644.0"/>
  <unicode hex="0067"/>
  <outline>
    <contour>
      <point x="568.0" y="-608.0" type="curve" smooth="yes"/>
      <point x="924.0" y="-608.0"/>
      <point x="1168.0" y="-412.0"/>
      <point x="1232.0" y="-32.0" type="curve" smooth="yes"/>
      <point x="1492.0" y="1536.0" type="line"/>
      <point x="1428.0" y="1536.0" type="line"/>
      <point x="1364.0" y="1144.0" type="line"/>
      <point x="1356.0" y="1144.0" type="line"/>
      <point x="1312.0" y="1400.0"/>
      <point x="1152.0" y="1560.0"/>
      <point x="904.0" y="1560.0" type="curve" smooth="yes"/>
      <point x="540.0" y="1560.0"/>
      <point x="256.0" y="1220.0"/>
      <point x="180.0" y="764.0" type="curve" smooth="yes"/>
      <point x="104.0" y="312.0"/>
      <point x="284.0" y="0.0"/>
      <point x="644.0" y="0.0" type="curve" smooth="yes"/>
      <point x="872.0" y="0.0"/>
      <point x="1108.0" y="128.0"/>
      <point x="1228.0" y="384.0" type="curve"/>
      <point x="1236.0" y="384.0" type="line"/>
      <point x="1168.0" y="-32.0" type="line" smooth="yes"/>
      <point x="1112.0" y="-376.0"/>
      <point x="888.0" y="-544.0"/>
      <point x="568.0" y="-544.0" type="curve" smooth="yes"/>
      <point x="336.0" y="-544.0"/>
      <point x="172.0" y="-460.0"/>
      <point x="132.0" y="-280.0" type="curve"/>
      <point x="72.0" y="-300.0" type="line"/>
      <point x="116.0" y="-504.0"/>
      <point x="312.0" y="-608.0"/>
    </contour>
    <contour>
      <point x="644.0" y="64.0" type="curve" smooth="yes"/>
      <point x="320.0" y="64.0"/>
      <point x="176.0" y="348.0"/>
      <point x="244.0" y="764.0" type="curve" smooth="yes"/>
      <point x="312.0" y="1180.0"/>
      <point x="576.0" y="1496.0"/>
      <point x="900.0" y="1496.0" type="curve" smooth="yes"/>
      <point x="1228.0" y="1496.0"/>
      <point x="1368.0" y="1180.0"/>
      <point x="1300.0" y="764.0" type="curve" smooth="yes"/>
      <point x="1228.0" y="332.0"/>
      <point x="964.0" y="64.0"/>
    </contour>
  </outline>
</glyph>
<glyph name="h" format="2">
  <advance width="1570.0"/>
  <unicode hex="0068"/>
  <note>
based on "n" and made slightly wider, brining the top vertical stem with it out.
</note>
  <outline>
    <contour>
      <point x="336.0" y="960.0" type="line" smooth="yes"/>
      <point x="396.0" y="1298.0"/>
      <point x="647.0" y="1486.0"/>
      <point x="940.0" y="1488.0" type="curve" smooth="yes"/>
      <point x="1205.0" y="1486.0"/>
      <point x="1346.0" y="1317.0"/>
      <point x="1296.0" y="1020.0" type="curve" smooth="yes"/>
      <point x="1128.0" y="0.0" type="line"/>
      <point x="1176.0" y="0.0" type="line"/>
      <point x="1340.0" y="976.0" type="line" smooth="yes"/>
      <point x="1406.0" y="1406.0"/>
      <point x="1221.0" y="1556.0"/>
      <point x="916.0" y="1556.0" type="curve" smooth="yes"/>
      <point x="663.0" y="1556.0"/>
      <point x="526.0" y="1466.0"/>
      <point x="432.0" y="1328.0" type="curve"/>
      <point x="412.0" y="1328.0" type="line"/>
      <point x="532.0" y="2048.0" type="line"/>
      <point x="472.0" y="2048.0" type="line"/>
      <point x="132.0" y="0.0" type="line"/>
      <point x="180.0" y="0.0" type="line"/>
    </contour>
  </outline>
</glyph>
<glyph name="k" format="2">
  <advance width="1372.0"/>
  <unicode hex="006B"/>
  <outline>
    <contour>
      <point x="296.0" y="620.0" type="line"/>
      <point x="556.0" y="840.0" type="line"/>
      <point x="564.0" y="848.0" type="line"/>
      <point x="1380.0" y="1536.0" type="line"/>
      <point x="1280.0" y="1536.0" type="line"/>
      <point x="340.0" y="740.0" type="line"/>
      <point x="316.0" y="740.0" type="line"/>
    </contour>
    <contour>
      <point x="144.0" y="0.0" type="line"/>
      <point x="208.0" y="0.0" type="line"/>
      <point x="548.0" y="2048.0" type="line"/>
      <point x="484.0" y="2048.0" type="line"/>
    </contour>
    <contour>
      <point x="1072.0" y="0.0" type="line"/>
      <point x="1148.0" y="0.0" type="line"/>
      <point x="584.0" y="888.0" type="line"/>
      <point x="532.0" y="848.0" type="line"/>
    </contour>
  </outline>
</glyph>
<glyph name="l" format="2">
  <advance width="608.0"/>
  <unicode hex="006C"/>
  <outline>
    <contour>
      <point x="548.0" y="2048.0" type="line"/>
      <point x="484.0" y="2048.0" type="line"/>
      <point x="144.0" y="0.0" type="line"/>
      <point x="208.0" y="0.0" type="line"/>
    </contour>
  </outline>
</glyph>
<glyph name="m" format="2">
  <advance width="2328.0"/>
  <unicode hex="006D"/>
  <outline>
    <contour>
      <point x="132.0" y="0.0" type="line"/>
      <point x="180.0" y="0.0" type="line"/>
      <point x="344.0" y="1000.0" type="line" smooth="yes"/>
      <point x="389.0" y="1276.0"/>
      <point x="645.0" y="1483.0"/>
      <point x="872.0" y="1484.0" type="curve" smooth="yes"/>
      <point x="1091.0" y="1483.0"/>
      <point x="1221.0" y="1347.0"/>
      <point x="1188.0" y="1148.0" type="curve" smooth="yes"/>
      <point x="1000.0" y="0.0" type="line"/>
      <point x="1064.0" y="0.0" type="line"/>
      <point x="1244.0" y="1064.0" type="line" smooth="yes"/>
      <point x="1282.0" y="1302.0"/>
      <point x="1469.0" y="1483.0"/>
      <point x="1748.0" y="1484.0" type="curve" smooth="yes"/>
      <point x="1946.0" y="1483.0"/>
      <point x="2115.0" y="1392.0"/>
      <point x="2068.0" y="1108.0" type="curve" smooth="yes"/>
      <point x="1884.0" y="0.0" type="line"/>
      <point x="1932.0" y="0.0" type="line"/>
      <point x="2104.0" y="1024.0" type="line" smooth="yes"/>
      <point x="2167.0" y="1410.0"/>
      <point x="2000.0" y="1556.0"/>
      <point x="1740.0" y="1556.0" type="curve" smooth="yes"/>
      <point x="1526.0" y="1556.0"/>
      <point x="1360.0" y="1470.0"/>
      <point x="1244.0" y="1328.0" type="curve"/>
      <point x="1228.0" y="1328.0" type="line"/>
      <point x="1152.0" y="1477.0"/>
      <point x="1051.0" y="1556.0"/>
      <point x="860.0" y="1556.0" type="curve" smooth="yes"/>
      <point x="668.0" y="1556.0"/>
      <point x="515.0" y="1474.0"/>
      <point x="424.0" y="1328.0" type="curve"/>
      <point x="404.0" y="1328.0" type="line"/>
      <point x="440.0" y="1536.0" type="line"/>
      <point x="388.0" y="1536.0" type="line"/>
    </contour>
  </outline>
</glyph>
<glyph name="n" format="2">
  <advance width="1545.0"/>
  <unicode hex="006E"/>
  <outline>
    <contour>
      <point x="336.0" y="960.0" type="line" smooth="yes"/>
      <point x="396.0" y="1298.0"/>
      <point x="635.0" y="1486.0"/>
      <point x="920.0" y="1488.0" type="curve" smooth="yes"/>
      <point x="1186.0" y="1486.0"/>
      <point x="1320.0" y="1310.0"/>
      <point x="1272.0" y="1020.0" type="curve" smooth="yes"/>
      <point x="1104.0" y="0.0" type="line"/>
      <point x="1148.0" y="0.0" type="line"/>
      <point x="1312.0" y="976.0" type="line" smooth="yes"/>
      <point x="1380.0" y="1399.0"/>
      <point x="1195.0" y="1556.0"/>
      <point x="900.0" y="1556.0" type="curve" smooth="yes"/>
      <point x="663.0" y="1556.0"/>
      <point x="520.0" y="1459.0"/>
      <point x="424.0" y="1328.0" type="curve"/>
      <point x="404.0" y="1328.0" type="line"/>
      <point x="440.0" y="1536.0" type="line"/>
      <point x="388.0" y="1536.0" type="line"/>
      <point x="132.0" y="0.0" type="line"/>
      <point x="180.0" y="0.0" type="line"/>
    </contour>
  </outline>
</glyph>
<glyph name="o" format="2">
  <advance width="1632.0"/>
  <unicode hex="006F"/>
  <outline>
    <contour>
      <point x="688.0" y="-32.0" type="curve" smooth="yes"/>
      <point x="1048.0" y="-32.0"/>
      <point x="1376.0" y="308.0"/>
      <point x="1452.0" y="756.0" type="curve" smooth="yes"/>
      <point x="1524.0" y="1212.0"/>
      <point x="1308.0" y="1560.0"/>
      <point x="940.0" y="1560.0" type="curve" smooth="yes"/>
      <point x="584.0" y="1560.0"/>
      <point x="256.0" y="1220.0"/>
      <point x="180.0" y="772.0" type="curve" smooth="yes"/>
      <point x="104.0" y="312.0"/>
      <point x="324.0" y="-32.0"/>
    </contour>
    <contour>
      <point x="688.0" y="32.0" type="curve" smooth="yes"/>
      <point x="368.0" y="32.0"/>
      <point x="172.0" y="344.0"/>
      <point x="244.0" y="756.0" type="curve" smooth="yes"/>
      <point x="312.0" y="1176.0"/>
      <point x="616.0" y="1496.0"/>
      <point x="944.0" y="1496.0" type="curve" smooth="yes"/>
      <point x="1264.0" y="1496.0"/>
      <point x="1456.0" y="1184.0"/>
      <point x="1388.0" y="772.0" type="curve" smooth="yes"/>
      <point x="1320.0" y="348.0"/>
      <point x="1020.0" y="32.0"/>
    </contour>
  </outline>
</glyph>
<glyph name="p" format="2">
  <advance width="1628.0"/>
  <unicode hex="0070"/>
  <outline>
    <contour>
      <point x="40.0" y="-576.0" type="line"/>
      <point x="104.0" y="-576.0" type="line"/>
      <point x="264.0" y="384.0" type="line"/>
      <point x="272.0" y="384.0" type="line"/>
      <point x="312.0" y="128.0"/>
      <point x="480.0" y="-32.0"/>
      <point x="724.0" y="-32.0" type="curve" smooth="yes"/>
      <point x="1084.0" y="-32.0"/>
      <point x="1372.0" y="312.0"/>
      <point x="1448.0" y="764.0" type="curve" smooth="yes"/>
      <point x="1524.0" y="1220.0"/>
      <point x="1352.0" y="1560.0"/>
      <point x="988.0" y="1560.0" type="curve" smooth="yes"/>
      <point x="740.0" y="1560.0"/>
      <point x="524.0" y="1400.0"/>
      <point x="400.0" y="1144.0" type="curve"/>
      <point x="392.0" y="1144.0" type="line"/>
      <point x="456.0" y="1536.0" type="line"/>
      <point x="392.0" y="1536.0" type="line"/>
    </contour>
    <contour>
      <point x="328.0" y="764.0" type="curve" smooth="yes"/>
      <point x="396.0" y="1180.0"/>
      <point x="664.0" y="1496.0"/>
      <point x="988.0" y="1496.0" type="curve" smooth="yes"/>
      <point x="1316.0" y="1496.0"/>
      <point x="1452.0" y="1180.0"/>
      <point x="1384.0" y="764.0" type="curve" smooth="yes"/>
      <point x="1316.0" y="348.0"/>
      <point x="1048.0" y="32.0"/>
      <point x="724.0" y="32.0" type="curve" smooth="yes"/>
      <point x="400.0" y="32.0"/>
      <point x="260.0" y="348.0"/>
    </contour>
  </outline>
</glyph>
<glyph name="r" format="2">
  <advance width="953.0"/>
  <unicode hex="0072"/>
  <outline>
    <contour>
      <point x="136.0" y="0.0" type="line"/>
      <point x="180.0" y="0.0" type="line"/>
      <point x="356.0" y="1076.0" type="line" smooth="yes"/>
      <point x="391.0" y="1301.0"/>
      <point x="614.0" y="1478.0"/>
      <point x="892.0" y="1480.0" type="curve"/>
      <point x="953.0" y="1478.0"/>
      <point x="995.0" y="1478.0"/>
      <point x="1016.0" y="1464.0" type="curve"/>
      <point x="1056.0" y="1508.0" type="line"/>
      <point x="1023.0" y="1542.0"/>
      <point x="972.0" y="1562.0"/>
      <point x="884.0" y="1564.0" type="curve"/>
      <point x="683.0" y="1562.0"/>
      <point x="486.0" y="1454.0"/>
      <point x="416.0" y="1340.0" type="curve"/>
      <point x="400.0" y="1340.0" type="line"/>
      <point x="432.0" y="1536.0" type="line"/>
      <point x="392.0" y="1536.0" type="line"/>
    </contour>
  </outline>
</glyph>
<glyph name="s" format="2">
  <advance width="1362.0"/>
  <unicode hex="0073"/>
  <outline>
    <contour>
      <point x="1252.0" y="1288.0" type="line"/>
      <point x="1161.0" y="1443.0"/>
      <point x="1088.0" y="1556.0"/>
      <point x="880.0" y="1556.0" type="curve" smooth="yes"/>
      <point x="612.0" y="1556.0"/>
      <point x="347.0" y="1359.0"/>
      <point x="308.0" y="1128.0" type="curve" smooth="yes"/>
      <point x="275.0" y="941.0"/>
      <point x="356.0" y="819.0"/>
      <point x="608.0" y="744.0" type="curve" smooth="yes"/>
      <point x="840.0" y="676.0" type="line" smooth="yes"/>
      <point x="1014.0" y="631.0"/>
      <point x="1089.0" y="526.0"/>
      <point x="1060.0" y="380.0" type="curve" smooth="yes"/>
      <point x="1034.0" y="216.0"/>
      <point x="838.0" y="78.0"/>
      <point x="556.0" y="76.0" type="curve" smooth="yes"/>
      <point x="314.0" y="74.0"/>
      <point x="182.0" y="178.0"/>
      <point x="164.0" y="380.0" type="curve"/>
      <point x="108.0" y="292.0" type="line"/>
      <point x="141.0" y="62.0"/>
      <point x="301.0" y="-34.0"/>
      <point x="516.0" y="-36.0" type="curve" smooth="yes"/>
      <point x="838.0" y="-34.0"/>
      <point x="1082.0" y="166.0"/>
      <point x="1120.0" y="400.0" type="curve" smooth="yes"/>
      <point x="1155.0" y="600.0"/>
      <point x="1061.0" y="723.0"/>
      <point x="820.0" y="800.0" type="curve" smooth="yes"/>
      <point x="652.0" y="856.0" type="line" smooth="yes"/>
      <point x="444.0" y="912.0"/>
      <point x="337.0" y="998.0"/>
      <point x="364.0" y="1164.0" type="curve" smooth="yes"/>
      <point x="390.0" y="1329.0"/>
      <point x="578.0" y="1450.0"/>
      <point x="812.0" y="1452.0" type="curve" smooth="yes"/>
      <point x="1089.0" y="1450.0"/>
      <point x="1148.0" y="1305.0"/>
      <point x="1192.0" y="1192.0" type="curve"/>
    </contour>
  </outline>
</glyph>
<glyph name="t" format="2">
  <advance width="980.0"/>
  <unicode hex="0074"/>
  <outline>
    <contour>
      <point x="908.0" y="1536.0" type="line"/>
      <point x="244.0" y="1536.0" type="line"/>
      <point x="232.0" y="1456.0" type="line"/>
      <point x="900.0" y="1456.0" type="line"/>
    </contour>
    <contour>
      <point x="556.0" y="1904.0" type="line"/>
      <point x="296.0" y="332.0" type="line"/>
      <point x="262.0" y="96.0"/>
      <point x="466.0" y="-10.0"/>
      <point x="556.0" y="-24.0" type="curve" smooth="yes"/>
      <point x="620.0" y="-27.0"/>
      <point x="658.0" y="-16.0"/>
      <point x="684.0" y="-8.0" type="curve"/>
      <point x="668.0" y="100.0" type="line"/>
      <point x="649.0" y="96.0"/>
      <point x="631.0" y="90.0"/>
      <point x="568.0" y="92.0" type="curve" smooth="yes"/>
      <point x="444.0" y="90.0"/>
      <point x="310.0" y="122.0"/>
      <point x="352.0" y="404.0" type="curve"/>
      <point x="604.0" y="1904.0" type="line"/>
    </contour>
  </outline>
</glyph>
<glyph name="u" format="2">
  <advance width="1600.0"/>
  <unicode hex="0075"/>
  <outline>
    <contour>
      <point x="1220.0" y="504.0" type="line" smooth="yes"/>
      <point x="1176.0" y="236.0"/>
      <point x="948.0" y="44.0"/>
      <point x="676.0" y="44.0" type="curve" smooth="yes"/>
      <point x="404.0" y="44.0"/>
      <point x="248.0" y="232.0"/>
      <point x="292.0" y="504.0" type="curve" smooth="yes"/>
      <point x="464.0" y="1536.0" type="line"/>
      <point x="400.0" y="1536.0" type="line"/>
      <point x="228.0" y="504.0" type="line" smooth="yes"/>
      <point x="176.0" y="196.0"/>
      <point x="356.0" y="-20.0"/>
      <point x="664.0" y="-20.0" type="curve" smooth="yes"/>
      <point x="876.0" y="-20.0"/>
      <point x="1072.0" y="84.0"/>
      <point x="1168.0" y="244.0" type="curve"/>
      <point x="1176.0" y="244.0" type="line"/>
      <point x="1136.0" y="0.0" type="line"/>
      <point x="1200.0" y="0.0" type="line"/>
      <point x="1456.0" y="1536.0" type="line"/>
      <point x="1392.0" y="1536.0" type="line"/>
    </contour>
  </outline>
</glyph>
<glyph name="v" format="2">
  <advance width="1472.0"/>
  <unicode hex="0076"/>
  <outline>
    <contour>
      <point x="1456.0" y="1536.0" type="line"/>
      <point x="1384.0" y="1536.0" type="line"/>
      <point x="624.0" y="80.0" type="line"/>
      <point x="616.0" y="80.0" type="line"/>
      <point x="336.0" y="1536.0" type="line"/>
      <point x="272.0" y="1536.0" type="line"/>
      <point x="564.0" y="0.0" type="line"/>
      <point x="652.0" y="0.0" type="line"/>
    </contour>
  </outline>
</glyph>
<glyph name="w" format="2">
  <advance width="2224.0"/>
  <unicode hex="0077"/>
  <outline>
    <contour>
      <point x="472.0" y="0.0" type="line"/>
      <point x="560.0" y="0.0" type="line"/>
      <point x="1212.0" y="1412.0" type="line"/>
      <point x="1220.0" y="1412.0" type="line"/>
      <point x="1408.0" y="0.0" type="line"/>
      <point x="1496.0" y="0.0" type="line"/>
      <point x="2208.0" y="1536.0" type="line"/>
      <point x="2136.0" y="1536.0" type="line"/>
      <point x="1468.0" y="88.0" type="line"/>
      <point x="1460.0" y="88.0" type="line"/>
      <point x="1268.0" y="1536.0" type="line"/>
      <point x="1204.0" y="1536.0" type="line"/>
      <point x="532.0" y="88.0" type="line"/>
      <point x="524.0" y="88.0" type="line"/>
      <point x="336.0" y="1536.0" type="line"/>
      <point x="272.0" y="1536.0" type="line"/>
    </contour>
  </outline>
</glyph>
<glyph name="x" format="2">
  <advance width="1400.0"/>
  <unicode hex="0078"/>
  <outline>
    <contour>
      <point x="396.0" y="1536.0" type="line"/>
      <point x="324.0" y="1536.0" type="line"/>
      <point x="668.0" y="800.0" type="line"/>
      <point x="28.0" y="0.0" type="line"/>
      <point x="108.0" y="0.0" type="line"/>
      <point x="700.0" y="740.0" type="line"/>
      <point x="1044.0" y="0.0" type="line"/>
      <point x="1116.0" y="0.0" type="line"/>
      <point x="740.0" y="800.0" type="line"/>
      <point x="1332.0" y="1536.0" type="line"/>
      <point x="1252.0" y="1536.0" type="line"/>
      <point x="712.0" y="860.0" type="line"/>
    </contour>
  </outline>
</glyph>
<glyph name="y" format="2">
  <advance width="1472.0"/>
  <unicode hex="0079"/>
  <outline>
    <contour>
      <point x="104.0" y="-608.0" type="curve" smooth="yes"/>
      <point x="256.0" y="-608.0"/>
      <point x="388.0" y="-504.0"/>
      <point x="492.0" y="-308.0" type="curve" smooth="yes"/>
      <point x="1456.0" y="1536.0" type="line"/>
      <point x="1384.0" y="1536.0" type="line"/>
      <point x="624.0" y="80.0" type="line"/>
      <point x="616.0" y="80.0" type="line"/>
      <point x="336.0" y="1536.0" type="line"/>
      <point x="272.0" y="1536.0" type="line"/>
      <point x="568.0" y="-28.0" type="line"/>
      <point x="432.0" y="-284.0" type="line" smooth="yes"/>
      <point x="308.0" y="-518.0"/>
      <point x="156.0" y="-596.0"/>
      <point x="-28.0" y="-512.0" type="curve"/>
      <point x="-60.0" y="-568.0" type="line"/>
      <point x="-4.0" y="-596.0"/>
      <point x="52.0" y="-608.0"/>
    </contour>
  </outline>
</glyph>
<glyph name="z" format="2">
  <advance width="1432.0"/>
  <unicode hex="007A"/>
  <outline>
    <contour>
      <point x="88.0" y="0.0" type="line"/>
      <point x="1128.0" y="0.0" type="line"/>
      <point x="1140.0" y="64.0" type="line"/>
      <point x="188.0" y="64.0" type="line"/>
      <point x="188.0" y="72.0" type="line"/>
      <point x="1332.0" y="1472.0" type="line"/>
      <point x="1344.0" y="1536.0" type="line"/>
      <point x="404.0" y="1536.0" type="line"/>
      <point x="392.0" y="1472.0" type="line"/>
      <point x="1248.0" y="1472.0" type="line"/>
      <point x="1248.0" y="1464.0" type="line"/>
      <point x="100.0" y="64.0" type="line"/>
    </contour>
  </outline>
</glyph>
<glyph name="braceleft" format="2">
  <advance width="888.0"/>
  <unicode hex="007B"/>
  <outline>
    <contour>
      <point x="148.0" y="908.0" type="line"/>
      <point x="413.0" y="908.0"/>
      <point x="483.0" y="1012.0"/>
      <point x="516.0" y="1224.0" type="curve" smooth="yes"/>
      <point x="604.0" y="1732.0" type="line" smooth="yes"/>
      <point x="642.0" y="2010.0"/>
      <point x="763.0" y="2128.0"/>
      <point x="992.0" y="2128.0" type="curve"/>
      <point x="1000.0" y="2204.0" type="line"/>
      <point x="621.0" y="2202.0"/>
      <point x="613.0" y="1932.0"/>
      <point x="572.0" y="1692.0" type="curve" smooth="yes"/>
      <point x="504.0" y="1272.0" type="line" smooth="yes"/>
      <point x="462.0" y="1035.0"/>
      <point x="374.0" y="955.0"/>
      <point x="156.0" y="956.0" type="curve"/>
    </contour>
    <contour>
      <point x="572.0" y="-388.0" type="curve"/>
      <point x="584.0" y="-316.0" type="line"/>
      <point x="355.0" y="-314.0"/>
      <point x="278.0" y="-195.0"/>
      <point x="324.0" y="84.0" type="curve" smooth="yes"/>
      <point x="412.0" y="592.0" type="line" smooth="yes"/>
      <point x="443.0" y="802.0"/>
      <point x="410.0" y="906.0"/>
      <point x="148.0" y="908.0" type="curve"/>
      <point x="140.0" y="860.0" type="line"/>
      <point x="355.0" y="859.0"/>
      <point x="416.0" y="778.0"/>
      <point x="376.0" y="544.0" type="curve" smooth="yes"/>
      <point x="308.0" y="124.0" type="line" smooth="yes"/>
      <point x="265.0" y="-118.0"/>
      <point x="192.0" y="-387.0"/>
    </contour>
    <contour>
      <point x="140.0" y="860.0" type="line"/>
      <point x="252.0" y="860.0" type="line"/>
      <point x="268.0" y="956.0" type="line"/>
      <point x="156.0" y="956.0" type="line"/>
    </contour>
  </outline>
</glyph>
<glyph name="bar" format="2">
  <advance width="800.0"/>
  <unicode hex="007C"/>
  <outline>
    <contour>
      <point x="800.0" y="3104.0" type="line"/>
      <point x="772.0" y="3104.0" type="line"/>
      <point x="124.0" y="-828.0" type="line"/>
      <point x="152.0" y="-828.0" type="line"/>
    </contour>
  </outline>
</glyph>
<glyph name="asciitilde" format="2">
  <advance width="1792.0"/>
  <unicode hex="007E"/>
  <outline>
    <contour>
      <point x="248.0" y="672.0" type="curve"/>
      <point x="312.0" y="664.0" type="line"/>
      <point x="352.0" y="792.0"/>
      <point x="484.0" y="884.0"/>
      <point x="644.0" y="884.0" type="curve" smooth="yes"/>
      <point x="764.0" y="884.0"/>
      <point x="832.0" y="836.0"/>
      <point x="904.0" y="780.0" type="curve" smooth="yes"/>
      <point x="972.0" y="727.0"/>
      <point x="1048.0" y="664.0"/>
      <point x="1168.0" y="664.0" type="curve" smooth="yes"/>
      <point x="1347.0" y="664.0"/>
      <point x="1488.0" y="761.0"/>
      <point x="1556.0" y="928.0" type="curve"/>
      <point x="1496.0" y="944.0" type="line"/>
      <point x="1440.0" y="816.0"/>
      <point x="1316.0" y="728.0"/>
      <point x="1176.0" y="728.0" type="curve" smooth="yes"/>
      <point x="1080.0" y="728.0"/>
      <point x="1020.0" y="776.0"/>
      <point x="948.0" y="828.0" type="curve" smooth="yes"/>
      <point x="874.0" y="881.0"/>
      <point x="792.0" y="948.0"/>
      <point x="652.0" y="948.0" type="curve" smooth="yes"/>
      <point x="453.0" y="948.0"/>
      <point x="303.0" y="845.0"/>
    </contour>
  </outline>
</glyph>
<glyph name="cent" format="2">
  <advance width="1556.0"/>
  <unicode hex="00A2"/>
  <outline>
    <contour>
      <point x="604.0" y="-256.0" type="line"/>
      <point x="668.0" y="-256.0" type="line"/>
      <point x="1004.0" y="1780.0" type="line"/>
      <point x="940.0" y="1780.0" type="line"/>
    </contour>
    <component base="c"/>
  </outline>
</glyph>
<glyph name="sterling" format="2">
  <advance width="1661.0"/>
  <unicode hex="00A3"/>
  <outline>
    <contour>
      <point x="1268.0" y="0.0" type="line"/>
      <point x="1280.0" y="84.0" type="line"/>
      <point x="56.0" y="84.0" type="line"/>
      <point x="44.0" y="0.0" type="line"/>
    </contour>
    <contour>
      <point x="928.0" y="776.0" type="line"/>
      <point x="948.0" y="892.0" type="line"/>
      <point x="184.0" y="892.0" type="line"/>
      <point x="160.0" y="776.0" type="line"/>
    </contour>
    <contour>
      <point x="496.0" y="1388.0" type="line"/>
      <point x="572.0" y="1803.0"/>
      <point x="893.0" y="1983.0"/>
      <point x="1152.0" y="1984.0" type="curve" smooth="yes"/>
      <point x="1383.0" y="1983.0"/>
      <point x="1594.0" y="1814.0"/>
      <point x="1508.0" y="1568.0" type="curve"/>
      <point x="1544.0" y="1452.0" type="line"/>
      <point x="1726.0" y="1714.0"/>
      <point x="1492.0" y="2076.0"/>
      <point x="1148.0" y="2076.0" type="curve" smooth="yes"/>
      <point x="898.0" y="2076.0"/>
      <point x="521.0" y="1869.0"/>
      <point x="460.0" y="1388.0" type="curve" smooth="yes"/>
      <point x="340.0" y="528.0" type="line" smooth="yes"/>
      <point x="324.0" y="392.0"/>
      <point x="233.0" y="64.0"/>
      <point x="84.0" y="84.0" type="curve"/>
      <point x="312.0" y="96.0" type="line"/>
      <point x="344.0" y="161.0"/>
      <point x="366.0" y="349.0"/>
      <point x="384.0" y="504.0" type="curve" smooth="yes"/>
    </contour>
  </outline>
</glyph>
<glyph name="currency" format="2">
  <advance width="1918.0"/>
  <unicode hex="00A4"/>
  <outline>
    <contour>
      <point x="356.0" y="836.0" type="curve"/>
      <point x="417.0" y="1206.0"/>
      <point x="741.0" y="1521.0"/>
      <point x="1068.0" y="1520.0" type="curve" smooth="yes"/>
      <point x="1402.0" y="1521.0"/>
      <point x="1622.0" y="1206.0"/>
      <point x="1560.0" y="836.0" type="curve" smooth="yes"/>
      <point x="1497.0" y="470.0"/>
      <point x="1178.0" y="151.0"/>
      <point x="844.0" y="152.0" type="curve" smooth="yes"/>
      <point x="517.0" y="151.0"/>
      <point x="292.0" y="470.0"/>
    </contour>
    <contour>
      <point x="172.0" y="836.0" type="curve"/>
      <point x="91.0" y="348.0"/>
      <point x="376.0" y="-28.0"/>
      <point x="816.0" y="-28.0" type="curve" smooth="yes"/>
      <point x="1259.0" y="-28.0"/>
      <point x="1679.0" y="348.0"/>
      <point x="1760.0" y="836.0" type="curve" smooth="yes"/>
      <point x="1839.0" y="1324.0"/>
      <point x="1543.0" y="1696.0"/>
      <point x="1100.0" y="1696.0" type="curve" smooth="yes"/>
      <point x="660.0" y="1696.0"/>
      <point x="251.0" y="1324.0"/>
    </contour>
    <contour>
      <point x="1908.0" y="1572.0" type="line"/>
      <point x="1796.0" y="1712.0" type="line"/>
      <point x="1480.0" y="1428.0" type="line"/>
      <point x="1584.0" y="1288.0" type="line"/>
    </contour>
    <contour>
      <point x="460.0" y="280.0" type="line"/>
      <point x="352.0" y="416.0" type="line"/>
      <point x="36.0" y="136.0" type="line"/>
      <point x="140.0" y="-8.0" type="line"/>
    </contour>
    <contour>
      <point x="1508.0" y="-8.0" type="line"/>
      <point x="1664.0" y="136.0" type="line"/>
      <point x="1440.0" y="416.0" type="line"/>
      <point x="1288.0" y="280.0" type="line"/>
    </contour>
    <contour>
      <point x="496.0" y="1288.0" type="line"/>
      <point x="652.0" y="1428.0" type="line"/>
      <point x="428.0" y="1712.0" type="line"/>
      <point x="276.0" y="1572.0" type="line"/>
    </contour>
  </outline>
</glyph>
<glyph name="yen" format="2">
  <advance width="1472.0"/>
  <unicode hex="00A5"/>
  <note>
line up with uni20BD
</note>
  <outline>
    <contour>
      <point x="344.0" y="2048.0" type="line"/>
      <point x="272.0" y="2048.0" type="line"/>
      <point x="716.0" y="884.0" type="line"/>
      <point x="788.0" y="884.0" type="line"/>
    </contour>
    <contour>
      <point x="724.0" y="884.0" type="line"/>
      <point x="796.0" y="884.0" type="line"/>
      <point x="1624.0" y="2048.0" type="line"/>
      <point x="1552.0" y="2048.0" type="line"/>
    </contour>
    <contour>
      <point x="800.0" y="952.0" type="line"/>
      <point x="736.0" y="952.0" type="line"/>
      <point x="576.0" y="0.0" type="line"/>
      <point x="640.0" y="0.0" type="line"/>
    </contour>
    <contour>
      <point x="1276.0" y="928.0" type="line"/>
      <point x="252.0" y="928.0" type="line"/>
      <point x="240.0" y="864.0" type="line"/>
      <point x="1264.0" y="864.0" type="line"/>
    </contour>
    <contour>
      <point x="1232.0" y="672.0" type="line"/>
      <point x="208.0" y="672.0" type="line"/>
      <point x="196.0" y="608.0" type="line"/>
      <point x="1220.0" y="608.0" type="line"/>
    </contour>
  </outline>
</glyph>
<glyph name="brokenbar" format="2">
  <advance width="525.0"/>
  <unicode hex="00A6"/>
  <outline>
    <contour>
      <point x="196.0" y="532.0" type="line"/>
      <point x="40.0" y="-384.0" type="line"/>
      <point x="100.0" y="-384.0" type="line"/>
      <point x="256.0" y="532.0" type="line"/>
    </contour>
    <contour>
      <point x="504.0" y="2048.0" type="line"/>
      <point x="444.0" y="2048.0" type="line"/>
      <point x="292.0" y="1136.0" type="line"/>
      <point x="352.0" y="1136.0" type="line"/>
    </contour>
  </outline>
</glyph>
<glyph name="section" format="2">
  <advance width="1434.0"/>
  <unicode hex="00A7"/>
  <outline>
    <contour>
      <point x="1276.0" y="1588.0" type="line"/>
      <point x="1323.0" y="1878.0"/>
      <point x="1205.0" y="2076.0"/>
      <point x="940.0" y="2076.0" type="curve"/>
      <point x="709.0" y="2076.0"/>
      <point x="516.0" y="1927.0"/>
      <point x="476.0" y="1720.0" type="curve"/>
      <point x="461.0" y="1616.0"/>
      <point x="494.0" y="1526.0"/>
      <point x="544.0" y="1456.0" type="curve"/>
      <point x="544.0" y="1444.0" type="line"/>
      <point x="309.0" y="1377.0"/>
      <point x="172.0" y="1116.0"/>
      <point x="168.0" y="996.0" type="curve" smooth="yes"/>
      <point x="158.0" y="794.0"/>
      <point x="274.0" y="646.0"/>
      <point x="364.0" y="576.0" type="curve" smooth="yes"/>
      <point x="708.0" y="300.0" type="line" smooth="yes"/>
      <point x="813.0" y="224.0"/>
      <point x="929.0" y="146.0"/>
      <point x="896.0" y="-56.0" type="curve" smooth="yes"/>
      <point x="866.0" y="-252.0"/>
      <point x="691.0" y="-355.0"/>
      <point x="496.0" y="-352.0" type="curve" smooth="yes"/>
      <point x="293.0" y="-346.0"/>
      <point x="146.0" y="-202.0"/>
      <point x="192.0" y="64.0" type="curve"/>
      <point x="104.0" y="64.0" type="line"/>
      <point x="53.0" y="-242.0"/>
      <point x="227.0" y="-418.0"/>
      <point x="492.0" y="-420.0" type="curve" smooth="yes"/>
      <point x="682.0" y="-418.0"/>
      <point x="931.0" y="-330.0"/>
      <point x="976.0" y="-56.0" type="curve" smooth="yes"/>
      <point x="989.0" y="50.0"/>
      <point x="980.0" y="153.0"/>
      <point x="912.0" y="224.0" type="curve"/>
      <point x="904.0" y="228.0" type="line"/>
      <point x="1130.0" y="296.0"/>
      <point x="1281.0" y="539.0"/>
      <point x="1288.0" y="668.0" type="curve" smooth="yes"/>
      <point x="1299.0" y="873.0"/>
      <point x="1179.0" y="1014.0"/>
      <point x="1092.0" y="1088.0" type="curve" smooth="yes"/>
      <point x="744.0" y="1364.0" type="line"/>
      <point x="642.0" y="1445.0"/>
      <point x="533.0" y="1574.0"/>
      <point x="556.0" y="1720.0" type="curve" smooth="yes"/>
      <point x="581.0" y="1822.0"/>
      <point x="674.0" y="2008.0"/>
      <point x="928.0" y="2008.0" type="curve" smooth="yes"/>
      <point x="1165.0" y="2008.0"/>
      <point x="1233.0" y="1830.0"/>
      <point x="1196.0" y="1588.0" type="curve"/>
    </contour>
    <contour>
      <point x="1200.0" y="692.0" type="curve" smooth="yes"/>
      <point x="1174.0" y="446.0"/>
      <point x="875.0" y="278.0"/>
      <point x="784.0" y="348.0" type="curve" smooth="yes"/>
      <point x="416.0" y="628.0" type="line" smooth="yes"/>
      <point x="346.0" y="701.0"/>
      <point x="235.0" y="789.0"/>
      <point x="256.0" y="976.0" type="curve"/>
      <point x="288.0" y="1226.0"/>
      <point x="553.0" y="1405.0"/>
      <point x="648.0" y="1336.0" type="curve" smooth="yes"/>
      <point x="1044.0" y="1028.0" type="line" smooth="yes"/>
      <point x="1111.0" y="966.0"/>
      <point x="1218.0" y="854.0"/>
    </contour>
  </outline>
</glyph>
<glyph name="dieresis" format="2">
  <advance width="1880.0"/>
  <unicode hex="00A8"/>
  <outline>
    <contour>
      <point x="880.0" y="1908.0" type="curve" smooth="yes"/>
      <point x="900.0" y="1908.0"/>
      <point x="920.0" y="1924.0"/>
      <point x="924.0" y="1944.0" type="curve" smooth="yes"/>
      <point x="930.0" y="1972.0"/>
      <point x="908.0" y="1996.0"/>
      <point x="880.0" y="1996.0" type="curve" smooth="yes"/>
      <point x="860.0" y="1996.0"/>
      <point x="840.0" y="1980.0"/>
      <point x="836.0" y="1960.0" type="curve" smooth="yes"/>
      <point x="830.0" y="1932.0"/>
      <point x="852.0" y="1908.0"/>
    </contour>
    <contour>
      <point x="1392.0" y="1908.0" type="curve" smooth="yes"/>
      <point x="1412.0" y="1908.0"/>
      <point x="1432.0" y="1924.0"/>
      <point x="1436.0" y="1944.0" type="curve" smooth="yes"/>
      <point x="1442.0" y="1972.0"/>
      <point x="1420.0" y="1996.0"/>
      <point x="1392.0" y="1996.0" type="curve" smooth="yes"/>
      <point x="1372.0" y="1996.0"/>
      <point x="1352.0" y="1980.0"/>
      <point x="1348.0" y="1960.0" type="curve" smooth="yes"/>
      <point x="1342.0" y="1932.0"/>
      <point x="1364.0" y="1908.0"/>
    </contour>
  </outline>
</glyph>
<glyph name="copyright" format="2">
  <advance width="2158.0"/>
  <unicode hex="00A9"/>
  <outline>
    <contour>
      <point x="1308.0" y="820.0" type="line"/>
      <point x="1279.0" y="640.0"/>
      <point x="1186.0" y="572.0"/>
      <point x="1036.0" y="572.0" type="curve" smooth="yes"/>
      <point x="862.0" y="572.0"/>
      <point x="794.0" y="716.0"/>
      <point x="828.0" y="920.0" type="curve" smooth="yes"/>
      <point x="856.0" y="1084.0" type="line" smooth="yes"/>
      <point x="890.0" y="1288.0"/>
      <point x="1002.0" y="1432.0"/>
      <point x="1176.0" y="1432.0" type="curve" smooth="yes"/>
      <point x="1326.0" y="1432.0"/>
      <point x="1406.0" y="1360.0"/>
      <point x="1376.0" y="1184.0" type="curve"/>
      <point x="1576.0" y="1184.0" type="line"/>
      <point x="1624.0" y="1472.0"/>
      <point x="1475.0" y="1616.0"/>
      <point x="1208.0" y="1616.0" type="curve" smooth="yes"/>
      <point x="914.0" y="1616.0"/>
      <point x="703.0" y="1400.0"/>
      <point x="652.0" y="1084.0" type="curve"/>
      <point x="624.0" y="920.0" type="line"/>
      <point x="571.0" y="604.0"/>
      <point x="710.0" y="388.0"/>
      <point x="1004.0" y="388.0" type="curve" smooth="yes"/>
      <point x="1271.0" y="388.0"/>
      <point x="1468.0" y="532.0"/>
      <point x="1516.0" y="820.0" type="curve"/>
    </contour>
    <contour>
      <point x="336.0" y="1004.0" type="curve"/>
      <point x="415.0" y="1488.0"/>
      <point x="827.0" y="1860.0"/>
      <point x="1260.0" y="1860.0" type="curve" smooth="yes"/>
      <point x="1695.0" y="1860.0"/>
      <point x="1983.0" y="1488.0"/>
      <point x="1904.0" y="1004.0" type="curve" smooth="yes"/>
      <point x="1823.0" y="516.0"/>
      <point x="1411.0" y="144.0"/>
      <point x="976.0" y="144.0" type="curve" smooth="yes"/>
      <point x="543.0" y="144.0"/>
      <point x="255.0" y="516.0"/>
    </contour>
    <contour>
      <point x="172.0" y="1004.0" type="curve"/>
      <point x="75.0" y="420.0"/>
      <point x="425.0" y="-28.0"/>
      <point x="948.0" y="-28.0" type="curve" smooth="yes"/>
      <point x="1472.0" y="-28.0"/>
      <point x="1970.0" y="420.0"/>
      <point x="2068.0" y="1004.0" type="curve" smooth="yes"/>
      <point x="2162.0" y="1584.0"/>
      <point x="1812.0" y="2032.0"/>
      <point x="1288.0" y="2032.0" type="curve" smooth="yes"/>
      <point x="765.0" y="2032.0"/>
      <point x="267.0" y="1584.0"/>
    </contour>
  </outline>
</glyph>
<glyph name="ordfeminine" format="2">
  <advance width="1156.0"/>
  <unicode hex="00AA"/>
  <outline>
    <contour>
      <point x="812.0" y="1184.0" type="line"/>
      <point x="798.0" y="1117.0"/>
      <point x="796.0" y="1041.0"/>
      <point x="804.0" y="976.0" type="curve"/>
      <point x="1040.0" y="976.0" type="line"/>
      <point x="1034.0" y="1047.0"/>
      <point x="1033.0" y="1122.0"/>
      <point x="1052.0" y="1220.0" type="curve" smooth="yes"/>
      <point x="1124.0" y="1652.0" type="line"/>
      <point x="1163.0" y="1904.0"/>
      <point x="1028.0" y="2032.0"/>
      <point x="796.0" y="2032.0" type="curve" smooth="yes"/>
      <point x="540.0" y="2032.0"/>
      <point x="359.0" y="1896.0"/>
      <point x="328.0" y="1716.0" type="curve"/>
      <point x="552.0" y="1692.0" type="line"/>
      <point x="566.0" y="1780.0"/>
      <point x="646.0" y="1828.0"/>
      <point x="764.0" y="1828.0" type="curve" smooth="yes"/>
      <point x="866.0" y="1828.0"/>
      <point x="906.0" y="1773.0"/>
      <point x="892.0" y="1652.0" type="curve"/>
    </contour>
    <contour>
      <point x="936.0" y="1588.0" type="line"/>
      <point x="740.0" y="1588.0" type="line"/>
      <point x="434.0" y="1586.0"/>
      <point x="261.0" y="1468.0"/>
      <point x="228.0" y="1264.0" type="curve" smooth="yes"/>
      <point x="197.0" y="1076.0"/>
      <point x="298.0" y="952.0"/>
      <point x="516.0" y="952.0" type="curve" smooth="yes"/>
      <point x="697.0" y="952.0"/>
      <point x="814.0" y="1065.0"/>
      <point x="868.0" y="1152.0" type="curve"/>
      <point x="868.0" y="1308.0" type="line"/>
      <point x="860.0" y="1240.0"/>
      <point x="713.0" y="1154.0"/>
      <point x="604.0" y="1156.0" type="curve" smooth="yes"/>
      <point x="494.0" y="1154.0"/>
      <point x="456.0" y="1196.0"/>
      <point x="468.0" y="1276.0" type="curve" smooth="yes"/>
      <point x="480.0" y="1354.0"/>
      <point x="555.0" y="1426.0"/>
      <point x="712.0" y="1428.0" type="curve"/>
      <point x="908.0" y="1428.0" type="line"/>
    </contour>
  </outline>
</glyph>
<glyph name="logicalnot" format="2">
  <advance width="1407.0"/>
  <unicode hex="00AC"/>
  <outline>
    <contour>
      <point x="1320.0" y="1108.0" type="line"/>
      <point x="204.0" y="1108.0" type="line"/>
      <point x="164.0" y="872.0" type="line"/>
      <point x="1280.0" y="872.0" type="line"/>
    </contour>
    <contour>
      <point x="1304.0" y="1000.0" type="line"/>
      <point x="1032.0" y="1000.0" type="line"/>
      <point x="952.0" y="516.0" type="line"/>
      <point x="1224.0" y="516.0" type="line"/>
    </contour>
  </outline>
</glyph>
<glyph name="registered" format="2">
  <advance width="2158.0"/>
  <unicode hex="00AE"/>
  <outline>
    <contour>
      <point x="1132.0" y="900.0" type="line"/>
      <point x="1175.0" y="900.0"/>
      <point x="1165.0" y="898.0"/>
      <point x="1220.0" y="928.0" type="curve" smooth="yes"/>
      <point x="1197.0" y="919.0"/>
      <point x="1244.0" y="954.0"/>
      <point x="1232.0" y="948.0" type="curve" smooth="yes"/>
      <point x="1435.0" y="1000.0"/>
      <point x="1551.0" y="1107.0"/>
      <point x="1576.0" y="1264.0" type="curve"/>
      <point x="1615.0" y="1498.0"/>
      <point x="1467.0" y="1604.0"/>
      <point x="1208.0" y="1604.0" type="curve"/>
      <point x="828.0" y="1604.0" type="line"/>
      <point x="632.0" y="436.0" type="line"/>
      <point x="832.0" y="436.0" type="line"/>
      <point x="996.0" y="1420.0" type="line"/>
      <point x="1176.0" y="1420.0" type="line"/>
      <point x="1342.0" y="1420.0"/>
      <point x="1395.0" y="1376.0"/>
      <point x="1376.0" y="1244.0" type="curve"/>
      <point x="1355.0" y="1142.0"/>
      <point x="1264.0" y="1084.0"/>
      <point x="1172.0" y="1084.0" type="curve"/>
      <point x="876.0" y="1084.0" type="line"/>
      <point x="848.0" y="900.0" type="line"/>
    </contour>
    <contour>
      <point x="1120.0" y="900.0" type="line"/>
      <point x="1258.0" y="900.0"/>
      <point x="1299.0" y="836.0"/>
      <point x="1280.0" y="708.0" type="curve"/>
      <point x="1264.0" y="632.0" type="line"/>
      <point x="1259.0" y="592.0"/>
      <point x="1239.0" y="480.0"/>
      <point x="1252.0" y="436.0" type="curve"/>
      <point x="1456.0" y="436.0" type="line"/>
      <point x="1460.0" y="456.0" type="line"/>
      <point x="1452.0" y="502.0"/>
      <point x="1459.0" y="569.0"/>
      <point x="1464.0" y="632.0" type="curve"/>
      <point x="1480.0" y="708.0" type="line"/>
      <point x="1506.0" y="878.0"/>
      <point x="1447.0" y="1004.0"/>
      <point x="1168.0" y="1004.0" type="curve"/>
    </contour>
    <contour>
      <point x="336.0" y="1004.0" type="curve" smooth="yes"/>
      <point x="415.0" y="1488.0"/>
      <point x="827.0" y="1860.0"/>
      <point x="1260.0" y="1860.0" type="curve" smooth="yes"/>
      <point x="1695.0" y="1860.0"/>
      <point x="1983.0" y="1488.0"/>
      <point x="1904.0" y="1004.0" type="curve" smooth="yes"/>
      <point x="1823.0" y="516.0"/>
      <point x="1411.0" y="144.0"/>
      <point x="976.0" y="144.0" type="curve" smooth="yes"/>
      <point x="543.0" y="144.0"/>
      <point x="255.0" y="516.0"/>
    </contour>
    <contour>
      <point x="172.0" y="1004.0" type="curve" smooth="yes"/>
      <point x="75.0" y="420.0"/>
      <point x="425.0" y="-28.0"/>
      <point x="948.0" y="-28.0" type="curve" smooth="yes"/>
      <point x="1472.0" y="-28.0"/>
      <point x="1970.0" y="420.0"/>
      <point x="2068.0" y="1004.0" type="curve" smooth="yes"/>
      <point x="2162.0" y="1584.0"/>
      <point x="1812.0" y="2032.0"/>
      <point x="1288.0" y="2032.0" type="curve" smooth="yes"/>
      <point x="765.0" y="2032.0"/>
      <point x="267.0" y="1584.0"/>
    </contour>
  </outline>
</glyph>
<glyph name="macron" format="2">
  <advance width="824.0"/>
  <unicode hex="00AF"/>
  <outline>
    <contour>
      <point x="940.0" y="2016.0" type="line"/>
      <point x="300.0" y="2016.0" type="line"/>
      <point x="288.0" y="1952.0" type="line"/>
      <point x="928.0" y="1952.0" type="line"/>
    </contour>
  </outline>
</glyph>
<glyph name="degree" format="2">
  <advance width="1280.0"/>
  <unicode hex="00B0"/>
  <outline>
    <contour>
      <point x="720.0" y="1244.0" type="curve" smooth="yes"/>
      <point x="948.0" y="1244.0"/>
      <point x="1164.0" y="1432.0"/>
      <point x="1204.0" y="1660.0" type="curve" smooth="yes"/>
      <point x="1240.0" y="1892.0"/>
      <point x="1088.0" y="2076.0"/>
      <point x="856.0" y="2076.0" type="curve" smooth="yes"/>
      <point x="628.0" y="2076.0"/>
      <point x="408.0" y="1892.0"/>
      <point x="372.0" y="1660.0" type="curve" smooth="yes"/>
      <point x="332.0" y="1432.0"/>
      <point x="488.0" y="1244.0"/>
    </contour>
    <contour>
      <point x="728.0" y="1308.0" type="curve" smooth="yes"/>
      <point x="536.0" y="1308.0"/>
      <point x="404.0" y="1464.0"/>
      <point x="436.0" y="1660.0" type="curve" smooth="yes"/>
      <point x="468.0" y="1856.0"/>
      <point x="652.0" y="2012.0"/>
      <point x="844.0" y="2012.0" type="curve" smooth="yes"/>
      <point x="1040.0" y="2012.0"/>
      <point x="1172.0" y="1856.0"/>
      <point x="1140.0" y="1660.0" type="curve" smooth="yes"/>
      <point x="1108.0" y="1464.0"/>
      <point x="924.0" y="1308.0"/>
    </contour>
  </outline>
</glyph>
<glyph name="plusminus" format="2">
  <advance width="1792.0"/>
  <unicode hex="00B1"/>
  <outline>
    <contour>
      <point x="220.0" y="192.0" type="line"/>
      <point x="1380.0" y="192.0" type="line"/>
      <point x="1392.0" y="256.0" type="line"/>
      <point x="232.0" y="256.0" type="line"/>
    </contour>
    <contour>
      <point x="348.0" y="960.0" type="line"/>
      <point x="1508.0" y="960.0" type="line"/>
      <point x="1520.0" y="1024.0" type="line"/>
      <point x="360.0" y="1024.0" type="line"/>
    </contour>
    <contour>
      <point x="812.0" y="448.0" type="line"/>
      <point x="876.0" y="448.0" type="line"/>
      <point x="1056.0" y="1536.0" type="line"/>
      <point x="992.0" y="1536.0" type="line"/>
    </contour>
  </outline>
</glyph>
<glyph name="two.sups" format="2">
  <advance width="1106.0"/>
  <unicode hex="00B2"/>
  <outline>
    <contour>
      <point x="188.0" y="1024.0" type="line"/>
      <point x="996.0" y="1024.0" type="line"/>
      <point x="1016.0" y="1132.0" type="line"/>
      <point x="352.0" y="1132.0" type="line"/>
      <point x="352.0" y="1140.0" type="line"/>
      <point x="760.0" y="1468.0" type="line" smooth="yes"/>
      <point x="1029.0" y="1718.0"/>
      <point x="1111.0" y="1813.0"/>
      <point x="1136.0" y="1944.0" type="curve" smooth="yes"/>
      <point x="1167.0" y="2142.0"/>
      <point x="1007.0" y="2268.0"/>
      <point x="812.0" y="2268.0" type="curve" smooth="yes"/>
      <point x="604.0" y="2268.0"/>
      <point x="387.0" y="2140.0"/>
      <point x="352.0" y="1916.0" type="curve"/>
      <point x="456.0" y="1916.0" type="line"/>
      <point x="482.0" y="2062.0"/>
      <point x="615.0" y="2161.0"/>
      <point x="788.0" y="2160.0" type="curve" smooth="yes"/>
      <point x="946.0" y="2161.0"/>
      <point x="1046.0" y="2084.0"/>
      <point x="1020.0" y="1932.0" type="curve" smooth="yes"/>
      <point x="1002.0" y="1826.0"/>
      <point x="914.0" y="1735.0"/>
      <point x="708.0" y="1564.0" type="curve" smooth="yes"/>
      <point x="200.0" y="1108.0" type="line"/>
    </contour>
  </outline>
</glyph>
<glyph name="three.sups" format="2">
  <advance width="1156.0"/>
  <unicode hex="00B3"/>
  <outline>
    <contour>
      <point x="624.0" y="1008.0" type="curve" smooth="yes"/>
      <point x="880.0" y="1008.0"/>
      <point x="1064.0" y="1156.0"/>
      <point x="1096.0" y="1348.0" type="curve" smooth="yes"/>
      <point x="1120.0" y="1500.0"/>
      <point x="1028.0" y="1620.0"/>
      <point x="856.0" y="1656.0" type="curve"/>
      <point x="856.0" y="1660.0" type="line"/>
      <point x="1016.0" y="1704.0"/>
      <point x="1128.0" y="1800.0"/>
      <point x="1152.0" y="1948.0" type="curve" smooth="yes"/>
      <point x="1184.0" y="2148.0"/>
      <point x="1040.0" y="2268.0"/>
      <point x="828.0" y="2268.0" type="curve" smooth="yes"/>
      <point x="612.0" y="2268.0"/>
      <point x="432.0" y="2136.0"/>
      <point x="400.0" y="1944.0" type="curve"/>
      <point x="460.0" y="1944.0" type="line"/>
      <point x="488.0" y="2104.0"/>
      <point x="652.0" y="2212.0"/>
      <point x="832.0" y="2212.0" type="curve" smooth="yes"/>
      <point x="1028.0" y="2212.0"/>
      <point x="1116.0" y="2092.0"/>
      <point x="1092.0" y="1956.0" type="curve" smooth="yes"/>
      <point x="1068.0" y="1800.0"/>
      <point x="912.0" y="1688.0"/>
      <point x="696.0" y="1688.0" type="curve" smooth="yes"/>
      <point x="664.0" y="1688.0" type="line"/>
      <point x="656.0" y="1628.0" type="line"/>
      <point x="692.0" y="1628.0" type="line" smooth="yes"/>
      <point x="924.0" y="1628.0"/>
      <point x="1060.0" y="1516.0"/>
      <point x="1032.0" y="1344.0" type="curve" smooth="yes"/>
      <point x="1008.0" y="1196.0"/>
      <point x="840.0" y="1068.0"/>
      <point x="628.0" y="1068.0" type="curve" smooth="yes"/>
      <point x="432.0" y="1068.0"/>
      <point x="304.0" y="1176.0"/>
      <point x="328.0" y="1332.0" type="curve"/>
      <point x="264.0" y="1332.0" type="line"/>
      <point x="236.0" y="1144.0"/>
      <point x="388.0" y="1008.0"/>
    </contour>
  </outline>
</glyph>
<glyph name="acute" format="2">
  <advance width="1400.0"/>
  <unicode hex="00B4"/>
  <outline>
    <contour>
      <point x="684.0" y="1760.0" type="line"/>
      <point x="748.0" y="1760.0" type="line"/>
      <point x="1116.0" y="2192.0" type="line"/>
      <point x="1036.0" y="2192.0" type="line"/>
    </contour>
  </outline>
</glyph>
<glyph name="micro" format="2">
  <advance width="1627.0"/>
  <unicode hex="00B5"/>
  <outline>
    <contour>
      <point x="32.0" y="-596.0" type="line"/>
      <point x="96.0" y="-596.0" type="line"/>
      <point x="240.0" y="240.0" type="line"/>
      <point x="252.0" y="240.0" type="line"/>
      <point x="323.0" y="49.0"/>
      <point x="491.0" y="-49.0"/>
      <point x="676.0" y="-48.0" type="curve" smooth="yes"/>
      <point x="865.0" y="-49.0"/>
      <point x="1066.0" y="49.0"/>
      <point x="1204.0" y="240.0" type="curve"/>
      <point x="1216.0" y="240.0" type="line"/>
      <point x="1176.0" y="0.0" type="line"/>
      <point x="1240.0" y="0.0" type="line"/>
      <point x="1496.0" y="1536.0" type="line"/>
      <point x="1448.0" y="1536.0" type="line"/>
      <point x="1292.0" y="604.0" type="line" smooth="yes"/>
      <point x="1240.0" y="291.0"/>
      <point x="1008.0" y="76.0"/>
      <point x="700.0" y="76.0" type="curve" smooth="yes"/>
      <point x="391.0" y="76.0"/>
      <point x="229.0" y="291.0"/>
      <point x="280.0" y="604.0" type="curve" smooth="yes"/>
      <point x="436.0" y="1536.0" type="line"/>
      <point x="392.0" y="1536.0" type="line"/>
    </contour>
  </outline>
</glyph>
<glyph name="paragraph" format="2">
  <advance width="1560.0"/>
  <unicode hex="00B6"/>
  <note>
aka PILCROW SIGN
</note>
  <outline>
    <contour>
      <point x="1440.0" y="1984.0" type="line"/>
      <point x="1452.0" y="2048.0" type="line"/>
      <point x="1084.0" y="2048.0" type="line" smooth="yes"/>
      <point x="648.0" y="2048.0"/>
      <point x="364.0" y="1772.0"/>
      <point x="300.0" y="1404.0" type="curve" smooth="yes"/>
      <point x="235.0" y="1033.0"/>
      <point x="436.0" y="760.0"/>
      <point x="872.0" y="760.0" type="curve" smooth="yes"/>
      <point x="988.0" y="760.0" type="line"/>
      <point x="1188.0" y="1984.0" type="line"/>
    </contour>
    <contour>
      <point x="1052.0" y="0.0" type="line"/>
      <point x="1116.0" y="0.0" type="line"/>
      <point x="1456.0" y="2048.0" type="line"/>
      <point x="1392.0" y="2048.0" type="line"/>
    </contour>
  </outline>
</glyph>
<glyph name="cedilla" format="2">
  <advance width="450.0"/>
  <unicode hex="00B8"/>
  <outline>
    <contour>
      <point x="4.0" y="8.0" type="line"/>
      <point x="-68.0" y="-180.0" type="line"/>
      <point x="102.0" y="-188.0"/>
      <point x="165.0" y="-198.0"/>
      <point x="148.0" y="-300.0" type="curve" smooth="yes"/>
      <point x="135.0" y="-398.0"/>
      <point x="49.0" y="-430.0"/>
      <point x="-32.0" y="-432.0" type="curve"/>
      <point x="-44.0" y="-552.0" type="line"/>
      <point x="174.0" y="-552.0"/>
      <point x="287.0" y="-439.0"/>
      <point x="312.0" y="-296.0" type="curve" smooth="yes"/>
      <point x="343.0" y="-121.0"/>
      <point x="244.0" y="-76.0"/>
      <point x="168.0" y="-64.0" type="curve"/>
      <point x="200.0" y="8.0" type="line"/>
    </contour>
  </outline>
</glyph>
<glyph name="one.sups" format="2">
  <advance width="768.0"/>
  <unicode hex="00B9"/>
  <outline>
    <contour>
      <point x="732.0" y="2252.0" type="line"/>
      <point x="676.0" y="2252.0" type="line"/>
      <point x="664.0" y="2240.0"/>
      <point x="532.0" y="2068.0"/>
      <point x="344.0" y="2064.0" type="curve"/>
      <point x="336.0" y="2004.0" type="line"/>
      <point x="492.0" y="2008.0"/>
      <point x="616.0" y="2112.0"/>
      <point x="640.0" y="2136.0" type="curve"/>
      <point x="652.0" y="2136.0" type="line"/>
      <point x="468.0" y="1024.0" type="line"/>
      <point x="528.0" y="1024.0" type="line"/>
    </contour>
  </outline>
</glyph>
<glyph name="ordmasculine" format="2">
  <advance width="1163.0"/>
  <unicode hex="00BA"/>
  <outline>
    <contour>
      <point x="232.0" y="1436.0" type="line"/>
      <point x="184.0" y="1152.0"/>
      <point x="334.0" y="954.0"/>
      <point x="620.0" y="956.0" type="curve" smooth="yes"/>
      <point x="902.0" y="954.0"/>
      <point x="1107.0" y="1152.0"/>
      <point x="1156.0" y="1436.0" type="curve"/>
      <point x="1172.0" y="1548.0" type="line"/>
      <point x="1219.0" y="1828.0"/>
      <point x="1078.0" y="2032.0"/>
      <point x="792.0" y="2032.0" type="curve" smooth="yes"/>
      <point x="505.0" y="2032.0"/>
      <point x="296.0" y="1828.0"/>
      <point x="248.0" y="1548.0" type="curve"/>
    </contour>
    <contour>
      <point x="480.0" y="1548.0" type="line"/>
      <point x="509.0" y="1706.0"/>
      <point x="606.0" y="1828.0"/>
      <point x="760.0" y="1828.0" type="curve" smooth="yes"/>
      <point x="913.0" y="1828.0"/>
      <point x="966.0" y="1706.0"/>
      <point x="940.0" y="1548.0" type="curve"/>
      <point x="924.0" y="1436.0" type="line"/>
      <point x="894.0" y="1272.0"/>
      <point x="801.0" y="1152.0"/>
      <point x="652.0" y="1152.0" type="curve" smooth="yes"/>
      <point x="494.0" y="1152.0"/>
      <point x="437.0" y="1272.0"/>
      <point x="464.0" y="1436.0" type="curve"/>
    </contour>
  </outline>
</glyph>
<glyph name="AE" format="2">
  <advance width="2700.0"/>
  <unicode hex="00C6"/>
  <outline>
    <contour>
      <point x="-36.0" y="0.0" type="line"/>
      <point x="40.0" y="0.0" type="line"/>
      <point x="1380.0" y="1984.0" type="line"/>
      <point x="1576.0" y="1984.0" type="line"/>
      <point x="1248.0" y="0.0" type="line"/>
      <point x="2368.0" y="0.0" type="line"/>
      <point x="2380.0" y="64.0" type="line"/>
      <point x="1324.0" y="64.0" type="line"/>
      <point x="1476.0" y="992.0" type="line"/>
      <point x="2444.0" y="992.0" type="line"/>
      <point x="2456.0" y="1056.0" type="line"/>
      <point x="1488.0" y="1056.0" type="line"/>
      <point x="1640.0" y="1984.0" type="line"/>
      <point x="2668.0" y="1984.0" type="line"/>
      <point x="2680.0" y="2048.0" type="line"/>
      <point x="1348.0" y="2048.0" type="line"/>
    </contour>
    <contour>
      <point x="480.0" y="692.0" type="line"/>
      <point x="1400.0" y="692.0" type="line"/>
      <point x="1412.0" y="756.0" type="line"/>
      <point x="492.0" y="756.0" type="line"/>
    </contour>
  </outline>
</glyph>
<glyph name="multiply" format="2">
  <advance width="1792.0"/>
  <unicode hex="00D7"/>
  <outline>
    <contour>
      <point x="1347.0" y="216.0" type="line"/>
      <point x="1397.0" y="256.0" type="line"/>
      <point x="457.0" y="1384.0" type="line"/>
      <point x="407.0" y="1344.0" type="line"/>
    </contour>
    <contour>
      <point x="265.0" y="212.0" type="line"/>
      <point x="1581.0" y="1340.0" type="line"/>
      <point x="1539.0" y="1388.0" type="line"/>
      <point x="223.0" y="260.0" type="line"/>
    </contour>
  </outline>
</glyph>
<glyph name="Oslash" format="2">
  <advance width="2093.0"/>
  <unicode hex="00D8"/>
  <outline>
    <contour>
      <point x="564.0" y="-72.0" type="line"/>
      <point x="1736.0" y="2040.0" type="line"/>
      <point x="1612.0" y="2116.0" type="line"/>
      <point x="440.0" y="8.0" type="line"/>
    </contour>
    <component base="O" yOffset="-8.0"/>
  </outline>
</glyph>
<glyph name="Thorn" format="2">
  <advance width="1663.0"/>
  <unicode hex="00DE"/>
  <outline>
    <contour>
      <point x="504.0" y="2048.0" type="line"/>
      <point x="164.0" y="0.0" type="line"/>
      <point x="224.0" y="0.0" type="line"/>
      <point x="564.0" y="2048.0" type="line"/>
    </contour>
    <contour>
      <point x="452.0" y="1576.0" type="line"/>
      <point x="436.0" y="1472.0" type="line"/>
      <point x="960.0" y="1472.0" type="line" smooth="yes"/>
      <point x="1281.0" y="1471.0"/>
      <point x="1470.0" y="1326.0"/>
      <point x="1416.0" y="1024.0" type="curve" smooth="yes"/>
      <point x="1363.0" y="716.0"/>
      <point x="1137.0" y="582.0"/>
      <point x="816.0" y="584.0" type="curve" smooth="yes"/>
      <point x="292.0" y="584.0" type="line"/>
      <point x="276.0" y="476.0" type="line"/>
      <point x="800.0" y="476.0" type="line" smooth="yes"/>
      <point x="1176.0" y="474.0"/>
      <point x="1429.0" y="738.0"/>
      <point x="1476.0" y="1028.0" type="curve" smooth="yes"/>
      <point x="1525.0" y="1314.0"/>
      <point x="1354.0" y="1576.0"/>
      <point x="976.0" y="1576.0" type="curve" smooth="yes"/>
    </contour>
  </outline>
</glyph>
<glyph name="germandbls" format="2">
  <advance width="1562.0"/>
  <unicode hex="00DF"/>
  <outline>
    <contour>
      <point x="192.0" y="0.0" type="line"/>
      <point x="236.0" y="0.0" type="line"/>
      <point x="500.0" y="1604.0" type="line" smooth="yes"/>
      <point x="537.0" y="1829.0"/>
      <point x="750.0" y="1993.0"/>
      <point x="992.0" y="1992.0" type="curve" smooth="yes"/>
      <point x="1257.0" y="1993.0"/>
      <point x="1391.0" y="1799.0"/>
      <point x="1356.0" y="1564.0" type="curve" smooth="yes"/>
      <point x="1317.0" y="1334.0"/>
      <point x="1120.0" y="1102.0"/>
      <point x="864.0" y="1104.0" type="curve" smooth="yes"/>
      <point x="712.0" y="1104.0" type="line"/>
      <point x="692.0" y="988.0" type="line"/>
      <point x="896.0" y="988.0" type="line" smooth="yes"/>
      <point x="1174.0" y="986.0"/>
      <point x="1321.0" y="785.0"/>
      <point x="1280.0" y="524.0" type="curve" smooth="yes"/>
      <point x="1240.0" y="274.0"/>
      <point x="1043.0" y="93.0"/>
      <point x="788.0" y="92.0" type="curve" smooth="yes"/>
      <point x="536.0" y="92.0" type="line"/>
      <point x="520.0" y="0.0" type="line"/>
      <point x="700.0" y="0.0" type="line" smooth="yes"/>
      <point x="1030.0" y="0.0"/>
      <point x="1280.0" y="265.0"/>
      <point x="1328.0" y="564.0" type="curve" smooth="yes"/>
      <point x="1375.0" y="853.0"/>
      <point x="1202.0" y="1018.0"/>
      <point x="952.0" y="1052.0" type="curve"/>
      <point x="956.0" y="1072.0" type="line"/>
      <point x="1170.0" y="1152.0"/>
      <point x="1352.0" y="1302.0"/>
      <point x="1392.0" y="1576.0" type="curve" smooth="yes"/>
      <point x="1430.0" y="1867.0"/>
      <point x="1296.0" y="2076.0"/>
      <point x="1012.0" y="2076.0" type="curve" smooth="yes"/>
      <point x="744.0" y="2076.0"/>
      <point x="499.0" y="1873.0"/>
      <point x="444.0" y="1540.0" type="curve" smooth="yes"/>
    </contour>
  </outline>
</glyph>
<glyph name="ae" format="2">
  <advance width="2596.0"/>
  <unicode hex="00E6"/>
  <outline>
    <contour>
      <point x="1688.0" y="-32.0" type="curve" smooth="yes"/>
      <point x="1988.0" y="-32.0"/>
      <point x="2184.0" y="156.0"/>
      <point x="2268.0" y="272.0" type="curve"/>
      <point x="2224.0" y="308.0" type="line"/>
      <point x="2152.0" y="216.0"/>
      <point x="1984.0" y="32.0"/>
      <point x="1700.0" y="32.0" type="curve" smooth="yes"/>
      <point x="1312.0" y="32.0"/>
      <point x="1148.0" y="368.0"/>
      <point x="1216.0" y="772.0" type="curve" smooth="yes"/>
      <point x="1216.0" y="780.0" type="line" smooth="yes"/>
      <point x="1292.0" y="1188.0"/>
      <point x="1592.0" y="1496.0"/>
      <point x="1908.0" y="1496.0" type="curve" smooth="yes"/>
      <point x="2220.0" y="1496.0"/>
      <point x="2424.0" y="1200.0"/>
      <point x="2364.0" y="832.0" type="curve"/>
      <point x="1208.0" y="832.0" type="line"/>
      <point x="1196.0" y="768.0" type="line"/>
      <point x="2416.0" y="768.0" type="line"/>
      <point x="2428.0" y="832.0" type="line" smooth="yes"/>
      <point x="2492.0" y="1228.0"/>
      <point x="2276.0" y="1560.0"/>
      <point x="1920.0" y="1560.0" type="curve" smooth="yes"/>
      <point x="1660.0" y="1560.0"/>
      <point x="1420.0" y="1388.0"/>
      <point x="1276.0" y="1124.0" type="curve"/>
      <point x="1144.0" y="460.0" type="line"/>
      <point x="1188.0" y="168.0"/>
      <point x="1380.0" y="-32.0"/>
    </contour>
    <contour>
      <point x="536.0" y="32.0" type="curve" smooth="yes"/>
      <point x="308.0" y="32.0"/>
      <point x="156.0" y="184.0"/>
      <point x="192.0" y="416.0" type="curve" smooth="yes"/>
      <point x="228.0" y="612.0"/>
      <point x="376.0" y="736.0"/>
      <point x="796.0" y="784.0" type="curve" smooth="yes"/>
      <point x="972.0" y="804.0"/>
      <point x="1116.0" y="832.0"/>
      <point x="1200.0" y="888.0" type="curve"/>
      <point x="1160.0" y="656.0" type="line" smooth="yes"/>
      <point x="1100.0" y="284.0"/>
      <point x="828.0" y="32.0"/>
    </contour>
    <contour>
      <point x="524.0" y="-32.0" type="curve" smooth="yes"/>
      <point x="756.0" y="-32.0"/>
      <point x="1032.0" y="112.0"/>
      <point x="1184.0" y="480.0" type="curve"/>
      <point x="1196.0" y="480.0" type="line"/>
      <point x="1300.0" y="1104.0" type="line" smooth="yes"/>
      <point x="1344.0" y="1364.0"/>
      <point x="1188.0" y="1560.0"/>
      <point x="876.0" y="1560.0" type="curve" smooth="yes"/>
      <point x="636.0" y="1560.0"/>
      <point x="416.0" y="1440.0"/>
      <point x="312.0" y="1248.0" type="curve"/>
      <point x="368.0" y="1224.0" type="line"/>
      <point x="460.0" y="1396.0"/>
      <point x="648.0" y="1496.0"/>
      <point x="864.0" y="1496.0" type="curve" smooth="yes"/>
      <point x="1128.0" y="1496.0"/>
      <point x="1276.0" y="1340.0"/>
      <point x="1236.0" y="1104.0" type="curve" smooth="yes"/>
      <point x="1220.0" y="1012.0" type="line" smooth="yes"/>
      <point x="1200.0" y="892.0"/>
      <point x="996.0" y="868.0"/>
      <point x="780.0" y="844.0" type="curve" smooth="yes"/>
      <point x="300.0" y="788.0"/>
      <point x="164.0" y="624.0"/>
      <point x="128.0" y="416.0" type="curve" smooth="yes"/>
      <point x="84.0" y="128.0"/>
      <point x="272.0" y="-32.0"/>
    </contour>
  </outline>
</glyph>
<glyph name="eth" format="2">
  <advance width="1654.0"/>
  <unicode hex="00F0"/>
  <outline>
    <contour>
      <point x="1588.0" y="2020.0" type="line"/>
      <point x="1580.0" y="2100.0" type="line"/>
      <point x="740.0" y="1744.0" type="line"/>
      <point x="744.0" y="1664.0" type="line"/>
    </contour>
    <contour>
      <point x="696.0" y="-32.0" type="curve" smooth="yes"/>
      <point x="1088.0" y="-32.0"/>
      <point x="1394.0" y="256.0"/>
      <point x="1476.0" y="752.0" type="curve" smooth="yes"/>
      <point x="1590.0" y="1454.0"/>
      <point x="1209.0" y="1944.0"/>
      <point x="812.0" y="2176.0" type="curve"/>
      <point x="780.0" y="2108.0" type="line"/>
      <point x="1314.0" y="1822.0"/>
      <point x="1470.0" y="1308.0"/>
      <point x="1472.0" y="1048.0" type="curve"/>
      <point x="1452.0" y="1048.0" type="line"/>
      <point x="1422.0" y="1192.0"/>
      <point x="1321.0" y="1438.0"/>
      <point x="1004.0" y="1456.0" type="curve" smooth="yes"/>
      <point x="590.0" y="1502.0"/>
      <point x="238.0" y="1159.0"/>
      <point x="164.0" y="704.0" type="curve" smooth="yes"/>
      <point x="95.0" y="276.0"/>
      <point x="294.0" y="-32.0"/>
    </contour>
    <contour>
      <point x="696.0" y="60.0" type="curve" smooth="yes"/>
      <point x="273.0" y="60.0"/>
      <point x="182.0" y="425.0"/>
      <point x="228.0" y="704.0" type="curve" smooth="yes"/>
      <point x="279.0" y="1004.0"/>
      <point x="518.0" y="1378.0"/>
      <point x="916.0" y="1380.0" type="curve" smooth="yes"/>
      <point x="1356.0" y="1378.0"/>
      <point x="1418.0" y="922.0"/>
      <point x="1380.0" y="672.0" type="curve" smooth="yes"/>
      <point x="1330.0" y="370.0"/>
      <point x="1089.0" y="60.0"/>
    </contour>
  </outline>
</glyph>
<glyph name="divide" format="2">
  <advance width="1792.0"/>
  <unicode hex="00F7"/>
  <outline>
    <contour>
      <point x="1488.0" y="832.0" type="line"/>
      <point x="328.0" y="832.0" type="line"/>
      <point x="316.0" y="768.0" type="line"/>
      <point x="1476.0" y="768.0" type="line"/>
    </contour>
    <contour>
      <point x="824.0" y="272.0" type="curve" smooth="yes"/>
      <point x="864.0" y="272.0"/>
      <point x="896.0" y="304.0"/>
      <point x="896.0" y="344.0" type="curve" smooth="yes"/>
      <point x="896.0" y="384.0"/>
      <point x="864.0" y="416.0"/>
      <point x="824.0" y="416.0" type="curve" smooth="yes"/>
      <point x="784.0" y="416.0"/>
      <point x="752.0" y="384.0"/>
      <point x="752.0" y="344.0" type="curve" smooth="yes"/>
      <point x="752.0" y="304.0"/>
      <point x="784.0" y="272.0"/>
    </contour>
    <contour>
      <point x="976.0" y="1184.0" type="curve" smooth="yes"/>
      <point x="1016.0" y="1184.0"/>
      <point x="1048.0" y="1216.0"/>
      <point x="1048.0" y="1256.0" type="curve" smooth="yes"/>
      <point x="1048.0" y="1296.0"/>
      <point x="1016.0" y="1328.0"/>
      <point x="976.0" y="1328.0" type="curve" smooth="yes"/>
      <point x="936.0" y="1328.0"/>
      <point x="904.0" y="1296.0"/>
      <point x="904.0" y="1256.0" type="curve" smooth="yes"/>
      <point x="904.0" y="1216.0"/>
      <point x="936.0" y="1184.0"/>
    </contour>
  </outline>
</glyph>
<glyph name="oslash" format="2">
  <advance width="1632.0"/>
  <unicode hex="00F8"/>
  <outline>
    <contour>
      <point x="180.0" y="-40.0" type="line"/>
      <point x="1504.0" y="1540.0" type="line"/>
      <point x="1452.0" y="1576.0" type="line"/>
      <point x="128.0" y="-4.0" type="line"/>
    </contour>
    <component base="o" yOffset="4.0"/>
  </outline>
</glyph>
<glyph name="thorn" format="2">
  <advance width="1706.0"/>
  <unicode hex="00FE"/>
  <outline>
    <contour>
      <point x="476.0" y="2048.0" type="line"/>
      <point x="40.0" y="-576.0" type="line"/>
      <point x="84.0" y="-576.0" type="line"/>
      <point x="228.0" y="276.0" type="line"/>
      <point x="348.0" y="820.0" type="line"/>
      <point x="364.0" y="1088.0" type="line"/>
      <point x="520.0" y="2048.0" type="line"/>
    </contour>
    <contour>
      <point x="364.0" y="1224.0" type="line"/>
      <point x="212.0" y="304.0" type="line"/>
      <point x="256.0" y="304.0" type="line"/>
      <point x="296.0" y="246.0"/>
      <point x="321.0" y="-39.0"/>
      <point x="720.0" y="-40.0" type="curve" smooth="yes"/>
      <point x="1140.0" y="-39.0"/>
      <point x="1455.0" y="302.0"/>
      <point x="1532.0" y="764.0" type="curve" smooth="yes"/>
      <point x="1603.0" y="1202.0"/>
      <point x="1416.0" y="1556.0"/>
      <point x="976.0" y="1556.0" type="curve" smooth="yes"/>
      <point x="577.0" y="1556.0"/>
      <point x="467.0" y="1278.0"/>
      <point x="408.0" y="1224.0" type="curve"/>
    </contour>
    <contour>
      <point x="1464.0" y="768.0" type="curve" smooth="yes"/>
      <point x="1397.0" y="390.0"/>
      <point x="1155.0" y="46.0"/>
      <point x="788.0" y="48.0" type="curve" smooth="yes"/>
      <point x="455.0" y="46.0"/>
      <point x="271.0" y="322.0"/>
      <point x="344.0" y="768.0" type="curve" smooth="yes"/>
      <point x="412.0" y="1203.0"/>
      <point x="679.0" y="1471.0"/>
      <point x="1024.0" y="1472.0" type="curve" smooth="yes"/>
      <point x="1396.0" y="1471.0"/>
      <point x="1522.0" y="1140.0"/>
    </contour>
  </outline>
</glyph>
<glyph name="Hbar" format="2">
  <advance width="2094.0"/>
  <unicode hex="0126"/>
  <outline>
    <contour>
      <point x="2052.0" y="1540.0" type="line"/>
      <point x="300.0" y="1540.0" type="line"/>
      <point x="276.0" y="1364.0" type="line"/>
      <point x="2028.0" y="1364.0" type="line"/>
    </contour>
    <component base="H" xOffset="16.0"/>
  </outline>
</glyph>
<glyph name="idotless" format="2">
  <advance width="624.0"/>
  <unicode hex="0131"/>
  <outline>
    <contour>
      <point x="152.0" y="0.0" type="line"/>
      <point x="216.0" y="0.0" type="line"/>
      <point x="472.0" y="1536.0" type="line"/>
      <point x="408.0" y="1536.0" type="line"/>
    </contour>
  </outline>
</glyph>
<glyph name="kgreenlandic" format="2">
  <advance width="1663.0"/>
  <unicode hex="0138"/>
  <outline>
    <contour>
      <point x="528.0" y="1488.0" type="line"/>
      <point x="400.0" y="1488.0" type="line"/>
      <point x="152.0" y="0.0" type="line"/>
      <point x="280.0" y="0.0" type="line"/>
    </contour>
    <contour>
      <point x="1440.0" y="1488.0" type="line"/>
      <point x="1308.0" y="1488.0" type="line"/>
      <point x="512.0" y="792.0" type="line"/>
      <point x="264.0" y="792.0" type="line"/>
      <point x="288.0" y="720.0" type="line"/>
      <point x="532.0" y="720.0" type="line"/>
    </contour>
    <contour>
      <point x="1100.0" y="0.0" type="line"/>
      <point x="1256.0" y="0.0" type="line"/>
      <point x="504.0" y="916.0" type="line"/>
      <point x="484.0" y="720.0" type="line"/>
    </contour>
  </outline>
</glyph>
<glyph name="lslash" format="2">
  <advance width="570.0"/>
  <unicode hex="0142"/>
  <outline>
    <contour>
      <point x="632.0" y="1228.0" type="line"/>
      <point x="52.0" y="976.0" type="line"/>
      <point x="24.0" y="860.0" type="line"/>
      <point x="616.0" y="1112.0" type="line"/>
    </contour>
    <component base="l"/>
  </outline>
</glyph>
<glyph name="Eng" format="2">
  <advance width="2170.0"/>
  <unicode hex="014A"/>
  <outline>
    <contour>
      <point x="1620.0" y="0.0" type="line"/>
      <point x="1572.0" y="-232.0" type="line" smooth="yes"/>
      <point x="1531.0" y="-419.0"/>
      <point x="1434.0" y="-457.0"/>
      <point x="1320.0" y="-456.0" type="curve" smooth="yes"/>
      <point x="1314.0" y="-457.0"/>
      <point x="1312.0" y="-455.0"/>
      <point x="1312.0" y="-456.0" type="curve"/>
      <point x="1300.0" y="-544.0" type="line"/>
      <point x="1322.0" y="-552.0"/>
      <point x="1367.0" y="-545.0"/>
      <point x="1416.0" y="-544.0" type="curve" smooth="yes"/>
      <point x="1500.0" y="-545.0"/>
      <point x="1635.0" y="-382.0"/>
      <point x="1676.0" y="-248.0" type="curve" smooth="yes"/>
      <point x="1724.0" y="0.0" type="line"/>
    </contour>
    <component base="N"/>
  </outline>
</glyph>
<glyph name="eng" format="2">
  <advance width="1526.0"/>
  <unicode hex="014B"/>
  <outline>
    <contour>
      <point x="1104.0" y="0.0" type="line"/>
      <point x="1060.0" y="-252.0" type="line" smooth="yes"/>
      <point x="1028.0" y="-445.0"/>
      <point x="900.0" y="-497.0"/>
      <point x="760.0" y="-496.0" type="curve" smooth="yes"/>
      <point x="751.0" y="-497.0"/>
      <point x="735.0" y="-495.0"/>
      <point x="732.0" y="-496.0" type="curve"/>
      <point x="752.0" y="-552.0" type="line"/>
      <point x="751.0" y="-559.0"/>
      <point x="784.0" y="-557.0"/>
      <point x="808.0" y="-556.0" type="curve" smooth="yes"/>
      <point x="926.0" y="-557.0"/>
      <point x="1100.0" y="-408.0"/>
      <point x="1112.0" y="-236.0" type="curve" smooth="yes"/>
      <point x="1148.0" y="0.0" type="line"/>
    </contour>
    <component base="n"/>
  </outline>
</glyph>
<glyph name="OE" format="2">
  <advance width="2588.0"/>
  <unicode hex="0152"/>
  <note>
!post:RemoveOverlap
</note>
  <outline>
    <contour>
      <point x="916.0" y="0.0" type="curve" smooth="yes"/>
      <point x="1168.0" y="0.0" type="line"/>
      <point x="1180.0" y="64.0" type="line"/>
      <point x="928.0" y="64.0" type="line" smooth="yes"/>
      <point x="447.0" y="64.0"/>
      <point x="206.0" y="446.0"/>
      <point x="304.0" y="1024.0" type="curve" smooth="yes"/>
      <point x="401.0" y="1597.0"/>
      <point x="782.0" y="1988.0"/>
      <point x="1244.0" y="1984.0" type="curve" smooth="yes"/>
      <point x="1496.0" y="1984.0" type="line"/>
      <point x="1508.0" y="2048.0" type="line"/>
      <point x="1256.0" y="2048.0" type="line" smooth="yes"/>
      <point x="744.0" y="2048.0"/>
      <point x="342.0" y="1642.0"/>
      <point x="240.0" y="1024.0" type="curve" smooth="yes"/>
      <point x="140.0" y="416.0"/>
      <point x="412.0" y="0.0"/>
    </contour>
    <component base="E" xOffset="944.0"/>
  </outline>
</glyph>
<glyph name="tbar" format="2">
  <advance width="980.0"/>
  <unicode hex="0167"/>
  <outline>
    <contour>
      <point x="144.0" y="912.0" type="line"/>
      <point x="812.0" y="912.0" type="line"/>
      <point x="840.0" y="1076.0" type="line"/>
      <point x="176.0" y="1076.0" type="line"/>
    </contour>
    <component base="t"/>
  </outline>
</glyph>
<glyph name="longs" format="2">
  <advance width="690.0"/>
  <unicode hex="017F"/>
  <outline>
    <contour>
      <point x="72.0" y="0.0" type="line"/>
      <point x="352.0" y="1668.0" type="line"/>
      <point x="385.0" y="1893.0"/>
      <point x="509.0" y="2035.0"/>
      <point x="696.0" y="2036.0" type="curve" smooth="yes"/>
      <point x="729.0" y="2035.0"/>
      <point x="776.0" y="2031.0"/>
      <point x="796.0" y="2024.0" type="curve"/>
      <point x="844.0" y="2112.0" type="line"/>
      <point x="791.0" y="2128.0"/>
      <point x="734.0" y="2140.0"/>
      <point x="680.0" y="2140.0" type="curve" smooth="yes"/>
      <point x="449.0" y="2140.0"/>
      <point x="268.0" y="1971.0"/>
      <point x="220.0" y="1668.0" type="curve"/>
      <point x="-56.0" y="0.0" type="line"/>
    </contour>
  </outline>
</glyph>
<glyph name="Bhook" format="2">
  <advance width="2082.0"/>
  <unicode hex="0181"/>
  <outline>
    <contour>
      <point x="704.0" y="1964.0" type="line"/>
      <point x="720.0" y="2048.0" type="line"/>
      <point x="616.0" y="2048.0" type="line" smooth="yes"/>
      <point x="453.0" y="2048.0"/>
      <point x="353.0" y="1887.0"/>
      <point x="340.0" y="1760.0" type="curve" smooth="yes"/>
      <point x="332.0" y="1688.0" type="line"/>
      <point x="408.0" y="1688.0" type="line"/>
      <point x="412.0" y="1724.0" type="line" smooth="yes"/>
      <point x="433.0" y="1854.0"/>
      <point x="456.0" y="1962.0"/>
      <point x="608.0" y="1964.0" type="curve" smooth="yes"/>
    </contour>
    <component base="B" xOffset="280.0"/>
  </outline>
</glyph>
<glyph name="Btopbar" format="2">
  <advance width="1835.0"/>
  <unicode hex="0182"/>
  <outline>
    <contour>
      <point x="192.0" y="0.0" type="line"/>
      <point x="960.0" y="0.0" type="line" smooth="yes"/>
      <point x="1355.0" y="0.0"/>
      <point x="1571.0" y="229.0"/>
      <point x="1624.0" y="556.0" type="curve" smooth="yes"/>
      <point x="1679.0" y="878.0"/>
      <point x="1536.0" y="1085.0"/>
      <point x="1136.0" y="1084.0" type="curve" smooth="yes"/>
      <point x="432.0" y="1084.0" type="line"/>
      <point x="580.0" y="1964.0" type="line"/>
      <point x="1632.0" y="1964.0" type="line"/>
      <point x="1644.0" y="2048.0" type="line"/>
      <point x="532.0" y="2048.0" type="line"/>
    </contour>
    <contour>
      <point x="268.0" y="84.0" type="line"/>
      <point x="416.0" y="988.0" type="line"/>
      <point x="1124.0" y="988.0" type="line" smooth="yes"/>
      <point x="1452.0" y="987.0"/>
      <point x="1604.0" y="787.0"/>
      <point x="1564.0" y="560.0" type="curve" smooth="yes"/>
      <point x="1527.0" y="326.0"/>
      <point x="1303.0" y="84.0"/>
      <point x="976.0" y="84.0" type="curve" smooth="yes"/>
    </contour>
  </outline>
</glyph>
<glyph name="Tonesix" format="2">
  <advance width="1815.0"/>
  <unicode hex="0184"/>
  <outline>
    <contour>
      <point x="836.0" y="2048.0" type="line"/>
      <point x="232.0" y="2048.0" type="line"/>
      <point x="220.0" y="1964.0" type="line"/>
      <point x="824.0" y="1964.0" type="line"/>
    </contour>
    <contour>
      <point x="628.0" y="1084.0" type="line"/>
      <point x="612.0" y="988.0" type="line"/>
      <point x="1292.0" y="988.0" type="line"/>
      <point x="1620.0" y="987.0"/>
      <point x="1769.0" y="787.0"/>
      <point x="1732.0" y="560.0" type="curve"/>
      <point x="1696.0" y="326.0"/>
      <point x="1472.0" y="84.0"/>
      <point x="1144.0" y="84.0" type="curve"/>
      <point x="436.0" y="84.0" type="line"/>
      <point x="764.0" y="2048.0" type="line"/>
      <point x="700.0" y="2048.0" type="line"/>
      <point x="360.0" y="0.0" type="line"/>
      <point x="1128.0" y="0.0" type="line"/>
      <point x="1524.0" y="0.0"/>
      <point x="1737.0" y="229.0"/>
      <point x="1792.0" y="556.0" type="curve"/>
      <point x="1847.0" y="878.0"/>
      <point x="1701.0" y="1085.0"/>
      <point x="1308.0" y="1084.0" type="curve"/>
    </contour>
  </outline>
</glyph>
<glyph name="tonesix" format="2">
  <advance width="1670.0"/>
  <unicode hex="0185"/>
  <outline>
    <contour>
      <point x="508.0" y="2112.0" type="line"/>
      <point x="268.0" y="1788.0" type="line"/>
      <point x="264.0" y="1768.0" type="line"/>
      <point x="396.0" y="1440.0" type="line"/>
      <point x="456.0" y="1440.0" type="line"/>
      <point x="568.0" y="2112.0" type="line"/>
    </contour>
    <contour>
      <point x="432.0" y="1224.0" type="line"/>
      <point x="280.0" y="304.0" type="line"/>
      <point x="324.0" y="304.0" type="line"/>
      <point x="368.0" y="243.0"/>
      <point x="397.0" y="-39.0"/>
      <point x="788.0" y="-40.0" type="curve" smooth="yes"/>
      <point x="1209.0" y="-39.0"/>
      <point x="1524.0" y="302.0"/>
      <point x="1600.0" y="764.0" type="curve" smooth="yes"/>
      <point x="1672.0" y="1202.0"/>
      <point x="1485.0" y="1556.0"/>
      <point x="1044.0" y="1556.0" type="curve" smooth="yes"/>
      <point x="629.0" y="1556.0"/>
      <point x="532.0" y="1271.0"/>
      <point x="476.0" y="1224.0" type="curve"/>
    </contour>
    <contour>
      <point x="1532.0" y="768.0" type="curve" smooth="yes"/>
      <point x="1466.0" y="387.0"/>
      <point x="1224.0" y="46.0"/>
      <point x="856.0" y="48.0" type="curve" smooth="yes"/>
      <point x="524.0" y="46.0"/>
      <point x="340.0" y="322.0"/>
      <point x="412.0" y="768.0" type="curve" smooth="yes"/>
      <point x="481.0" y="1206.0"/>
      <point x="750.0" y="1471.0"/>
      <point x="1092.0" y="1472.0" type="curve" smooth="yes"/>
      <point x="1465.0" y="1471.0"/>
      <point x="1591.0" y="1142.0"/>
    </contour>
    <contour>
      <point x="540.0" y="2048.0" type="line"/>
      <point x="200.0" y="0.0" type="line"/>
      <point x="236.0" y="0.0" type="line"/>
      <point x="284.0" y="276.0" type="line"/>
      <point x="380.0" y="820.0" type="line"/>
      <point x="428.0" y="1088.0" type="line"/>
      <point x="588.0" y="2048.0" type="line"/>
    </contour>
  </outline>
</glyph>
<glyph name="Oopen" format="2">
  <advance width="1978.0"/>
  <unicode hex="0186"/>
  <outline>
    <contour>
      <point x="812.0" y="-28.0" type="curve" smooth="yes"/>
      <point x="1304.0" y="-28.0"/>
      <point x="1721.0" y="386.0"/>
      <point x="1828.0" y="1004.0" type="curve"/>
      <point x="1925.0" y="1638.0"/>
      <point x="1643.0" y="2076.0"/>
      <point x="1124.0" y="2076.0" type="curve" smooth="yes"/>
      <point x="786.0" y="2076.0"/>
      <point x="443.0" y="1852.0"/>
      <point x="284.0" y="1484.0" type="curve"/>
      <point x="348.0" y="1484.0" type="line"/>
      <point x="491.0" y="1826.0"/>
      <point x="847.0" y="1995.0"/>
      <point x="1160.0" y="1996.0" type="curve" smooth="yes"/>
      <point x="1582.0" y="1995.0"/>
      <point x="1893.0" y="1671.0"/>
      <point x="1792.0" y="1044.0" type="curve"/>
      <point x="1685.0" y="408.0"/>
      <point x="1245.0" y="53.0"/>
      <point x="800.0" y="52.0" type="curve" smooth="yes"/>
      <point x="498.0" y="53.0"/>
      <point x="220.0" y="229.0"/>
      <point x="200.0" y="580.0" type="curve"/>
      <point x="140.0" y="580.0" type="line"/>
      <point x="164.0" y="117.0"/>
      <point x="505.0" y="-28.0"/>
    </contour>
  </outline>
</glyph>
<glyph name="Chook" format="2">
  <advance width="1990.0"/>
  <unicode hex="0187"/>
  <outline>
    <contour>
      <point x="1928.0" y="1484.0" type="line"/>
      <point x="1988.0" y="1824.0" type="line" smooth="yes"/>
      <point x="2012.0" y="1951.0"/>
      <point x="2055.0" y="1985.0"/>
      <point x="2180.0" y="1984.0" type="curve"/>
      <point x="2206.0" y="1985.0"/>
      <point x="2203.0" y="1981.0"/>
      <point x="2212.0" y="1976.0" type="curve"/>
      <point x="2220.0" y="2032.0" type="line"/>
      <point x="2220.0" y="2042.0"/>
      <point x="2178.0" y="2042.0"/>
      <point x="2156.0" y="2044.0" type="curve" smooth="yes"/>
      <point x="2031.0" y="2042.0"/>
      <point x="1954.0" y="1939.0"/>
      <point x="1920.0" y="1772.0" type="curve" smooth="yes"/>
      <point x="1872.0" y="1484.0" type="line"/>
    </contour>
    <component base="C"/>
  </outline>
</glyph>
<glyph name="chook" format="2">
  <advance width="1628.0"/>
  <unicode hex="0188"/>
  <outline>
    <contour>
      <point x="1408.0" y="1184.0" type="line"/>
      <point x="1420.0" y="1260.0" type="line" smooth="yes"/>
      <point x="1452.0" y="1444.0"/>
      <point x="1592.0" y="1616.0"/>
      <point x="1744.0" y="1616.0" type="curve" smooth="yes"/>
      <point x="1764.0" y="1616.0"/>
      <point x="1780.0" y="1616.0"/>
      <point x="1800.0" y="1616.0" type="curve"/>
      <point x="1812.0" y="1680.0" type="line"/>
      <point x="1792.0" y="1680.0"/>
      <point x="1756.0" y="1680.0"/>
      <point x="1756.0" y="1680.0" type="curve" smooth="yes"/>
      <point x="1548.0" y="1680.0"/>
      <point x="1392.0" y="1460.0"/>
      <point x="1356.0" y="1260.0" type="curve" smooth="yes"/>
      <point x="1344.0" y="1184.0" type="line"/>
    </contour>
    <component base="c"/>
  </outline>
</glyph>
<glyph name="Dhook" format="2">
  <advance width="2302.0"/>
  <unicode hex="018A"/>
  <outline>
    <contour>
      <point x="332.0" y="1688.0" type="line"/>
      <point x="408.0" y="1688.0" type="line"/>
      <point x="412.0" y="1724.0" type="line" smooth="yes"/>
      <point x="433.0" y="1854.0"/>
      <point x="459.0" y="1979.0"/>
      <point x="616.0" y="1980.0" type="curve" smooth="yes"/>
      <point x="708.0" y="1980.0" type="line"/>
      <point x="720.0" y="2048.0" type="line"/>
      <point x="616.0" y="2048.0" type="line" smooth="yes"/>
      <point x="452.0" y="2048.0"/>
      <point x="351.0" y="1886.0"/>
      <point x="340.0" y="1760.0" type="curve" smooth="yes"/>
    </contour>
    <component base="D" xOffset="304.0"/>
  </outline>
</glyph>
<glyph name="Dtopbar" format="2">
  <advance width="1663.0"/>
  <unicode hex="018B"/>
  <outline>
    <contour>
      <point x="1376.0" y="0.0" type="line"/>
      <point x="1700.0" y="1968.0" type="line"/>
      <point x="592.0" y="1968.0" type="line"/>
      <point x="576.0" y="1860.0" type="line"/>
      <point x="1552.0" y="1860.0" type="line"/>
      <point x="1424.0" y="1100.0" type="line"/>
      <point x="792.0" y="1100.0" type="line" smooth="yes"/>
      <point x="398.0" y="1098.0"/>
      <point x="179.0" y="881.0"/>
      <point x="124.0" y="556.0" type="curve" smooth="yes"/>
      <point x="66.0" y="226.0"/>
      <point x="215.0" y="0.0"/>
      <point x="612.0" y="0.0" type="curve" smooth="yes"/>
    </contour>
    <contour>
      <point x="1264.0" y="108.0" type="line"/>
      <point x="632.0" y="108.0" type="line" smooth="yes"/>
      <point x="298.0" y="108.0"/>
      <point x="224.0" y="326.0"/>
      <point x="260.0" y="560.0" type="curve" smooth="yes"/>
      <point x="298.0" y="787.0"/>
      <point x="440.0" y="981.0"/>
      <point x="772.0" y="980.0" type="curve" smooth="yes"/>
      <point x="1404.0" y="980.0" type="line"/>
    </contour>
  </outline>
</glyph>
<glyph name="deltaturn" format="2">
  <advance width="1196.0"/>
  <unicode hex="018D"/>
  <outline>
    <contour>
      <point x="788.0" y="-516.0" type="line"/>
      <point x="812.0" y="-404.0" type="line"/>
      <point x="670.0" y="-200.0"/>
      <point x="531.0" y="-101.0"/>
      <point x="372.0" y="92.0" type="curve"/>
      <point x="389.0" y="90.0"/>
      <point x="370.0" y="90.0"/>
      <point x="424.0" y="96.0" type="curve" smooth="yes"/>
      <point x="895.0" y="142.0"/>
      <point x="1151.0" y="428.0"/>
      <point x="1200.0" y="708.0" type="curve" smooth="yes"/>
      <point x="1204.0" y="736.0" type="line" smooth="yes"/>
      <point x="1274.0" y="1176.0"/>
      <point x="1097.0" y="1516.0"/>
      <point x="720.0" y="1516.0" type="curve" smooth="yes"/>
      <point x="346.0" y="1516.0"/>
      <point x="64.0" y="1198.0"/>
      <point x="-4.0" y="784.0" type="curve" smooth="yes"/>
      <point x="-8.0" y="756.0" type="line" smooth="yes"/>
      <point x="-62.0" y="430.0"/>
      <point x="118.0" y="194.0"/>
      <point x="380.0" y="-96.0" type="curve" smooth="yes"/>
      <point x="434.0" y="-154.0"/>
      <point x="596.0" y="-370.0"/>
      <point x="616.0" y="-424.0" type="curve"/>
      <point x="-24.0" y="-424.0" type="line"/>
      <point x="-40.0" y="-516.0" type="line"/>
    </contour>
    <contour>
      <point x="1076.0" y="756.0" type="line"/>
      <point x="1028.0" y="481.0"/>
      <point x="810.0" y="219.0"/>
      <point x="464.0" y="220.0" type="curve" smooth="yes"/>
      <point x="395.0" y="219.0"/>
      <point x="353.0" y="226.0"/>
      <point x="308.0" y="240.0" type="curve"/>
      <point x="186.0" y="341.0"/>
      <point x="82.0" y="530.0"/>
      <point x="120.0" y="756.0" type="curve" smooth="yes"/>
      <point x="124.0" y="784.0" type="line" smooth="yes"/>
      <point x="175.0" y="1125.0"/>
      <point x="391.0" y="1411.0"/>
      <point x="704.0" y="1412.0" type="curve" smooth="yes"/>
      <point x="1013.0" y="1411.0"/>
      <point x="1135.0" y="1139.0"/>
      <point x="1080.0" y="784.0" type="curve" smooth="yes"/>
    </contour>
  </outline>
</glyph>
<glyph name="Epsilon1" format="2">
  <advance width="1666.0"/>
  <unicode hex="0190"/>
  <outline>
    <contour>
      <point x="1068.0" y="960.0" type="line"/>
      <point x="1088.0" y="1084.0" type="line"/>
      <point x="888.0" y="1084.0" type="line" smooth="yes"/>
      <point x="509.0" y="1083.0"/>
      <point x="416.0" y="1265.0"/>
      <point x="452.0" y="1480.0" type="curve" smooth="yes"/>
      <point x="492.0" y="1722.0"/>
      <point x="680.0" y="1920.0"/>
      <point x="1052.0" y="1920.0" type="curve" smooth="yes"/>
      <point x="1328.0" y="1920.0"/>
      <point x="1495.0" y="1728.0"/>
      <point x="1456.0" y="1496.0" type="curve"/>
      <point x="1592.0" y="1496.0" type="line"/>
      <point x="1648.0" y="1825.0"/>
      <point x="1401.0" y="2032.0"/>
      <point x="1068.0" y="2032.0" type="curve" smooth="yes"/>
      <point x="668.0" y="2032.0"/>
      <point x="378.0" y="1832.0"/>
      <point x="320.0" y="1460.0" type="curve" smooth="yes"/>
      <point x="266.0" y="1134.0"/>
      <point x="506.0" y="960.0"/>
      <point x="916.0" y="960.0" type="curve"/>
    </contour>
    <contour>
      <point x="936.0" y="1080.0" type="line"/>
      <point x="485.0" y="1080.0"/>
      <point x="190.0" y="896.0"/>
      <point x="136.0" y="560.0" type="curve" smooth="yes"/>
      <point x="64.0" y="126.0"/>
      <point x="352.0" y="-28.0"/>
      <point x="728.0" y="-28.0" type="curve" smooth="yes"/>
      <point x="1040.0" y="-28.0"/>
      <point x="1392.0" y="148.0"/>
      <point x="1460.0" y="556.0" type="curve"/>
      <point x="1332.0" y="556.0" type="line"/>
      <point x="1288.0" y="302.0"/>
      <point x="1052.0" y="80.0"/>
      <point x="740.0" y="80.0" type="curve" smooth="yes"/>
      <point x="392.0" y="80.0"/>
      <point x="216.0" y="239.0"/>
      <point x="272.0" y="544.0" type="curve" smooth="yes"/>
      <point x="313.0" y="814.0"/>
      <point x="510.0" y="961.0"/>
      <point x="872.0" y="960.0" type="curve" smooth="yes"/>
      <point x="1068.0" y="960.0" type="line"/>
      <point x="1088.0" y="1080.0" type="line"/>
    </contour>
  </outline>
</glyph>
<glyph name="Fhook" format="2">
  <advance width="1590.0"/>
  <unicode hex="0191"/>
  <outline>
    <contour>
      <point x="124.0" y="0.0" type="line"/>
      <point x="88.0" y="-228.0" type="line" smooth="yes"/>
      <point x="59.0" y="-436.0"/>
      <point x="-46.0" y="-493.0"/>
      <point x="-176.0" y="-492.0" type="curve"/>
      <point x="-215.0" y="-493.0"/>
      <point x="-233.0" y="-484.0"/>
      <point x="-252.0" y="-480.0" type="curve"/>
      <point x="-264.0" y="-564.0" type="line"/>
      <point x="-229.0" y="-576.0"/>
      <point x="-261.0" y="-576.0"/>
      <point x="-260.0" y="-576.0" type="curve"/>
      <point x="19.0" y="-576.0"/>
      <point x="122.0" y="-370.0"/>
      <point x="148.0" y="-236.0" type="curve" smooth="yes"/>
      <point x="188.0" y="0.0" type="line"/>
    </contour>
    <component base="F" xOffset="-68.0"/>
  </outline>
</glyph>
<glyph name="florin" format="2">
  <advance width="855.0"/>
  <unicode hex="0192"/>
  <outline>
    <contour>
      <point x="816.0" y="1488.0" type="line"/>
      <point x="552.0" y="1488.0" type="line"/>
      <point x="584.0" y="1668.0" type="line" smooth="yes"/>
      <point x="616.0" y="1893.0"/>
      <point x="728.0" y="2005.0"/>
      <point x="920.0" y="2004.0" type="curve" smooth="yes"/>
      <point x="950.0" y="2005.0"/>
      <point x="986.0" y="1994.0"/>
      <point x="1000.0" y="1988.0" type="curve"/>
      <point x="1100.0" y="2096.0" type="line"/>
      <point x="1068.0" y="2122.0"/>
      <point x="940.0" y="2140.0"/>
      <point x="876.0" y="2140.0" type="curve" smooth="yes"/>
      <point x="724.0" y="2140.0"/>
      <point x="545.0" y="1971.0"/>
      <point x="500.0" y="1668.0" type="curve" smooth="yes"/>
      <point x="472.0" y="1488.0" type="line"/>
      <point x="208.0" y="1488.0" type="line"/>
      <point x="184.0" y="1384.0" type="line"/>
      <point x="448.0" y="1384.0" type="line"/>
      <point x="192.0" y="-188.0" type="line" smooth="yes"/>
      <point x="156.0" y="-382.0"/>
      <point x="15.0" y="-495.0"/>
      <point x="-76.0" y="-496.0" type="curve" smooth="yes"/>
      <point x="-88.0" y="-495.0"/>
      <point x="-188.0" y="-494.0"/>
      <point x="-212.0" y="-480.0" type="curve"/>
      <point x="-248.0" y="-580.0" type="line"/>
      <point x="-220.0" y="-596.0"/>
      <point x="-190.0" y="-600.0"/>
      <point x="-148.0" y="-600.0" type="curve" smooth="yes"/>
      <point x="84.0" y="-600.0"/>
      <point x="227.0" y="-454.0"/>
      <point x="272.0" y="-188.0" type="curve" smooth="yes"/>
      <point x="532.0" y="1384.0" type="line"/>
      <point x="792.0" y="1384.0" type="line"/>
    </contour>
  </outline>
</glyph>
<glyph name="Ghook" format="2">
  <advance width="2001.0"/>
  <unicode hex="0193"/>
  <outline>
    <contour>
      <point x="1932.0" y="1432.0" type="line"/>
      <point x="1948.0" y="1552.0" type="line" smooth="yes"/>
      <point x="1975.0" y="1702.0"/>
      <point x="2051.0" y="1765.0"/>
      <point x="2172.0" y="1764.0" type="curve" smooth="yes"/>
      <point x="2183.0" y="1765.0"/>
      <point x="2201.0" y="1763.0"/>
      <point x="2200.0" y="1760.0" type="curve"/>
      <point x="2208.0" y="1820.0" type="line"/>
      <point x="2208.0" y="1827.0"/>
      <point x="2168.0" y="1820.0"/>
      <point x="2140.0" y="1820.0" type="curve" smooth="yes"/>
      <point x="1963.0" y="1820.0"/>
      <point x="1962.0" y="1720.0"/>
      <point x="1908.0" y="1552.0" type="curve" smooth="yes"/>
      <point x="1868.0" y="1432.0" type="line"/>
    </contour>
    <component base="G"/>
  </outline>
</glyph>
<glyph name="Gamma1" format="2">
  <advance width="1454.0"/>
  <unicode hex="0194"/>
  <outline>
    <contour>
      <point x="160.0" y="2084.0" type="line"/>
      <point x="596.0" y="148.0" type="line" smooth="yes"/>
      <point x="663.0" y="-144.0"/>
      <point x="714.0" y="-266.0"/>
      <point x="704.0" y="-348.0" type="curve" smooth="yes"/>
      <point x="694.0" y="-401.0"/>
      <point x="606.0" y="-453.0"/>
      <point x="528.0" y="-452.0" type="curve" smooth="yes"/>
      <point x="446.0" y="-453.0"/>
      <point x="377.0" y="-402.0"/>
      <point x="384.0" y="-348.0" type="curve" smooth="yes"/>
      <point x="394.0" y="-271.0"/>
      <point x="500.0" y="-134.0"/>
      <point x="664.0" y="148.0" type="curve" smooth="yes"/>
      <point x="1736.0" y="2084.0" type="line"/>
      <point x="1692.0" y="2084.0" type="line"/>
      <point x="512.0" y="92.0" type="line" smooth="yes"/>
      <point x="326.0" y="-232.0"/>
      <point x="337.0" y="-194.0"/>
      <point x="312.0" y="-332.0" type="curve" smooth="yes"/>
      <point x="286.0" y="-473.0"/>
      <point x="308.0" y="-600.0"/>
      <point x="500.0" y="-600.0" type="curve" smooth="yes"/>
      <point x="690.0" y="-600.0"/>
      <point x="764.0" y="-473.0"/>
      <point x="792.0" y="-332.0" type="curve" smooth="yes"/>
      <point x="808.0" y="-209.0"/>
      <point x="778.0" y="-237.0"/>
      <point x="696.0" y="92.0" type="curve" smooth="yes"/>
      <point x="204.0" y="2084.0" type="line"/>
    </contour>
  </outline>
</glyph>
<glyph name="hv" format="2">
  <advance width="2558.0"/>
  <unicode hex="0195"/>
  <note>
Note: Must be split in two, or conversion to quadratic curves will fail.
</note>
  <outline>
    <contour>
      <point x="132.0" y="0.0" type="line"/>
      <point x="180.0" y="0.0" type="line"/>
      <point x="336.0" y="960.0" type="line" smooth="yes"/>
      <point x="396.0" y="1298.0"/>
      <point x="647.0" y="1486.0"/>
      <point x="940.0" y="1488.0" type="curve" smooth="yes"/>
      <point x="1205.0" y="1486.0"/>
      <point x="1346.0" y="1317.0"/>
      <point x="1296.0" y="1020.0" type="curve" smooth="yes"/>
      <point x="1256.0" y="768.0" type="line"/>
      <point x="1304.0" y="768.0" type="line"/>
      <point x="1340.0" y="976.0" type="line" smooth="yes"/>
      <point x="1407.0" y="1406.0"/>
      <point x="1222.0" y="1556.0"/>
      <point x="916.0" y="1556.0" type="curve" smooth="yes"/>
      <point x="664.0" y="1556.0"/>
      <point x="526.0" y="1466.0"/>
      <point x="432.0" y="1328.0" type="curve"/>
      <point x="412.0" y="1328.0" type="line"/>
      <point x="532.0" y="2048.0" type="line"/>
      <point x="472.0" y="2048.0" type="line"/>
    </contour>
    <contour>
      <point x="1528.0" y="-28.0" type="curve" smooth="yes"/>
      <point x="1791.0" y="-28.0"/>
      <point x="2218.0" y="309.0"/>
      <point x="2384.0" y="1292.0" type="curve"/>
      <point x="2424.0" y="1536.0" type="line"/>
      <point x="2380.0" y="1536.0" type="line"/>
      <point x="2336.0" y="1292.0" type="line" smooth="yes"/>
      <point x="2172.0" y="295.0"/>
      <point x="1815.0" y="36.0"/>
      <point x="1556.0" y="36.0" type="curve" smooth="yes"/>
      <point x="1423.0" y="36.0"/>
      <point x="1189.0" y="106.0"/>
      <point x="1276.0" y="620.0" type="curve"/>
      <point x="1304.0" y="768.0" type="line"/>
      <point x="1256.0" y="768.0" type="line"/>
      <point x="1228.0" y="620.0" type="line" smooth="yes"/>
      <point x="1149.0" y="127.0"/>
      <point x="1352.0" y="-28.0"/>
    </contour>
  </outline>
</glyph>
<glyph name="Iota1" format="2">
  <advance width="922.0"/>
  <unicode hex="0196"/>
  <outline>
    <contour>
      <point x="540.0" y="2112.0" type="line"/>
      <point x="412.0" y="2112.0" type="line"/>
      <point x="136.0" y="448.0" type="line" smooth="yes"/>
      <point x="87.0" y="145.0"/>
      <point x="203.0" y="-28.0"/>
      <point x="436.0" y="-28.0" type="curve" smooth="yes"/>
      <point x="489.0" y="-28.0"/>
      <point x="554.0" y="-16.0"/>
      <point x="608.0" y="0.0" type="curve"/>
      <point x="592.0" y="92.0" type="line"/>
      <point x="562.0" y="85.0"/>
      <point x="515.0" y="74.0"/>
      <point x="484.0" y="76.0" type="curve" smooth="yes"/>
      <point x="297.0" y="74.0"/>
      <point x="228.0" y="223.0"/>
      <point x="264.0" y="448.0" type="curve" smooth="yes"/>
    </contour>
  </outline>
</glyph>
<glyph name="Khook" format="2">
  <advance width="1731.0"/>
  <unicode hex="0198"/>
  <outline>
    <contour>
      <point x="192.0" y="0.0" type="line"/>
      <point x="252.0" y="0.0" type="line"/>
      <point x="388.0" y="800.0" type="line"/>
      <point x="704.0" y="1108.0" type="line"/>
      <point x="1336.0" y="0.0" type="line"/>
      <point x="1420.0" y="0.0" type="line"/>
      <point x="736.0" y="1148.0" type="line"/>
      <point x="1544.0" y="1900.0" type="line" smooth="yes"/>
      <point x="1677.0" y="2024.0"/>
      <point x="1785.0" y="2002.0"/>
      <point x="1836.0" y="1948.0" type="curve"/>
      <point x="1908.0" y="2012.0" type="line"/>
      <point x="1854.0" y="2090.0"/>
      <point x="1683.0" y="2112.0"/>
      <point x="1552.0" y="1980.0" type="curve" smooth="yes"/>
      <point x="424.0" y="900.0" type="line"/>
      <point x="404.0" y="900.0" type="line"/>
      <point x="592.0" y="2048.0" type="line"/>
      <point x="532.0" y="2048.0" type="line"/>
    </contour>
  </outline>
</glyph>
<glyph name="khook" format="2">
  <advance width="1375.0"/>
  <unicode hex="0199"/>
  <outline>
    <contour>
      <point x="1076.0" y="0.0" type="line"/>
      <point x="1176.0" y="0.0" type="line"/>
      <point x="604.0" y="880.0" type="line"/>
      <point x="1340.0" y="1536.0" type="line"/>
      <point x="1236.0" y="1536.0" type="line"/>
      <point x="316.0" y="692.0" type="line"/>
      <point x="296.0" y="692.0" type="line"/>
      <point x="460.0" y="1708.0" type="line"/>
      <point x="416.0" y="1708.0" type="line"/>
      <point x="136.0" y="0.0" type="line"/>
      <point x="180.0" y="0.0" type="line"/>
      <point x="280.0" y="604.0" type="line"/>
      <point x="544.0" y="840.0" type="line"/>
    </contour>
    <contour>
      <point x="448.0" y="1588.0" type="line"/>
      <point x="468.0" y="1736.0" type="line" smooth="yes"/>
      <point x="503.0" y="1934.0"/>
      <point x="599.0" y="1999.0"/>
      <point x="748.0" y="2000.0" type="curve" smooth="yes"/>
      <point x="767.0" y="1999.0"/>
      <point x="788.0" y="1995.0"/>
      <point x="788.0" y="1992.0" type="curve"/>
      <point x="808.0" y="2068.0" type="line"/>
      <point x="785.0" y="2083.0"/>
      <point x="757.0" y="2076.0"/>
      <point x="752.0" y="2076.0" type="curve" smooth="yes"/>
      <point x="562.0" y="2076.0"/>
      <point x="443.0" y="1866.0"/>
      <point x="424.0" y="1736.0" type="curve" smooth="yes"/>
      <point x="400.0" y="1588.0" type="line"/>
    </contour>
  </outline>
</glyph>
<glyph name="lambdabar" format="2">
  <advance width="1670.0"/>
  <unicode hex="019B"/>
  <outline>
    <contour>
      <point x="1000.0" y="2016.0" type="line"/>
      <point x="408.0" y="1752.0" type="line"/>
      <point x="380.0" y="1560.0" type="line"/>
      <point x="968.0" y="1816.0" type="line"/>
    </contour>
    <contour>
      <point x="852.0" y="1244.0" type="line"/>
      <point x="948.0" y="1480.0" type="line"/>
      <point x="864.0" y="1504.0" type="line"/>
      <point x="28.0" y="0.0" type="line"/>
      <point x="184.0" y="0.0" type="line"/>
    </contour>
    <contour>
      <point x="600.0" y="2044.0" type="curve"/>
      <point x="580.0" y="2045.0"/>
      <point x="544.0" y="2039.0"/>
      <point x="560.0" y="2040.0" type="curve"/>
      <point x="532.0" y="1940.0" type="line"/>
      <point x="536.0" y="1942.0"/>
      <point x="572.0" y="1942.0"/>
      <point x="584.0" y="1944.0" type="curve" smooth="yes"/>
      <point x="623.0" y="1942.0"/>
      <point x="651.0" y="1924.0"/>
      <point x="680.0" y="1808.0" type="curve" smooth="yes"/>
      <point x="772.0" y="1372.0" type="line"/>
      <point x="1048.0" y="220.0" type="line" smooth="yes"/>
      <point x="1110.0" y="-80.0"/>
      <point x="1172.0" y="-22.0"/>
      <point x="1268.0" y="-24.0" type="curve" smooth="yes"/>
      <point x="1292.0" y="-22.0"/>
      <point x="1332.0" y="-6.0"/>
      <point x="1336.0" y="4.0" type="curve"/>
      <point x="1336.0" y="112.0" type="line"/>
      <point x="1323.0" y="111.0"/>
      <point x="1300.0" y="111.0"/>
      <point x="1288.0" y="112.0" type="curve" smooth="yes"/>
      <point x="1244.0" y="111.0"/>
      <point x="1216.0" y="82.0"/>
      <point x="1196.0" y="184.0" type="curve" smooth="yes"/>
      <point x="860.0" y="1828.0" type="line" smooth="yes"/>
      <point x="834.0" y="1963.0"/>
      <point x="800.0" y="2045.0"/>
    </contour>
  </outline>
</glyph>
<glyph name="mcapturn" format="2">
  <advance width="2402.0"/>
  <unicode hex="019C"/>
  <outline>
    <contour>
      <point x="1952.0" y="232.0" type="line"/>
      <point x="1896.0" y="0.0" type="line"/>
      <point x="2036.0" y="0.0" type="line"/>
      <point x="2368.0" y="2004.0" type="line"/>
      <point x="2248.0" y="2004.0" type="line"/>
    </contour>
    <contour>
      <point x="2020.0" y="692.0" type="line"/>
      <point x="1961.0" y="356.0"/>
      <point x="1803.0" y="90.0"/>
      <point x="1456.0" y="92.0" type="curve" smooth="yes"/>
      <point x="1326.0" y="90.0"/>
      <point x="1170.0" y="172.0"/>
      <point x="1240.0" y="632.0" type="curve"/>
      <point x="1472.0" y="2004.0" type="line"/>
      <point x="1344.0" y="2004.0" type="line"/>
      <point x="1112.0" y="632.0" type="line"/>
      <point x="1034.0" y="123.0"/>
      <point x="1198.0" y="-28.0"/>
      <point x="1472.0" y="-28.0" type="curve" smooth="yes"/>
      <point x="1902.0" y="-28.0"/>
      <point x="2076.0" y="280.0"/>
      <point x="2144.0" y="696.0" type="curve"/>
    </contour>
    <contour>
      <point x="1124.0" y="692.0" type="line"/>
      <point x="1066.0" y="358.0"/>
      <point x="900.0" y="90.0"/>
      <point x="552.0" y="92.0" type="curve" smooth="yes"/>
      <point x="423.0" y="90.0"/>
      <point x="273.0" y="172.0"/>
      <point x="344.0" y="632.0" type="curve" smooth="yes"/>
      <point x="576.0" y="2004.0" type="line"/>
      <point x="440.0" y="2004.0" type="line"/>
      <point x="212.0" y="632.0" type="line" smooth="yes"/>
      <point x="131.0" y="127.0"/>
      <point x="314.0" y="-28.0"/>
      <point x="572.0" y="-28.0" type="curve" smooth="yes"/>
      <point x="990.0" y="-28.0"/>
      <point x="1177.0" y="287.0"/>
      <point x="1244.0" y="696.0" type="curve"/>
    </contour>
  </outline>
</glyph>
<glyph name="Nhook" format="2">
  <advance width="2210.0"/>
  <unicode hex="019D"/>
  <outline>
    <contour>
      <point x="228.0" y="0.0" type="line"/>
      <point x="188.0" y="-228.0" type="line" smooth="yes"/>
      <point x="151.0" y="-427.0"/>
      <point x="57.0" y="-493.0"/>
      <point x="-92.0" y="-492.0" type="curve"/>
      <point x="-118.0" y="-493.0"/>
      <point x="-136.0" y="-484.0"/>
      <point x="-160.0" y="-480.0" type="curve"/>
      <point x="-172.0" y="-564.0" type="line"/>
      <point x="-131.0" y="-571.0"/>
      <point x="-115.0" y="-582.0"/>
      <point x="-48.0" y="-584.0" type="curve"/>
      <point x="136.0" y="-582.0"/>
      <point x="203.0" y="-397.0"/>
      <point x="248.0" y="-236.0" type="curve" smooth="yes"/>
      <point x="292.0" y="0.0" type="line"/>
    </contour>
    <component base="N" xOffset="40.0"/>
  </outline>
</glyph>
<glyph name="ohorn" format="2">
  <advance width="1594.0"/>
  <unicode hex="01A1"/>
  <outline>
    <contour>
      <point x="1556.0" y="1680.0" type="line"/>
      <point x="1520.0" y="1514.0"/>
      <point x="1491.0" y="1389.0"/>
      <point x="1304.0" y="1388.0" type="curve"/>
      <point x="1280.0" y="1224.0" type="line"/>
      <point x="1583.0" y="1223.0"/>
      <point x="1693.0" y="1408.0"/>
      <point x="1740.0" y="1680.0" type="curve"/>
    </contour>
    <component base="o"/>
  </outline>
</glyph>
<glyph name="OI" format="2">
  <advance width="1954.0"/>
  <unicode hex="01A2"/>
  <outline>
    <contour>
      <point x="1540.0" y="832.0" type="line"/>
      <point x="1416.0" y="832.0" type="line"/>
      <point x="1316.0" y="272.0" type="line"/>
      <point x="1253.0" y="199.0"/>
      <point x="1135.0" y="80.0"/>
      <point x="784.0" y="80.0" type="curve" smooth="yes"/>
      <point x="370.0" y="80.0"/>
      <point x="187.0" y="415.0"/>
      <point x="272.0" y="924.0" type="curve" smooth="yes"/>
      <point x="292.0" y="1088.0" type="line"/>
      <point x="172.0" y="1084.0" type="line"/>
      <point x="144.0" y="924.0" type="line" smooth="yes"/>
      <point x="39.0" y="294.0"/>
      <point x="334.0" y="-28.0"/>
      <point x="772.0" y="-28.0" type="curve" smooth="yes"/>
      <point x="1231.0" y="-28.0"/>
      <point x="1379.0" y="177.0"/>
      <point x="1444.0" y="288.0" type="curve"/>
    </contour>
    <contour>
      <point x="1684.0" y="1716.0" type="line"/>
      <point x="1654.0" y="1825.0"/>
      <point x="1569.0" y="2032.0"/>
      <point x="1112.0" y="2032.0" type="curve" smooth="yes"/>
      <point x="668.0" y="2032.0"/>
      <point x="269.0" y="1676.0"/>
      <point x="172.0" y="1084.0" type="curve" smooth="yes"/>
      <point x="148.0" y="956.0" type="line"/>
      <point x="276.0" y="956.0" type="line"/>
      <point x="296.0" y="1084.0" type="line" smooth="yes"/>
      <point x="385.0" y="1615.0"/>
      <point x="733.0" y="1918.0"/>
      <point x="1072.0" y="1920.0" type="curve" smooth="yes"/>
      <point x="1461.0" y="1918.0"/>
      <point x="1525.0" y="1793.0"/>
      <point x="1560.0" y="1728.0" type="curve"/>
      <point x="1464.0" y="1124.0" type="line"/>
      <point x="1584.0" y="1120.0" type="line"/>
    </contour>
    <contour>
      <point x="2044.0" y="2004.0" type="line"/>
      <point x="1932.0" y="2004.0" type="line"/>
      <point x="1700.0" y="1940.0" type="line"/>
      <point x="1696.0" y="1928.0" type="line"/>
      <point x="1904.0" y="1960.0" type="line"/>
      <point x="1484.0" y="-572.0" type="line"/>
      <point x="1620.0" y="-572.0" type="line"/>
    </contour>
  </outline>
</glyph>
<glyph name="oi" format="2">
  <advance width="1459.0"/>
  <unicode hex="01A3"/>
  <outline>
    <contour>
      <point x="600.0" y="76.0" type="curve" smooth="yes"/>
      <point x="329.0" y="74.0"/>
      <point x="131.0" y="271.0"/>
      <point x="204.0" y="708.0" type="curve" smooth="yes"/>
      <point x="216.0" y="784.0" type="line" smooth="yes"/>
      <point x="268.0" y="1077.0"/>
      <point x="446.0" y="1411.0"/>
      <point x="828.0" y="1412.0" type="curve"/>
      <point x="899.0" y="1411.0"/>
      <point x="973.0" y="1392.0"/>
      <point x="1028.0" y="1364.0" type="curve"/>
      <point x="904.0" y="620.0" type="line"/>
      <point x="1040.0" y="648.0" type="line"/>
      <point x="1172.0" y="1432.0" type="line"/>
      <point x="1071.0" y="1544.0"/>
      <point x="945.0" y="1516.0"/>
      <point x="832.0" y="1516.0" type="curve" smooth="yes"/>
      <point x="403.0" y="1516.0"/>
      <point x="145.0" y="1151.0"/>
      <point x="80.0" y="784.0" type="curve" smooth="yes"/>
      <point x="68.0" y="708.0" type="line" smooth="yes"/>
      <point x="6.0" y="339.0"/>
      <point x="141.0" y="-28.0"/>
      <point x="576.0" y="-28.0" type="curve"/>
      <point x="640.0" y="-28.0"/>
      <point x="827.0" y="10.0"/>
      <point x="952.0" y="96.0" type="curve"/>
      <point x="1044.0" y="656.0" type="line"/>
      <point x="912.0" y="656.0" type="line"/>
      <point x="828.0" y="132.0" type="line"/>
      <point x="749.0" y="101.0"/>
      <point x="673.0" y="74.0"/>
    </contour>
    <contour>
      <point x="1500.0" y="1488.0" type="line"/>
      <point x="1356.0" y="1488.0" type="line"/>
      <point x="1076.0" y="1320.0" type="line"/>
      <point x="1028.0" y="1028.0" type="line"/>
      <point x="1336.0" y="1248.0" type="line"/>
      <point x="1036.0" y="-572.0" type="line"/>
      <point x="1160.0" y="-572.0" type="line"/>
    </contour>
  </outline>
</glyph>
<glyph name="Phook" format="2">
  <advance width="1916.0"/>
  <unicode hex="01A4"/>
  <note>
!post:RemoveOverlap
</note>
  <outline>
    <contour>
      <point x="396.0" y="1728.0" type="line"/>
      <point x="400.0" y="1760.0" type="line" smooth="yes"/>
      <point x="424.0" y="1916.0"/>
      <point x="508.0" y="1984.0"/>
      <point x="660.0" y="1984.0" type="curve" smooth="yes"/>
      <point x="716.0" y="1984.0" type="line"/>
      <point x="728.0" y="2048.0" type="line"/>
      <point x="672.0" y="2048.0" type="line" smooth="yes"/>
      <point x="480.0" y="2048.0"/>
      <point x="368.0" y="1948.0"/>
      <point x="336.0" y="1760.0" type="curve" smooth="yes"/>
      <point x="332.0" y="1728.0" type="line"/>
    </contour>
    <component base="P" xOffset="164.0"/>
  </outline>
</glyph>
<glyph name="phook" format="2">
  <advance width="1651.0"/>
  <unicode hex="01A5"/>
  <outline>
    <contour>
      <point x="428.0" y="1536.0" type="line"/>
      <point x="451.0" y="1678.0"/>
      <point x="554.0" y="1734.0"/>
      <point x="736.0" y="1736.0" type="curve" smooth="yes"/>
      <point x="729.0" y="1739.0"/>
      <point x="730.0" y="1742.0"/>
      <point x="756.0" y="1740.0" type="curve"/>
      <point x="772.0" y="1856.0" type="line"/>
      <point x="771.0" y="1862.0"/>
      <point x="743.0" y="1857.0"/>
      <point x="724.0" y="1856.0" type="curve" smooth="yes"/>
      <point x="582.0" y="1857.0"/>
      <point x="418.0" y="1714.0"/>
      <point x="392.0" y="1536.0" type="curve"/>
    </contour>
    <component base="p"/>
  </outline>
</glyph>
<glyph name="YR" format="2">
  <advance width="1917.0"/>
  <unicode hex="01A6"/>
  <outline>
    <contour>
      <point x="344.0" y="1864.0" type="line"/>
      <point x="484.0" y="1864.0" type="line"/>
      <point x="532.0" y="2144.0" type="line"/>
      <point x="392.0" y="2144.0" type="line"/>
    </contour>
    <contour>
      <point x="372.0" y="2004.0" type="line"/>
      <point x="40.0" y="0.0" type="line"/>
      <point x="176.0" y="0.0" type="line"/>
      <point x="492.0" y="1892.0" type="line"/>
      <point x="916.0" y="1892.0" type="line" smooth="yes"/>
      <point x="1295.0" y="1892.0"/>
      <point x="1390.0" y="1708.0"/>
      <point x="1348.0" y="1440.0" type="curve" smooth="yes"/>
      <point x="1312.0" y="1206.0"/>
      <point x="1108.0" y="1000.0"/>
      <point x="764.0" y="1000.0" type="curve" smooth="yes"/>
      <point x="364.0" y="1000.0" type="line"/>
      <point x="348.0" y="892.0" type="line"/>
      <point x="900.0" y="892.0" type="line"/>
      <point x="908.0" y="872.0" type="line"/>
      <point x="1230.0" y="935.0"/>
      <point x="1440.0" y="1184.0"/>
      <point x="1476.0" y="1404.0" type="curve" smooth="yes"/>
      <point x="1538.0" y="1792.0"/>
      <point x="1370.0" y="2004.0"/>
      <point x="932.0" y="2004.0" type="curve" smooth="yes"/>
    </contour>
    <contour>
      <point x="1400.0" y="-512.0" type="line"/>
      <point x="1540.0" y="-512.0" type="line"/>
      <point x="1540.0" y="-496.0" type="line"/>
      <point x="1004.0" y="932.0" type="line"/>
      <point x="864.0" y="932.0" type="line"/>
    </contour>
  </outline>
</glyph>
<glyph name="eshlooprev" format="2">
  <advance width="1203.0"/>
  <unicode hex="01AA"/>
  <outline>
    <contour>
      <point x="880.0" y="1728.0" type="line"/>
      <point x="572.0" y="-132.0" type="line" smooth="yes"/>
      <point x="526.0" y="-390.0"/>
      <point x="561.0" y="-526.0"/>
      <point x="748.0" y="-528.0" type="curve" smooth="yes"/>
      <point x="771.0" y="-526.0"/>
      <point x="843.0" y="-516.0"/>
      <point x="864.0" y="-500.0" type="curve"/>
      <point x="884.0" y="-396.0" type="line"/>
      <point x="876.0" y="-405.0"/>
      <point x="836.0" y="-409.0"/>
      <point x="828.0" y="-408.0" type="curve" smooth="yes"/>
      <point x="709.0" y="-409.0"/>
      <point x="664.0" y="-352.0"/>
      <point x="704.0" y="-132.0" type="curve" smooth="yes"/>
      <point x="1016.0" y="1748.0" type="line"/>
    </contour>
    <contour>
      <point x="292.0" y="1748.0" type="curve" smooth="yes"/>
      <point x="257.0" y="1545.0"/>
      <point x="384.0" y="1374.0"/>
      <point x="588.0" y="1376.0" type="curve" smooth="yes"/>
      <point x="785.0" y="1374.0"/>
      <point x="977.0" y="1542.0"/>
      <point x="1016.0" y="1748.0" type="curve" smooth="yes"/>
      <point x="1045.0" y="1958.0"/>
      <point x="909.0" y="2118.0"/>
      <point x="712.0" y="2120.0" type="curve" smooth="yes"/>
      <point x="511.0" y="2118.0"/>
      <point x="322.0" y="1958.0"/>
    </contour>
    <contour>
      <point x="612.0" y="1520.0" type="curve" smooth="yes"/>
      <point x="493.0" y="1520.0"/>
      <point x="411.0" y="1594.0"/>
      <point x="436.0" y="1752.0" type="curve" smooth="yes"/>
      <point x="461.0" y="1903.0"/>
      <point x="570.0" y="1984.0"/>
      <point x="692.0" y="1984.0" type="curve" smooth="yes"/>
      <point x="813.0" y="1984.0"/>
      <point x="893.0" y="1901.0"/>
      <point x="868.0" y="1752.0" type="curve" smooth="yes"/>
      <point x="843.0" y="1594.0"/>
      <point x="734.0" y="1520.0"/>
    </contour>
  </outline>
</glyph>
<glyph name="tpalatalhook" format="2">
  <advance width="986.0"/>
  <unicode hex="01AB"/>
  <outline>
    <contour>
      <point x="528.0" y="76.0" type="line"/>
      <point x="472.0" y="-236.0" type="line" smooth="yes"/>
      <point x="442.0" y="-399.0"/>
      <point x="377.0" y="-463.0"/>
      <point x="228.0" y="-464.0" type="curve" smooth="yes"/>
      <point x="216.0" y="-463.0"/>
      <point x="193.0" y="-459.0"/>
      <point x="184.0" y="-456.0" type="curve"/>
      <point x="164.0" y="-576.0" type="line"/>
      <point x="173.0" y="-583.0"/>
      <point x="222.0" y="-578.0"/>
      <point x="252.0" y="-580.0" type="curve" smooth="yes"/>
      <point x="417.0" y="-578.0"/>
      <point x="605.0" y="-453.0"/>
      <point x="644.0" y="-236.0" type="curve" smooth="yes"/>
      <point x="704.0" y="108.0" type="line"/>
    </contour>
    <component base="t"/>
  </outline>
</glyph>
<glyph name="Thook" format="2">
  <advance width="1860.0"/>
  <unicode hex="01AC"/>
  <note>
!post:RemoveOverlap
</note>
  <outline>
    <contour>
      <point x="1208.0" y="2048.0" type="line"/>
      <point x="640.0" y="2048.0" type="line" smooth="yes"/>
      <point x="498.0" y="2048.0"/>
      <point x="359.0" y="1922.0"/>
      <point x="336.0" y="1768.0" type="curve" smooth="yes"/>
      <point x="332.0" y="1728.0" type="line"/>
      <point x="420.0" y="1728.0" type="line"/>
      <point x="424.0" y="1760.0" type="line" smooth="yes"/>
      <point x="440.0" y="1867.0"/>
      <point x="509.0" y="1965.0"/>
      <point x="628.0" y="1964.0" type="curve" smooth="yes"/>
      <point x="1196.0" y="1964.0" type="line"/>
    </contour>
    <contour>
      <point x="1900.0" y="2048.0" type="line"/>
      <point x="868.0" y="2048.0" type="line"/>
      <point x="856.0" y="1964.0" type="line"/>
      <point x="1160.0" y="1964.0" type="line"/>
      <point x="832.0" y="0.0" type="line"/>
      <point x="900.0" y="0.0" type="line"/>
      <point x="1228.0" y="1964.0" type="line"/>
      <point x="1888.0" y="1964.0" type="line"/>
    </contour>
  </outline>
</glyph>
<glyph name="thook" format="2">
  <advance width="706.0"/>
  <unicode hex="01AD"/>
  <outline>
    <contour>
      <point x="612.0" y="1632.0" type="line"/>
      <point x="636.0" y="1784.0" type="line" smooth="yes"/>
      <point x="666.0" y="1949.0"/>
      <point x="708.0" y="2022.0"/>
      <point x="852.0" y="2024.0" type="curve" smooth="yes"/>
      <point x="854.0" y="2022.0"/>
      <point x="878.0" y="2020.0"/>
      <point x="904.0" y="2012.0" type="curve"/>
      <point x="916.0" y="2100.0" type="line"/>
      <point x="899.0" y="2110.0"/>
      <point x="848.0" y="2118.0"/>
      <point x="864.0" y="2120.0" type="curve" smooth="yes"/>
      <point x="700.0" y="2118.0"/>
      <point x="526.0" y="1926.0"/>
      <point x="500.0" y="1784.0" type="curve" smooth="yes"/>
      <point x="480.0" y="1632.0" type="line"/>
    </contour>
    <contour>
      <point x="872.0" y="1488.0" type="line"/>
      <point x="140.0" y="1488.0" type="line"/>
      <point x="116.0" y="1384.0" type="line"/>
      <point x="848.0" y="1384.0" type="line"/>
    </contour>
    <contour>
      <point x="464.0" y="1564.0" type="line"/>
      <point x="272.0" y="400.0" type="line"/>
      <point x="219.0" y="89.0"/>
      <point x="350.0" y="-28.0"/>
      <point x="456.0" y="-28.0" type="curve" smooth="yes"/>
      <point x="550.0" y="-28.0"/>
      <point x="610.0" y="-7.0"/>
      <point x="612.0" y="-12.0" type="curve"/>
      <point x="632.0" y="116.0" type="line"/>
      <point x="616.0" y="113.0"/>
      <point x="550.0" y="94.0"/>
      <point x="512.0" y="96.0" type="curve" smooth="yes"/>
      <point x="457.0" y="94.0"/>
      <point x="363.0" y="147.0"/>
      <point x="400.0" y="352.0" type="curve"/>
      <point x="600.0" y="1564.0" type="line"/>
    </contour>
  </outline>
</glyph>
<glyph name="Trthook" format="2">
  <advance width="1734.0"/>
  <unicode hex="01AE"/>
  <outline>
    <contour>
      <point x="772.0" y="0.0" type="line"/>
      <point x="704.0" y="0.0" type="line"/>
      <point x="664.0" y="-244.0" type="line" smooth="yes"/>
      <point x="642.0" y="-378.0"/>
      <point x="748.0" y="-576.0"/>
      <point x="932.0" y="-576.0" type="curve"/>
      <point x="1004.0" y="-576.0" type="line"/>
      <point x="1024.0" y="-472.0" type="line"/>
      <point x="956.0" y="-472.0" type="line"/>
      <point x="808.0" y="-471.0"/>
      <point x="699.0" y="-434.0"/>
      <point x="732.0" y="-236.0" type="curve" smooth="yes"/>
    </contour>
    <component base="T"/>
  </outline>
</glyph>
<glyph name="Uhorn" format="2">
  <advance width="2422.0"/>
  <unicode hex="01AF"/>
  <outline>
    <contour>
      <point x="2300.0" y="2224.0" type="line"/>
      <point x="2256.0" y="1958.0"/>
      <point x="2110.0" y="1838.0"/>
      <point x="1856.0" y="1840.0" type="curve"/>
      <point x="1832.0" y="1672.0" type="line"/>
      <point x="2210.0" y="1670.0"/>
      <point x="2430.0" y="1847.0"/>
      <point x="2488.0" y="2224.0" type="curve"/>
    </contour>
    <component base="U"/>
  </outline>
</glyph>
<glyph name="uhorn" format="2">
  <advance width="1510.0"/>
  <unicode hex="01B0"/>
  <outline>
    <contour>
      <point x="1532.0" y="1588.0" type="line"/>
      <point x="1503.0" y="1398.0"/>
      <point x="1515.0" y="1332.0"/>
      <point x="1300.0" y="1332.0" type="curve"/>
      <point x="1276.0" y="1196.0" type="line"/>
      <point x="1572.0" y="1194.0"/>
      <point x="1661.0" y="1326.0"/>
      <point x="1704.0" y="1588.0" type="curve"/>
    </contour>
    <component base="u" xOffset="-8.0"/>
  </outline>
</glyph>
<glyph name="Upsilon2" format="2">
  <advance width="2096.0"/>
  <unicode hex="01B1"/>
  <outline>
    <contour>
      <point x="248.0" y="1000.0" type="curve" smooth="yes"/>
      <point x="147.0" y="396.0"/>
      <point x="426.0" y="-28.0"/>
      <point x="916.0" y="-28.0" type="curve" smooth="yes"/>
      <point x="1406.0" y="-28.0"/>
      <point x="1826.0" y="396.0"/>
      <point x="1924.0" y="1000.0" type="curve" smooth="yes"/>
      <point x="1995.0" y="1433.0"/>
      <point x="1876.0" y="1762.0"/>
      <point x="1608.0" y="1948.0" type="curve"/>
      <point x="1616.0" y="1964.0" type="line"/>
      <point x="2088.0" y="1964.0" type="line"/>
      <point x="2100.0" y="2048.0" type="line"/>
      <point x="1456.0" y="2048.0" type="line"/>
      <point x="1436.0" y="1936.0" type="line"/>
      <point x="1727.0" y="1800.0"/>
      <point x="1954.0" y="1436.0"/>
      <point x="1876.0" y="968.0" type="curve" smooth="yes"/>
      <point x="1796.0" y="461.0"/>
      <point x="1397.0" y="50.0"/>
      <point x="932.0" y="52.0" type="curve" smooth="yes"/>
      <point x="467.0" y="50.0"/>
      <point x="204.0" y="461.0"/>
      <point x="284.0" y="968.0" type="curve" smooth="yes"/>
      <point x="362.0" y="1436.0"/>
      <point x="713.0" y="1800.0"/>
      <point x="1044.0" y="1936.0" type="curve"/>
      <point x="1064.0" y="2048.0" type="line"/>
      <point x="420.0" y="2048.0" type="line"/>
      <point x="408.0" y="1964.0" type="line"/>
      <point x="884.0" y="1964.0" type="line"/>
      <point x="880.0" y="1948.0" type="line"/>
      <point x="553.0" y="1755.0"/>
      <point x="317.0" y="1433.0"/>
    </contour>
  </outline>
</glyph>
<glyph name="Vcursive" format="2">
  <advance width="1670.0"/>
  <unicode hex="01B2"/>
  <outline>
    <contour>
      <point x="700.0" y="-28.0" type="curve" smooth="yes"/>
      <point x="1014.0" y="-28.0"/>
      <point x="1401.0" y="167.0"/>
      <point x="1476.0" y="608.0" type="curve" smooth="yes"/>
      <point x="1644.0" y="1640.0" type="line" smooth="yes"/>
      <point x="1687.0" y="1891.0"/>
      <point x="1552.0" y="2034.0"/>
      <point x="1360.0" y="2036.0" type="curve" smooth="yes"/>
      <point x="1350.0" y="2034.0"/>
      <point x="1268.0" y="2018.0"/>
      <point x="1252.0" y="2012.0" type="curve"/>
      <point x="1236.0" y="1916.0" type="line"/>
      <point x="1245.0" y="1923.0"/>
      <point x="1283.0" y="1921.0"/>
      <point x="1296.0" y="1920.0" type="curve" smooth="yes"/>
      <point x="1450.0" y="1921.0"/>
      <point x="1547.0" y="1842.0"/>
      <point x="1512.0" y="1640.0" type="curve" smooth="yes"/>
      <point x="1340.0" y="608.0" type="line" smooth="yes"/>
      <point x="1276.0" y="232.0"/>
      <point x="1011.0" y="80.0"/>
      <point x="716.0" y="80.0" type="curve" smooth="yes"/>
      <point x="420.0" y="80.0"/>
      <point x="213.0" y="232.0"/>
      <point x="280.0" y="608.0" type="curve" smooth="yes"/>
      <point x="508.0" y="2004.0" type="line"/>
      <point x="376.0" y="2004.0" type="line"/>
      <point x="144.0" y="608.0" type="line" smooth="yes"/>
      <point x="71.0" y="170.0"/>
      <point x="341.0" y="-28.0"/>
    </contour>
  </outline>
</glyph>
<glyph name="Yhook" format="2">
  <advance width="1753.0"/>
  <unicode hex="01B3"/>
  <note>
!post:RemoveOverlap
</note>
  <outline>
    <contour>
      <point x="1556.0" y="1832.0" type="line"/>
      <point x="1612.0" y="1904.0" type="line" smooth="yes"/>
      <point x="1686.0" y="2006.0"/>
      <point x="1796.0" y="2002.0"/>
      <point x="1844.0" y="1964.0" type="curve"/>
      <point x="1892.0" y="2040.0" type="line"/>
      <point x="1767.0" y="2126.0"/>
      <point x="1636.0" y="2045.0"/>
      <point x="1524.0" y="1904.0" type="curve" smooth="yes"/>
      <point x="1496.0" y="1872.0" type="line"/>
    </contour>
    <contour>
      <point x="804.0" y="972.0" type="line"/>
      <point x="852.0" y="972.0" type="line"/>
      <point x="860.0" y="1020.0" type="line"/>
      <point x="812.0" y="1020.0" type="line"/>
    </contour>
    <contour>
      <point x="388.0" y="2048.0" type="line"/>
      <point x="292.0" y="2048.0" type="line"/>
      <point x="784.0" y="896.0" type="line"/>
      <point x="636.0" y="0.0" type="line"/>
      <point x="700.0" y="0.0" type="line"/>
      <point x="848.0" y="896.0" type="line"/>
      <point x="1556.0" y="1832.0" type="line"/>
      <point x="1496.0" y="1872.0" type="line"/>
      <point x="836.0" y="1000.0" type="line"/>
    </contour>
  </outline>
</glyph>
<glyph name="yhook" format="2">
  <advance width="1718.0"/>
  <unicode hex="01B4"/>
  <outline>
    <contour>
      <point x="1324.0" y="1332.0" type="line"/>
      <point x="1356.0" y="1384.0" type="line" smooth="yes"/>
      <point x="1527.0" y="1716.0"/>
      <point x="1618.0" y="1856.0"/>
      <point x="1768.0" y="1832.0" type="curve" smooth="yes"/>
      <point x="1829.0" y="1820.0"/>
      <point x="1914.0" y="1782.0"/>
      <point x="1964.0" y="1736.0" type="curve"/>
      <point x="2064.0" y="1736.0" type="line"/>
      <point x="2032.0" y="1825.0"/>
      <point x="1973.0" y="1889.0"/>
      <point x="1900.0" y="1932.0" type="curve" smooth="yes"/>
      <point x="1619.0" y="1980.0"/>
      <point x="1444.0" y="1675.0"/>
      <point x="1292.0" y="1388.0" type="curve" smooth="yes"/>
      <point x="1296.0" y="1392.0" type="line"/>
    </contour>
    <contour>
      <point x="420.0" y="-232.0" type="line" smooth="yes"/>
      <point x="287.0" y="-469.0"/>
      <point x="145.0" y="-488.0"/>
      <point x="-12.0" y="-488.0" type="curve"/>
      <point x="-121.0" y="-488.0"/>
      <point x="-172.0" y="-482.0"/>
      <point x="-172.0" y="-480.0" type="curve"/>
      <point x="-192.0" y="-588.0" type="line"/>
      <point x="-197.0" y="-581.0"/>
      <point x="-26.0" y="-600.0"/>
      <point x="-24.0" y="-600.0" type="curve" smooth="yes"/>
      <point x="108.0" y="-600.0"/>
      <point x="314.0" y="-541.0"/>
      <point x="480.0" y="-236.0" type="curve" smooth="yes"/>
      <point x="1324.0" y="1332.0" type="line"/>
      <point x="1296.0" y="1392.0" type="line"/>
      <point x="588.0" y="40.0" type="line"/>
      <point x="320.0" y="1536.0" type="line"/>
      <point x="252.0" y="1536.0" type="line"/>
      <point x="516.0" y="-40.0" type="line"/>
    </contour>
  </outline>
</glyph>
<glyph name="Ezh" format="2">
  <advance width="1816.0"/>
  <unicode hex="01B7"/>
  <outline>
    <contour>
      <point x="628.0" y="-576.0" type="curve" smooth="yes"/>
      <point x="1047.0" y="-576.0"/>
      <point x="1434.0" y="-203.0"/>
      <point x="1504.0" y="200.0" type="curve" smooth="yes"/>
      <point x="1565.0" y="591.0"/>
      <point x="1321.0" y="962.0"/>
      <point x="772.0" y="992.0" type="curve"/>
      <point x="776.0" y="1008.0" type="line"/>
      <point x="1748.0" y="1980.0" type="line"/>
      <point x="1760.0" y="2048.0" type="line"/>
      <point x="420.0" y="2048.0" type="line"/>
      <point x="408.0" y="1964.0" type="line"/>
      <point x="1640.0" y="1964.0" type="line"/>
      <point x="1640.0" y="1948.0" type="line"/>
      <point x="572.0" y="908.0" type="line"/>
      <point x="552.0" y="788.0" type="line"/>
      <point x="728.0" y="788.0" type="line" smooth="yes"/>
      <point x="1249.0" y="788.0"/>
      <point x="1531.0" y="511.0"/>
      <point x="1472.0" y="152.0" type="curve" smooth="yes"/>
      <point x="1410.0" y="-218.0"/>
      <point x="1023.0" y="-502.0"/>
      <point x="624.0" y="-504.0" type="curve" smooth="yes"/>
      <point x="250.0" y="-502.0"/>
      <point x="70.0" y="-250.0"/>
      <point x="100.0" y="40.0" type="curve"/>
      <point x="56.0" y="40.0" type="line"/>
      <point x="8.0" y="-286.0"/>
      <point x="251.0" y="-576.0"/>
    </contour>
  </outline>
</glyph>
<glyph name="ezhtail" format="2">
  <advance width="1419.0"/>
  <unicode hex="01BA"/>
  <outline>
    <contour>
      <point x="300.0" y="1488.0" type="line"/>
      <point x="284.0" y="1384.0" type="line"/>
      <point x="1316.0" y="1384.0" type="line"/>
      <point x="484.0" y="816.0" type="line"/>
      <point x="468.0" y="716.0" type="line"/>
      <point x="608.0" y="716.0" type="line"/>
      <point x="1432.0" y="1388.0" type="line"/>
      <point x="1448.0" y="1488.0" type="line"/>
    </contour>
    <contour>
      <point x="88.0" y="-192.0" type="curve" smooth="yes"/>
      <point x="109.0" y="-54.0"/>
      <point x="190.0" y="44.0"/>
      <point x="472.0" y="104.0" type="curve" smooth="yes"/>
      <point x="878.0" y="194.0"/>
      <point x="1053.0" y="281.0"/>
      <point x="1096.0" y="532.0" type="curve" smooth="yes"/>
      <point x="1132.0" y="754.0"/>
      <point x="933.0" y="864.0"/>
      <point x="640.0" y="864.0" type="curve" smooth="yes"/>
      <point x="644.0" y="864.0" type="line"/>
      <point x="620.0" y="716.0" type="line"/>
      <point x="616.0" y="716.0" type="line" smooth="yes"/>
      <point x="893.0" y="714.0"/>
      <point x="965.0" y="642.0"/>
      <point x="944.0" y="528.0" type="curve" smooth="yes"/>
      <point x="918.0" y="376.0"/>
      <point x="852.0" y="316.0"/>
      <point x="576.0" y="256.0" type="curve" smooth="yes"/>
      <point x="200.0" y="171.0"/>
      <point x="-7.0" y="48.0"/>
      <point x="-48.0" y="-172.0" type="curve" smooth="yes"/>
      <point x="-88.0" y="-434.0"/>
      <point x="83.0" y="-600.0"/>
      <point x="392.0" y="-600.0" type="curve" smooth="yes"/>
      <point x="754.0" y="-600.0"/>
      <point x="989.0" y="-373.0"/>
      <point x="1036.0" y="-120.0" type="curve"/>
      <point x="892.0" y="-120.0" type="line"/>
      <point x="828.0" y="-374.0"/>
      <point x="597.0" y="-454.0"/>
      <point x="424.0" y="-456.0" type="curve" smooth="yes"/>
      <point x="161.0" y="-454.0"/>
      <point x="64.0" y="-337.0"/>
    </contour>
  </outline>
</glyph>
<glyph name="Tonefive" format="2">
  <advance width="1570.0"/>
  <unicode hex="01BC"/>
  <outline>
    <contour>
      <point x="748.0" y="2048.0" type="line"/>
      <point x="304.0" y="2048.0" type="line"/>
      <point x="284.0" y="1936.0" type="line"/>
      <point x="728.0" y="1936.0" type="line"/>
    </contour>
    <component base="five" xOffset="-48.0"/>
  </outline>
</glyph>
<glyph name="tonefive" format="2">
  <advance width="1196.0"/>
  <unicode hex="01BD"/>
  <outline>
    <contour>
      <point x="284.0" y="664.0" type="line"/>
      <point x="367.0" y="777.0"/>
      <point x="476.0" y="883.0"/>
      <point x="668.0" y="884.0" type="curve" smooth="yes"/>
      <point x="917.0" y="883.0"/>
      <point x="1009.0" y="720.0"/>
      <point x="972.0" y="484.0" type="curve" smooth="yes"/>
      <point x="936.0" y="257.0"/>
      <point x="787.0" y="85.0"/>
      <point x="516.0" y="84.0" type="curve" smooth="yes"/>
      <point x="305.0" y="85.0"/>
      <point x="172.0" y="229.0"/>
      <point x="220.0" y="424.0" type="curve"/>
      <point x="104.0" y="396.0" type="line"/>
      <point x="53.0" y="122.0"/>
      <point x="328.0" y="-24.0"/>
      <point x="496.0" y="-24.0" type="curve" smooth="yes"/>
      <point x="867.0" y="-24.0"/>
      <point x="1053.0" y="216.0"/>
      <point x="1100.0" y="512.0" type="curve" smooth="yes"/>
      <point x="1156.0" y="859.0"/>
      <point x="999.0" y="1058.0"/>
      <point x="680.0" y="1048.0" type="curve" smooth="yes"/>
      <point x="604.0" y="1039.0"/>
      <point x="460.0" y="992.0"/>
      <point x="400.0" y="944.0" type="curve"/>
      <point x="504.0" y="1348.0" type="line"/>
      <point x="1192.0" y="1348.0" type="line"/>
      <point x="1216.0" y="1488.0" type="line"/>
      <point x="408.0" y="1488.0" type="line"/>
      <point x="196.0" y="684.0" type="line"/>
    </contour>
    <contour>
      <point x="568.0" y="1488.0" type="line"/>
      <point x="176.0" y="1488.0" type="line"/>
      <point x="148.0" y="1348.0" type="line"/>
      <point x="544.0" y="1348.0" type="line"/>
    </contour>
  </outline>
</glyph>
<glyph name="glottalstopbarinv" format="2">
  <advance width="1419.0"/>
  <unicode hex="01BE"/>
  <outline>
    <contour>
      <point x="1048.0" y="376.0" type="curve" smooth="yes"/>
      <point x="1020.0" y="239.0"/>
      <point x="872.0" y="118.0"/>
      <point x="624.0" y="120.0" type="curve" smooth="yes"/>
      <point x="440.0" y="118.0"/>
      <point x="240.0" y="202.0"/>
      <point x="280.0" y="460.0" type="curve"/>
      <point x="128.0" y="460.0" type="line"/>
      <point x="76.0" y="194.0"/>
      <point x="240.0" y="-28.0"/>
      <point x="608.0" y="-28.0" type="curve" smooth="yes"/>
      <point x="908.0" y="-28.0"/>
      <point x="1151.0" y="146.0"/>
      <point x="1196.0" y="412.0" type="curve" smooth="yes"/>
      <point x="1256.0" y="784.0"/>
      <point x="752.0" y="751.0"/>
      <point x="804.0" y="1044.0" type="curve" smooth="yes"/>
      <point x="936.0" y="1832.0" type="line"/>
      <point x="804.0" y="1832.0" type="line"/>
      <point x="672.0" y="1024.0" type="line" smooth="yes"/>
      <point x="607.0" y="655.0"/>
      <point x="1096.0" y="694.0"/>
    </contour>
    <contour>
      <point x="1160.0" y="1488.0" type="line"/>
      <point x="428.0" y="1488.0" type="line"/>
      <point x="408.0" y="1384.0" type="line"/>
      <point x="1140.0" y="1384.0" type="line"/>
    </contour>
  </outline>
</glyph>
<glyph name="wynn" format="2">
  <advance width="1654.0"/>
  <unicode hex="01BF"/>
  <outline>
    <contour>
      <point x="452.0" y="1204.0" type="line"/>
      <point x="480.0" y="1488.0" type="line"/>
      <point x="372.0" y="1488.0" type="line"/>
      <point x="32.0" y="-572.0" type="line"/>
      <point x="160.0" y="-572.0" type="line"/>
    </contour>
    <contour>
      <point x="320.0" y="992.0" type="line"/>
      <point x="429.0" y="1162.0"/>
      <point x="621.0" y="1396.0"/>
      <point x="884.0" y="1396.0" type="curve" smooth="yes"/>
      <point x="1214.0" y="1396.0"/>
      <point x="1326.0" y="1099.0"/>
      <point x="1276.0" y="748.0" type="curve" smooth="yes"/>
      <point x="1264.0" y="728.0" type="line" smooth="yes"/>
      <point x="1188.0" y="243.0"/>
      <point x="771.0" y="60.0"/>
      <point x="236.0" y="-112.0" type="curve"/>
      <point x="180.0" y="-224.0" type="line"/>
      <point x="848.0" y="-14.0"/>
      <point x="1307.0" y="163.0"/>
      <point x="1396.0" y="728.0" type="curve" smooth="yes"/>
      <point x="1404.0" y="748.0" type="line" smooth="yes"/>
      <point x="1474.0" y="1203.0"/>
      <point x="1332.0" y="1516.0"/>
      <point x="960.0" y="1516.0" type="curve" smooth="yes"/>
      <point x="579.0" y="1516.0"/>
      <point x="317.0" y="1293.0"/>
      <point x="204.0" y="816.0" type="curve"/>
    </contour>
  </outline>
</glyph>
<glyph name="pipe" format="2">
  <advance width="652.0"/>
  <unicode hex="01C0"/>
  <outline>
    <contour>
      <point x="640.0" y="2084.0" type="line"/>
      <point x="452.0" y="2084.0" type="line"/>
      <point x="104.0" y="0.0" type="line"/>
      <point x="296.0" y="0.0" type="line"/>
    </contour>
  </outline>
</glyph>
<glyph name="Gbar" format="2">
  <advance width="2016.0"/>
  <unicode hex="01E4"/>
  <outline>
    <contour>
      <point x="1940.0" y="640.0" type="line"/>
      <point x="1060.0" y="640.0" type="line"/>
      <point x="1048.0" y="576.0" type="line"/>
      <point x="1928.0" y="576.0" type="line"/>
    </contour>
    <component base="G"/>
  </outline>
</glyph>
<glyph name="uni01F6" format="2">
  <advance width="3110.0"/>
  <unicode hex="01F6"/>
  <outline>
    <contour>
      <point x="2144.0" y="-28.0" type="curve" smooth="yes"/>
      <point x="2463.0" y="-28.0"/>
      <point x="2745.0" y="160.0"/>
      <point x="2820.0" y="608.0" type="curve" smooth="yes"/>
      <point x="2984.0" y="1576.0" type="line"/>
      <point x="2920.0" y="1576.0" type="line"/>
      <point x="2760.0" y="608.0" type="line" smooth="yes"/>
      <point x="2694.0" y="222.0"/>
      <point x="2492.0" y="63.0"/>
      <point x="2156.0" y="64.0" type="curve" smooth="yes"/>
      <point x="1822.0" y="63.0"/>
      <point x="1658.0" y="222.0"/>
      <point x="1724.0" y="608.0" type="curve" smooth="yes"/>
      <point x="1964.0" y="2048.0" type="line"/>
      <point x="1900.0" y="2048.0" type="line"/>
      <point x="1736.0" y="1068.0" type="line"/>
      <point x="428.0" y="1068.0" type="line"/>
      <point x="592.0" y="2048.0" type="line"/>
      <point x="532.0" y="2048.0" type="line"/>
      <point x="192.0" y="0.0" type="line"/>
      <point x="252.0" y="0.0" type="line"/>
      <point x="416.0" y="988.0" type="line"/>
      <point x="1724.0" y="988.0" type="line"/>
      <point x="1660.0" y="608.0" type="line" smooth="yes"/>
      <point x="1590.0" y="173.0"/>
      <point x="1805.0" y="-28.0"/>
    </contour>
  </outline>
</glyph>
